<?xml version="1.0" encoding="UTF-8" standalone="no"?>
<!-- Created with Inkscape (http://www.inkscape.org/) -->

<svg
   xmlns:dc="http://purl.org/dc/elements/1.1/"
   xmlns:cc="http://creativecommons.org/ns#"
   xmlns:rdf="http://www.w3.org/1999/02/22-rdf-syntax-ns#"
   xmlns:svg="http://www.w3.org/2000/svg"
   xmlns="http://www.w3.org/2000/svg"
   xmlns:sodipodi="http://sodipodi.sourceforge.net/DTD/sodipodi-0.dtd"
   xmlns:inkscape="http://www.inkscape.org/namespaces/inkscape"
   width="3840"
   height="2160"
   id="svg4279"
   version="1.1"
   inkscape:version="0.48.5 r10040"
   sodipodi:docname="background.svg">
  <defs
     id="defs4281" />
  <sodipodi:namedview
     id="base"
     pagecolor="#ffffff"
     bordercolor="#666666"
     borderopacity="1.0"
     inkscape:pageopacity="0.0"
     inkscape:pageshadow="2"
     inkscape:zoom="0.12374369"
     inkscape:cx="1629.577"
     inkscape:cy="1046.3765"
     inkscape:document-units="px"
     inkscape:current-layer="layer1"
     showgrid="false"
     fit-margin-top="0"
     fit-margin-left="0"
     fit-margin-right="0"
     fit-margin-bottom="0"
     inkscape:window-width="960"
     inkscape:window-height="1059"
     inkscape:window-x="960"
     inkscape:window-y="21"
     inkscape:window-maximized="0" />
  <metadata
     id="metadata4284">
    <rdf:RDF>
      <cc:Work
         rdf:about="">
        <dc:format>image/svg+xml</dc:format>
        <dc:type
           rdf:resource="http://purl.org/dc/dcmitype/StillImage" />
        <dc:title />
      </cc:Work>
    </rdf:RDF>
  </metadata>
  <g
     inkscape:label="Layer 1"
     inkscape:groupmode="layer"
     id="layer1"
     transform="translate(-175.80409,1495.856)">
    <path
       style="fill:#7eb2e2;stroke:#000000;stroke-width:1px;stroke-linecap:butt;stroke-linejoin:miter;stroke-opacity:1;fill-opacity:1"
       d="m -1066.7211,1634.7207 5769.9912,-8.0812 -339.4112,-2254.66045 -5365.9302,145.46196 z"
       id="path2984"
       inkscape:connector-curvature="0"
       transform="translate(175.80409,-1495.856)" />
    <path
       style="fill:#ce8b71;stroke:none;stroke-width:1px;stroke-linecap:butt;stroke-linejoin:miter;stroke-opacity:1;fill-opacity:0.99215686000000003"
       d="m -108.57143,1097.1429 c 34.285716,-11.4286 794.28572,0 920,-11.4286 125.71429,-11.4286 577.14283,-28.5714 617.14283,-34.2857 40,-5.7143 51.4286,-114.28574 51.4286,-114.28574 0,0 51.4286,11.42857 74.2857,5.71428 22.8572,-5.71428 28.5714,-91.42857 28.5714,-91.42857 0,0 68.5715,-51.42857 74.2858,-74.28571 C 1662.8571,754.28572 1640,662.85714 1640,662.85714 l 62.8571,-68.57142 c 0,0 188.5715,-57.14286 222.8572,-22.85715 34.2857,34.28572 74.2857,211.42857 57.1428,240 C 1965.7143,840 2005.7143,960 2005.7143,960 c 0,0 102.8571,51.4286 85.7143,-51.42857 C 2074.2857,805.71429 2080,622.85714 2120,657.14286 c 40,34.28571 102.8571,68.57143 85.7143,142.85714 -17.1429,74.28571 -34.2857,137.14286 28.5714,200 62.8572,62.8571 68.5714,22.8571 268.5714,5.7143 200,-17.14287 491.4286,102.8571 554.2858,51.4286 C 3120,1005.7143 3200,1045.7143 3228.5714,982.85714 3257.1429,920 3331.4286,885.71429 3342.8571,760 c 11.4286,-125.71428 114.2858,-148.57143 200,-177.14286 85.7143,-28.57142 154.2858,-85.71428 285.7143,-68.57142 131.4286,17.14285 205.7143,22.85714 205.7143,22.85714 l 57.1429,1011.42854 c 0,0 40,1040 0,1040 -40,0 -4205.71431,-148.5714 -4205.71431,-177.1428 0,-28.5715 5.71428,-1314.2857 5.71428,-1314.2857 z"
       id="path4357"
       inkscape:connector-curvature="0"
       transform="translate(175.80409,-1495.856)" />
    <path
       style="fill:#cbbc83;stroke:none;stroke-width:1px;stroke-linecap:butt;stroke-linejoin:miter;stroke-opacity:1;fill-opacity:1"
       d="m -193.94929,1408.4465 c 28.39839,0.8875 56.9272,2.8452 84.85282,8.0812 36.924318,6.9233 71.701166,24.6886 109.09647,28.2843 33.624249,3.2331 67.244086,-7.3388 101.01525,-8.0812 84.62344,-1.8603 -81.694464,7.282 315.1676,12.1218 60.66447,0.7398 121.23417,-5.0515 181.82746,-8.0812 47.15844,-2.3579 95.25211,1.8122 141.42135,-8.0812 49.17091,-10.5367 92.422,-41.2204 141.42136,-52.528 134.67038,-31.0778 218.64228,-16.1756 355.57368,-20.203 31.0815,-0.9142 61.9623,-5.3159 92.934,-8.0812 44.4532,-3.9691 88.7562,-10.0953 133.3402,-12.1219 44.4009,-2.0182 88.8934,0 133.3401,0 71.3841,0 142.7782,1.1896 214.1524,0 15.0226,-0.2503 539.5059,-16.3867 549.5229,-16.1624 521.6577,11.6789 22.1154,28.2843 476.792,28.2843 49.907,0 96.5881,-9.6001 149.5026,-8.0813 168.1358,-3.0305 -21.8729,3.7032 202.0305,-8.0812 22.8652,-1.2034 45.7936,0 68.6904,0 22.8968,0 45.7936,0 68.6904,0 17.5093,0 35.0186,0 52.5279,0 17.5093,0 35.0702,-1.3429 52.5279,0 76.5038,5.8849 28.2201,12.8835 105.0559,8.0812 25.6818,-1.6051 51.0718,-6.7962 76.7716,-8.0812 28.249,-1.4124 56.5685,0 84.8528,0 28.2843,0 56.5686,0 84.8528,0 30.978,0 61.9853,1.3456 92.9341,0 31.0655,-1.3507 61.8639,-6.8384 92.934,-8.0812 78.056,-3.1222 156.2775,2.5186 234.3554,0 304.6365,-10.8306 170.811,325.8585 202.0304,476.792 85.4074,678.3169 -178.4328,818.7201 -614.1727,1010.1525 -668.8745,24.6885 -2534.191,88.1504 -3887.06694,105.056 -831.21311,-495.3623 -783.53852,-1515.3147 -96.97465,-1511.1883 z"
       id="path4881"
       inkscape:connector-curvature="0"
       transform="translate(175.80409,-1495.856)"
       sodipodi:nodetypes="csssssssssssssscsssssssssssccccc" />
  </g>
</svg>
