<?xml version="1.0" encoding="UTF-8" standalone="no"?>
<!-- Created with Inkscape (http://www.inkscape.org/) -->

<svg
   xmlns:dc="http://purl.org/dc/elements/1.1/"
   xmlns:cc="http://creativecommons.org/ns#"
   xmlns:rdf="http://www.w3.org/1999/02/22-rdf-syntax-ns#"
   xmlns:svg="http://www.w3.org/2000/svg"
   xmlns="http://www.w3.org/2000/svg"
   xmlns:sodipodi="http://sodipodi.sourceforge.net/DTD/sodipodi-0.dtd"
   xmlns:inkscape="http://www.inkscape.org/namespaces/inkscape"
   width="1067.8501"
   height="631.26318"
   id="svg3829"
   version="1.1"
   inkscape:version="0.48.5 r10040"
   sodipodi:docname="bang.svg">
  <defs
     id="defs3831" />
  <sodipodi:namedview
     id="base"
     pagecolor="#ffffff"
     bordercolor="#666666"
     borderopacity="1.0"
     inkscape:pageopacity="0.0"
     inkscape:pageshadow="2"
     inkscape:zoom="0.25"
     inkscape:cx="525.65113"
     inkscape:cy="-12.413978"
     inkscape:document-units="px"
     inkscape:current-layer="layer1"
     showgrid="false"
     fit-margin-top="0"
     fit-margin-left="0"
     fit-margin-right="0"
     fit-margin-bottom="0"
     inkscape:window-width="960"
     inkscape:window-height="1059"
     inkscape:window-x="960"
     inkscape:window-y="21"
     inkscape:window-maximized="0" />
  <metadata
     id="metadata3834">
    <rdf:RDF>
      <cc:Work
         rdf:about="">
        <dc:format>image/svg+xml</dc:format>
        <dc:type
           rdf:resource="http://purl.org/dc/dcmitype/StillImage" />
        <dc:title />
      </cc:Work>
    </rdf:RDF>
  </metadata>
  <g
     inkscape:label="Layer 1"
     inkscape:groupmode="layer"
     id="layer1"
     transform="translate(-528.6557,381.76299)">
    <path
       style="fill:#ffffff;fill-opacity:1;stroke:#000000;stroke-width:20;stroke-linecap:round;stroke-linejoin:round;stroke-miterlimit:4;stroke-opacity:1;stroke-dasharray:none"
       d="M 518,96.559998 C 644,-54.440002 633,-59.44 633,-59.44 c 0,0 -290,-368 40,-412 733.0718,-97.74291 805,-14 855,94 45.4744,98.22465 64,150 -54,184 -247.981,71.45216 -700,105.999998 -754,157.999998 -54,52 -202,132 -202,132 z"
       id="path3041"
       inkscape:connector-curvature="0"
       transform="translate(23.462731,142.94018)"
       sodipodi:nodetypes="ccssssc" />
    <g
       style="font-size:40px;font-style:normal;font-weight:normal;line-height:125%;letter-spacing:0px;word-spacing:0px;fill:#000000;fill-opacity:1;stroke:none;font-family:Sans"
       id="text3009">
      <path
         d="m 666.48051,-283.92017 c 1.39996,-0.19994 4.19996,-0.23327 8.4,-0.1 4.19995,0.1334 6.63328,0.36673 7.3,0.7 0.79995,0.26673 1.33328,0.86673 1.6,1.8 0.33328,0.93339 0.26661,1.66673 -0.2,2.2 -0.33339,0.26672 -1.86672,0.43339 -4.6,0.5 -2.66671,0.0667 -5.60004,0.13339 -8.8,0.2 -3.13337,6e-5 -5.20003,0.13339 -6.2,0.4 -1.20003,0.26672 -1.90003,0.56672 -2.1,0.9 -0.20003,0.33339 -0.2667,1.33339 -0.2,3 -3e-5,1.60005 0.26664,8.86671 0.8,21.8 0.5333,12.86669 0.89997,20.76668 1.1,23.7 -3e-5,1.06667 -0.10003,1.76667 -0.3,2.1 -0.20003,0.26667 -0.70003,0.46667 -1.5,0.6 -0.80003,0.0667 -1.3667,1e-5 -1.7,-0.2 -0.33336,-0.19999 -0.63336,-0.66666 -0.9,-1.4 -0.80003,-2.06666 -1.36669,-6.63332 -1.7,-13.7 -0.33336,-7.06664 -0.53336,-13.96663 -0.6,-20.7 -0.0667,-6.79995 -0.20003,-10.63328 -0.4,-11.5 -0.20003,-0.73328 -0.43336,-1.23328 -0.7,-1.5 -0.26669,-0.26661 -0.80002,-0.36661 -1.6,-0.3 -0.73336,0.0667 -1.70002,0.33339 -2.9,0.8 -1.13335,0.46672 -2.80002,1.16672 -5,2.1 -5.60001,2.46672 -8.76667,3.06672 -9.5,1.8 -0.13334,-0.26662 -0.20001,-0.63328 -0.2,-1.1 -10e-6,-0.99995 0.73333,-1.93328 2.2,-2.8 1.46666,-0.86661 5.26665,-2.56661 11.4,-5.1 1.33331,-0.53327 3.89998,-1.29994 7.7,-2.3 3.79997,-0.99994 6.66663,-1.63327 8.6,-1.9"
         style="font-size:100px;font-variant:normal;font-weight:500;font-stretch:normal;font-family:My_Unprofessional_Handwriting;-inkscape-font-specification:My_Unprofessional_Handwriting Medium"
         id="path2992" />
      <path
         d="m 695.79457,-257.02017 c 1.73332,-1.26663 3.03332,-2.06663 3.9,-2.4 0.93332,-0.39996 2.06665,-0.59996 3.4,-0.6 1.79998,4e-5 3.53331,0.43337 5.2,1.3 1.66664,0.80004 2.49997,1.6667 2.5,2.6 -3e-5,0.53337 0.36664,1.70003 1.1,3.5 0.7333,1.73336 1.26664,3.30003 1.6,4.7 0.7333,3.06669 2.49997,7.83335 5.3,14.3 0.3333,0.86668 -0.0667,1.70001 -1.2,2.5 -1.53337,1.00001 -2.7667,0.73334 -3.7,-0.8 -0.2667,-0.46666 -0.4667,-1.03332 -0.6,-1.7 -0.4667,-1.99999 -1.10003,-2.99998 -1.9,-3 -0.73336,2e-5 -2.03336,1.00001 -3.9,3 -1.53336,1.66668 -2.66669,2.70001 -3.4,3.1 -0.66669,0.40001 -1.80002,0.70001 -3.4,0.9 -3.73335,0.33334 -7.00001,-0.36666 -9.8,-2.1 -2.73334,-1.73332 -4.3,-4.06665 -4.7,-7 -0.53334,-3.19998 0.0333,-6.36664 1.7,-9.5 1.66666,-3.1333 4.29999,-6.06663 7.9,-8.8 m 10.5,5.6 c -1.00002,-2.19997 -1.93335,-3.39997 -2.8,-3.6 -0.86669,-0.19997 -2.26669,0.40003 -4.2,1.8 -2.86668,2.13336 -4.90001,4.13336 -6.1,6 -1.20001,1.86669 -1.80001,3.96669 -1.8,6.3 -1e-5,2.20002 0.76666,3.80002 2.3,4.8 1.59999,1.00001 3.83332,1.36668 6.7,1.1 1.13331,-0.13332 1.99998,-0.46665 2.6,-1 0.66665,-0.53332 1.63331,-1.76665 2.9,-3.7 1.33331,-1.99998 2.03331,-3.83331 2.1,-5.5 0.0666,-1.66664 -0.50002,-3.73331 -1.7,-6.2"
         style="font-size:100px;font-variant:normal;font-weight:500;font-stretch:normal;font-family:My_Unprofessional_Handwriting;-inkscape-font-specification:My_Unprofessional_Handwriting Medium"
         id="path2994" />
      <path
         d="m 721.25551,-279.22017 c 0.53333,-0.59994 1.36666,-0.89994 2.5,-0.9 1.13332,-0.0666 1.76666,0.20006 1.9,0.8 0.13332,0.33339 0.46666,1.80006 1,4.4 0.53332,2.53338 1.09999,4.93338 1.7,7.2 0.59999,2.00004 1.16665,4.26671 1.7,6.8 0.59998,2.53337 1.03332,4.53337 1.3,6 0.33332,1.4667 0.56665,2.2667 0.7,2.4 0.13332,0.13336 0.86665,-0.39997 2.2,-1.6 1.39998,-1.19997 2.93331,-2.49996 4.6,-3.9 1.66664,-1.39996 3.36664,-2.39996 5.1,-3 1.79997,-0.59996 3.1333,-0.23329 4,1.1 0.46663,0.73337 0.46663,1.53337 0,2.4 -0.4667,0.80004 -1.23336,1.33337 -2.3,1.6 -0.93336,0.2667 -2.46669,1.1667 -4.6,2.7 -1.33336,0.93336 -2.16669,1.63336 -2.5,2.1 -0.33336,0.40003 -0.30002,0.80003 0.1,1.2 0.53331,0.6667 1.06664,1.00003 1.6,1 0.39997,3e-5 3.33331,2.13336 8.8,6.4 5.53329,4.26668 8.69996,6.53335 9.5,6.8 0.99996,0.40001 1.63329,0.96668 1.9,1.7 0.33329,0.73335 0.23329,1.43335 -0.3,2.1 -1.53338,1.86668 -4.13337,1.33334 -7.8,-1.6 -6.0667,-4.79998 -10.06669,-7.86665 -12,-9.2 -1.93336,-1.39998 -3.30002,-2.09998 -4.1,-2.1 -1.26669,2e-5 -2.00002,0.46669 -2.2,1.4 -0.13335,0.93336 0.1,3.03335 0.7,6.3 0.66665,3.26668 0.89998,5.40001 0.7,6.4 -0.13335,0.93334 -0.83335,1.30001 -2.1,1.1 -0.66668,-0.0667 -1.23335,-0.33332 -1.7,-0.8 -0.40002,-0.46666 -0.76668,-1.26666 -1.1,-2.4 -0.33335,-1.13332 -0.63335,-2.23332 -0.9,-3.3 -0.20001,-1.13332 -0.53335,-2.79998 -1,-5 -0.40001,-2.26664 -0.80001,-4.29998 -1.2,-6.1 -0.13335,-0.79997 -0.40001,-2.16664 -0.8,-4.1 -0.40001,-1.99997 -0.90001,-4.39997 -1.5,-7.2 -0.60001,-2.79996 -1.36668,-6.03329 -2.3,-9.7 -0.93334,-3.99995 -1.53334,-6.73328 -1.8,-8.2 -0.20001,-1.46661 -0.13334,-2.39994 0.2,-2.8"
         style="font-size:100px;font-variant:normal;font-weight:500;font-stretch:normal;font-family:My_Unprofessional_Handwriting;-inkscape-font-specification:My_Unprofessional_Handwriting Medium"
         id="path2996" />
      <path
         d="m 775.05238,-267.12017 c 1.59999,-0.66662 2.89998,-1.03329 3.9,-1.1 0.99998,-0.0666 2.26665,0.20005 3.8,0.8 1.39998,0.46671 2.69998,1.50005 3.9,3.1 1.26664,1.60004 1.89997,3.03337 1.9,4.3 -3e-5,2.0667 -1.43336,5.03337 -4.3,8.9 -2.80002,3.86669 -5.63335,6.66669 -8.5,8.4 -0.20001,0.13336 -0.50001,0.33335 -0.9,0.6 -2.73334,1.66669 -4.30001,2.70002 -4.7,3.1 -0.33334,0.40002 -0.26667,1.03335 0.2,1.9 0.0667,0.13335 0.1,0.23335 0.1,0.3 0.46666,0.86668 1.46666,1.86668 3,3 1.59999,1.13335 3.59999,2.10001 6,2.9 2.46665,0.73334 4.99998,0.53334 7.6,-0.6 2.86664,-1.19999 4.29997,-0.63332 4.3,1.7 -3e-5,1.26667 -0.96669,2.30001 -2.9,3.1 -1.86669,0.73334 -4.16669,1.06667 -6.9,1 -2.73335,-0.13333 -5.20001,-0.69999 -7.4,-1.7 -4.66667,-1.99999 -8,-5.59999 -10,-10.8 -1.93333,-5.19998 -1.96667,-10.63331 -0.1,-16.3 0.66666,-2.19996 2.13333,-4.59996 4.4,-7.2 2.33332,-2.66662 4.53332,-4.46662 6.6,-5.4 m 6.4,4.7 c -0.86669,-0.66662 -1.50002,-0.99996 -1.9,-1 -0.33335,4e-5 -1.16668,0.33338 -2.5,1 -2.53335,1.40004 -4.63334,3.26671 -6.3,5.6 -1.60001,2.33337 -2.53334,4.83336 -2.8,7.5 -0.26667,2.33336 -0.13334,3.70002 0.4,4.1 0.59999,0.33336 1.83333,-0.0666 3.7,-1.2 2.53332,-1.46664 4.99999,-3.66664 7.4,-6.6 2.39998,-2.9333 3.59998,-5.19996 3.6,-6.8 -2e-5,-1.06663 -0.53335,-1.93329 -1.6,-2.6"
         style="font-size:100px;font-variant:normal;font-weight:500;font-stretch:normal;font-family:My_Unprofessional_Handwriting;-inkscape-font-specification:My_Unprofessional_Handwriting Medium"
         id="path2998" />
      <path
         d="m 842.20863,-269.32017 c 0.26666,-0.66662 0.79999,-1.03328 1.6,-1.1 0.86666,-0.0666 1.59999,0.20005 2.2,0.8 0.59999,0.53338 0.89999,1.80005 0.9,3.8 -10e-6,2.00004 0.26665,4.20004 0.8,6.6 0.53332,2.33337 1.03332,3.60003 1.5,3.8 0.33332,0.13337 1.29998,-0.0666 2.9,-0.6 1.59998,-0.5333 3.23331,-1.06663 4.9,-1.6 1.66664,-0.5333 3.29997,-0.86663 4.9,-1 1.59997,-0.1333 2.5333,0.23337 2.8,1.1 0.3333,0.8667 0.19997,1.6667 -0.4,2.4 -0.53336,0.73337 -1.40003,1.2667 -2.6,1.6 -1.46669,0.40003 -2.63336,0.73337 -3.5,1 -0.80002,0.2667 -1.70002,0.53336 -2.7,0.8 -0.93335,0.2667 -1.63335,0.53336 -2.1,0.8 -0.40002,0.20003 -0.86668,0.40003 -1.4,0.6 -0.53335,0.20003 -0.90002,0.43336 -1.1,0.7 -0.13335,0.2667 -0.30002,0.53336 -0.5,0.8 -0.20002,0.20003 -0.33335,0.50003 -0.4,0.9 -2e-5,0.33336 -2e-5,0.66669 0,1 -2e-5,0.26669 0.0333,0.66669 0.1,1.2 0.39998,4.86669 0.73332,7.96668 1,9.3 0.33332,1.26668 0.93332,2.43335 1.8,3.5 1.19998,1.40001 2.56665,2.06668 4.1,2 1.59998,-0.0667 3.56664,-0.86666 5.9,-2.4 4.1333,-2.79998 6.36663,-2.86665 6.7,-0.2 0.1333,1.20001 -0.4667,2.30001 -1.8,3.3 -3.60003,2.53334 -7.06669,3.90001 -10.4,4.1 -3.26669,0.20001 -6.00002,-0.73333 -8.2,-2.8 -0.93335,-0.93332 -1.80001,-2.59999 -2.6,-5 -0.73334,-2.39998 -1.23334,-5.19998 -1.5,-8.4 l -0.5,-4.7 -2.2,0.5 c -1.40001,0.40003 -2.93334,0.60003 -4.6,0.6 -1,0.0667 -1.66667,3e-5 -2,-0.2 -0.26667,-0.19997 -0.4,-0.63331 -0.4,-1.3 0,-0.79997 0.36667,-1.46664 1.1,-2 0.8,-0.59997 2.46666,-1.46664 5,-2.6 1.19999,-0.46663 1.89999,-0.8333 2.1,-1.1 0.19999,-0.3333 0.1,-0.8333 -0.3,-1.5 -0.40001,-0.86663 -0.76667,-3.3333 -1.1,-7.4 -0.26667,-4.06662 -0.26667,-6.49995 0,-7.3"
         style="font-size:100px;font-variant:normal;font-weight:500;font-stretch:normal;font-family:My_Unprofessional_Handwriting;-inkscape-font-specification:My_Unprofessional_Handwriting Medium"
         id="path3000" />
      <path
         d="m 871.93676,-280.72017 c 0.46666,-0.53327 0.99999,-0.79994 1.6,-0.8 0.66666,6e-5 1.19999,0.26673 1.6,0.8 1.13332,1.40006 1.99999,8.30005 2.6,20.7 0.33332,6.80003 0.69999,10.33336 1.1,10.6 0.26665,0.20003 0.79999,-0.0333 1.6,-0.7 3.53332,-3.19997 6.93331,-4.36663 10.2,-3.5 3.33331,0.8667 5.79997,3.5667 7.4,8.1 0.5333,1.60002 0.86663,5.03335 1,10.3 0.1333,3.33334 0.1333,5.53334 0,6.6 -0.13337,1.06667 -0.4667,1.86667 -1,2.4 -0.80003,0.8 -1.60003,0.96667 -2.4,0.5 -0.33336,-0.26666 -0.63336,-0.73333 -0.9,-1.4 -0.20003,-0.66666 -0.36669,-1.59999 -0.5,-2.8 -0.0667,-1.19999 -0.13336,-2.43332 -0.2,-3.7 -0.0667,-1.26665 -0.16669,-2.83332 -0.3,-4.7 -0.0667,-1.93331 -0.16669,-3.66665 -0.3,-5.2 -0.0667,-0.86664 -0.73336,-1.96664 -2,-3.3 -1.26669,-1.39997 -2.26669,-2.09997 -3,-2.1 -1.00002,3e-5 -2.40002,0.90003 -4.2,2.7 -1.80002,1.73336 -2.93335,3.33336 -3.4,4.8 -0.40001,1.06669 -0.60001,2.43335 -0.6,4.1 -10e-6,1.60001 0.0666,3.10001 0.2,4.5 0.13332,1.40001 0.19999,2.73334 0.2,4 0.0666,1.26667 -0.10001,2.30001 -0.5,3.1 -0.40001,0.73334 -1.06668,1.1 -2,1.1 -0.86668,0 -1.56668,-0.33333 -2.1,-1 -0.73334,-0.86666 -1.76667,-10.06665 -3.1,-27.6 -1.26667,-17.59995 -1.60001,-26.76661 -1,-27.5"
         style="font-size:100px;font-variant:normal;font-weight:500;font-stretch:normal;font-family:My_Unprofessional_Handwriting;-inkscape-font-specification:My_Unprofessional_Handwriting Medium"
         id="path3002" />
      <path
         d="m 911.02894,-257.02017 c 1.73332,-1.26663 3.03332,-2.06663 3.9,-2.4 0.93332,-0.39996 2.06665,-0.59996 3.4,-0.6 1.79998,4e-5 3.53331,0.43337 5.2,1.3 1.66664,0.80004 2.49998,1.6667 2.5,2.6 -2e-5,0.53337 0.36664,1.70003 1.1,3.5 0.73331,1.73336 1.26664,3.30003 1.6,4.7 0.73331,3.06669 2.49997,7.83335 5.3,14.3 0.3333,0.86668 -0.0667,1.70001 -1.2,2.5 -1.53336,1.00001 -2.76669,0.73334 -3.7,-0.8 -0.26669,-0.46666 -0.46669,-1.03332 -0.6,-1.7 -0.46669,-1.99999 -1.10002,-2.99998 -1.9,-3 -0.73336,2e-5 -2.03335,1.00001 -3.9,3 -1.53335,1.66668 -2.66668,2.70001 -3.4,3.1 -0.66668,0.40001 -1.80001,0.70001 -3.4,0.9 -3.73334,0.33334 -7.00001,-0.36666 -9.8,-2.1 -2.73333,-1.73332 -4.3,-4.06665 -4.7,-7 -0.53333,-3.19998 0.0333,-6.36664 1.7,-9.5 1.66666,-3.1333 4.3,-6.06663 7.9,-8.8 m 10.5,5.6 c -1.00002,-2.19997 -1.93335,-3.39997 -2.8,-3.6 -0.86668,-0.19997 -2.26668,0.40003 -4.2,1.8 -2.86668,2.13336 -4.90001,4.13336 -6.1,6 -1.2,1.86669 -1.8,3.96669 -1.8,6.3 0,2.20002 0.76666,3.80002 2.3,4.8 1.59999,1.00001 3.83332,1.36668 6.7,1.1 1.13332,-0.13332 1.99999,-0.46665 2.6,-1 0.66665,-0.53332 1.63332,-1.76665 2.9,-3.7 1.33331,-1.99998 2.03331,-3.83331 2.1,-5.5 0.0666,-1.66664 -0.50002,-3.73331 -1.7,-6.2"
         style="font-size:100px;font-variant:normal;font-weight:500;font-stretch:normal;font-family:My_Unprofessional_Handwriting;-inkscape-font-specification:My_Unprofessional_Handwriting Medium"
         id="path3004" />
      <path
         d="m 942.98988,-269.32017 c 0.26666,-0.66662 0.79999,-1.03328 1.6,-1.1 0.86666,-0.0666 1.59999,0.20005 2.2,0.8 0.59999,0.53338 0.89999,1.80005 0.9,3.8 -10e-6,2.00004 0.26665,4.20004 0.8,6.6 0.53332,2.33337 1.03332,3.60003 1.5,3.8 0.33332,0.13337 1.29998,-0.0666 2.9,-0.6 1.59998,-0.5333 3.23331,-1.06663 4.9,-1.6 1.66664,-0.5333 3.29997,-0.86663 4.9,-1 1.59997,-0.1333 2.5333,0.23337 2.8,1.1 0.3333,0.8667 0.19997,1.6667 -0.4,2.4 -0.53336,0.73337 -1.40003,1.2667 -2.6,1.6 -1.46669,0.40003 -2.63336,0.73337 -3.5,1 -0.80002,0.2667 -1.70002,0.53336 -2.7,0.8 -0.93335,0.2667 -1.63335,0.53336 -2.1,0.8 -0.40002,0.20003 -0.86668,0.40003 -1.4,0.6 -0.53335,0.20003 -0.90002,0.43336 -1.1,0.7 -0.13335,0.2667 -0.30002,0.53336 -0.5,0.8 -0.20002,0.20003 -0.33335,0.50003 -0.4,0.9 -2e-5,0.33336 -2e-5,0.66669 0,1 -2e-5,0.26669 0.0333,0.66669 0.1,1.2 0.39998,4.86669 0.73332,7.96668 1,9.3 0.33332,1.26668 0.93332,2.43335 1.8,3.5 1.19998,1.40001 2.56665,2.06668 4.1,2 1.59998,-0.0667 3.56664,-0.86666 5.9,-2.4 4.1333,-2.79998 6.36663,-2.86665 6.7,-0.2 0.1333,1.20001 -0.4667,2.30001 -1.8,3.3 -3.60003,2.53334 -7.06669,3.90001 -10.4,4.1 -3.26669,0.20001 -6.00002,-0.73333 -8.2,-2.8 -0.93335,-0.93332 -1.80001,-2.59999 -2.6,-5 -0.73334,-2.39998 -1.23334,-5.19998 -1.5,-8.4 l -0.5,-4.7 -2.2,0.5 c -1.40001,0.40003 -2.93334,0.60003 -4.6,0.6 -1,0.0667 -1.66667,3e-5 -2,-0.2 -0.26667,-0.19997 -0.4,-0.63331 -0.4,-1.3 0,-0.79997 0.36667,-1.46664 1.1,-2 0.8,-0.59997 2.46666,-1.46664 5,-2.6 1.19999,-0.46663 1.89999,-0.8333 2.1,-1.1 0.19999,-0.3333 0.1,-0.8333 -0.3,-1.5 -0.40001,-0.86663 -0.76667,-3.3333 -1.1,-7.4 -0.26667,-4.06662 -0.26667,-6.49995 0,-7.3"
         style="font-size:100px;font-variant:normal;font-weight:500;font-stretch:normal;font-family:My_Unprofessional_Handwriting;-inkscape-font-specification:My_Unprofessional_Handwriting Medium"
         id="path3006" />
      <path
         d="m 1014.9102,-280.92017 c 0.4,-0.73327 1.0333,-1.16661 1.9,-1.3 0.9333,-0.13327 1.6,0.13339 2,0.8 0.2667,0.40006 0.5333,4.60006 0.8,12.6 0.2667,8.00004 0.5,12.10004 0.7,12.3 0.3333,0.33337 5.2666,0.33337 14.8,0 l 14.2,-0.4 -0.1,-2.8 c -0.067,-2.59996 -0.1667,-5.13329 -0.3,-7.6 -0.1334,-2.53328 -0.2667,-4.36662 -0.4,-5.5 -0.1334,-1.13328 -0.2,-2.19995 -0.2,-3.2 0,-1.06661 0.1,-1.83328 0.3,-2.3 0.2,-0.53328 0.5333,-1.03327 1,-1.5 1,-0.86661 1.9,-1.06661 2.7,-0.6 0.7333,0.46673 1.2,2.56672 1.4,6.3 0.2,3.66672 0.4333,7.46671 0.7,11.4 0.2666,3.93337 0.8,6.33337 1.6,7.2 0.7999,0.8667 1.1999,1.5667 1.2,2.1 0.067,0.53337 -0.2667,1.10003 -1,1.7 -0.4,0.33336 -0.6667,1.4667 -0.8,3.4 -0.1334,1.93336 -0.2,5.90002 -0.2,11.9 0,9.00001 -0.3334,14.06667 -1,15.2 -0.3334,0.66667 -1.1,0.86667 -2.3,0.6 -0.5334,-0.0667 -0.8667,-0.86667 -1,-2.4 -0.1334,-1.53333 -0.2334,-5.63333 -0.3,-12.3 -0.067,-9.66664 -0.3334,-14.69997 -0.8,-15.1 -0.4,-0.39997 -5.4334,-0.5333 -15.1,-0.4 l -14.6,0.1 -0.2,6.3 c -0.067,2.33335 -0.067,4.66669 0,7 0.1333,2.33335 0.2667,4.23335 0.4,5.7 0.2,1.40001 0.3333,2.70001 0.4,3.9 0.1333,1.20001 0.1333,2.16667 0,2.9 -0.067,0.66667 -0.3,1.16667 -0.7,1.5 -0.8667,0.66667 -1.5,0.93334 -1.9,0.8 -0.4,-0.13333 -0.9667,-0.8 -1.7,-2 -0.6,-0.93333 -1,-2.93333 -1.2,-6 -0.1333,-3.13332 -0.3,-10.63331 -0.5,-22.5 -0.3333,-17.59995 -0.2667,-26.86661 0.2,-27.8"
         style="font-size:100px;font-variant:normal;font-weight:500;font-stretch:normal;font-family:My_Unprofessional_Handwriting;-inkscape-font-specification:My_Unprofessional_Handwriting Medium"
         id="path3008" />
      <path
         d="m 1071.5368,-267.12017 c 1.5999,-0.66662 2.8999,-1.03329 3.9,-1.1 0.9999,-0.0666 2.2666,0.20005 3.8,0.8 1.3999,0.46671 2.6999,1.50005 3.9,3.1 1.2666,1.60004 1.8999,3.03337 1.9,4.3 -10e-5,2.0667 -1.4334,5.03337 -4.3,8.9 -2.8001,3.86669 -5.6334,6.66669 -8.5,8.4 -0.2001,0.13336 -0.5001,0.33335 -0.9,0.6 -2.7334,1.66669 -4.3001,2.70002 -4.7,3.1 -0.3334,0.40002 -0.2667,1.03335 0.2,1.9 0.067,0.13335 0.1,0.23335 0.1,0.3 0.4666,0.86668 1.4666,1.86668 3,3 1.5999,1.13335 3.5999,2.10001 6,2.9 2.4666,0.73334 4.9999,0.53334 7.6,-0.6 2.8666,-1.19999 4.2999,-0.63332 4.3,1.7 -10e-5,1.26667 -0.9667,2.30001 -2.9,3.1 -1.8667,0.73334 -4.1667,1.06667 -6.9,1 -2.7334,-0.13333 -5.2001,-0.69999 -7.4,-1.7 -4.6667,-1.99999 -8,-5.59999 -10,-10.8 -1.9334,-5.19998 -1.9667,-10.63331 -0.1,-16.3 0.6666,-2.19996 2.1333,-4.59996 4.4,-7.2 2.3333,-2.66662 4.5333,-4.46662 6.6,-5.4 m 6.4,4.7 c -0.8667,-0.66662 -1.5001,-0.99996 -1.9,-1 -0.3334,4e-5 -1.1667,0.33338 -2.5,1 -2.5334,1.40004 -4.6334,3.26671 -6.3,5.6 -1.6001,2.33337 -2.5334,4.83336 -2.8,7.5 -0.2667,2.33336 -0.1334,3.70002 0.4,4.1 0.5999,0.33336 1.8333,-0.0666 3.7,-1.2 2.5333,-1.46664 4.9999,-3.66664 7.4,-6.6 2.3999,-2.9333 3.5999,-5.19996 3.6,-6.8 -10e-5,-1.06663 -0.5334,-1.93329 -1.6,-2.6"
         style="font-size:100px;font-variant:normal;font-weight:500;font-stretch:normal;font-family:My_Unprofessional_Handwriting;-inkscape-font-specification:My_Unprofessional_Handwriting Medium"
         id="path3010" />
      <path
         d="m 1091.1008,-264.92017 c 0.8,-0.46662 1.3333,-0.66662 1.6,-0.6 0.3333,0.0667 0.8333,0.46671 1.5,1.2 0.6667,0.73338 1.1333,3.66671 1.4,8.8 0.2667,5.6667 0.9333,10.53336 2,14.6 1.1333,4.00002 2.3667,6.26668 3.7,6.8 0.7333,0.26668 1.0333,0.90001 0.9,1.9 -0.1333,1.00001 -0.6,1.76668 -1.4,2.3 -0.8,0.46668 -1.8333,0.23334 -3.1,-0.7 -1.6667,-1.26666 -2.9667,-3.13332 -3.9,-5.6 -0.9333,-2.53332 -1.8,-6.43331 -2.6,-11.7 -0.8667,-6.1333 -1.3,-10.36663 -1.3,-12.7 0,-2.33329 0.4,-3.76662 1.2,-4.3 m 2.2,-10.1 c -0.9333,5e-5 -1.6,-0.36661 -2,-1.1 -0.3333,-0.79994 -0.3,-1.56661 0.1,-2.3 0.4667,-0.73327 1.1667,-1.03327 2.1,-0.9 0.6,0.0667 1,0.26672 1.2,0.6 0.2,0.26672 0.3,0.83339 0.3,1.7 0,0.86672 -0.1,1.43339 -0.3,1.7 -0.2,0.20005 -0.6667,0.30005 -1.4,0.3"
         style="font-size:100px;font-variant:normal;font-weight:500;font-stretch:normal;font-family:My_Unprofessional_Handwriting;-inkscape-font-specification:My_Unprofessional_Handwriting Medium"
         id="path3012" />
      <path
         d="m 1123.6586,-278.62017 c 1.2,-1.19994 2.1333,-1.06661 2.8,0.4 1.0667,2.33339 3,12.33338 5.8,30 1.1333,7.13335 2.1667,12.56668 3.1,16.3 l 1.8,7.1 c 0.2667,1.06667 -0.1,1.86667 -1.1,2.4 -1,0.46667 -1.9667,0.3 -2.9,-0.5 -0.8667,-0.8 -1.3,-1.5 -1.3,-2.1 0,-0.53333 -0.5,-2.33333 -1.5,-5.4 -1,-3.06665 -1.6,-4.59999 -1.8,-4.6 -0.1333,1e-5 -1.0667,0.90001 -2.8,2.7 -2.2667,2.40001 -4.9667,3.73334 -8.1,4 -3.0666,0.26667 -5.9666,-0.59999 -8.7,-2.6 -1.9333,-1.46666 -3.2666,-3.06665 -4,-4.8 -0.6666,-1.79998 -0.9333,-4.36665 -0.8,-7.7 0.1334,-2.19998 0.3334,-3.79997 0.6,-4.8 0.2667,-0.99997 0.7667,-2.0333 1.5,-3.1 1.8,-2.5333 3.7667,-4.2333 5.9,-5.1 2.1334,-0.86663 3.9334,-1.09996 5.4,-0.7 1.4667,0.40004 2.9667,0.93337 4.5,1.6 1.6,0.6667 2.6,1.00003 3,1 0.2667,-0.1333 0.4,-0.76663 0.4,-1.9 0,-1.1333 -0.1333,-2.66663 -0.4,-4.6 -0.2667,-1.93329 -0.6333,-3.79996 -1.1,-5.6 -0.6667,-2.46662 -1.0333,-4.93328 -1.1,-7.4 -0.067,-2.53328 0.2,-4.06661 0.8,-4.6 m 0.8,29.6 c -0.8667,-0.46664 -2.1,-0.96664 -3.7,-1.5 -1.5333,-0.59997 -2.8667,-1.06664 -4,-1.4 -1.1333,-0.3333 -1.7666,-0.49997 -1.9,-0.5 -0.067,3e-5 -0.8666,0.63336 -2.4,1.9 -1.2666,1.13336 -2.2,2.70003 -2.8,4.7 -0.6,1.93336 -0.7,3.96669 -0.3,6.1 0.2667,1.73335 1.1667,3.23335 2.7,4.5 1.6,1.26668 3.2667,1.86668 5,1.8 2.0667,-0.0666 4.0667,-1.33332 6,-3.8 1.9333,-2.53331 3.0667,-5.26664 3.4,-8.2 0.067,-0.99997 -0.033,-1.69997 -0.3,-2.1 -0.2,-0.46664 -0.7667,-0.96664 -1.7,-1.5"
         style="font-size:100px;font-variant:normal;font-weight:500;font-stretch:normal;font-family:My_Unprofessional_Handwriting;-inkscape-font-specification:My_Unprofessional_Handwriting Medium"
         id="path3014" />
      <path
         d="m 1151.6149,-267.12017 c 1.6,-0.66662 2.9,-1.03329 3.9,-1.1 1,-0.0666 2.2666,0.20005 3.8,0.8 1.4,0.46671 2.7,1.50005 3.9,3.1 1.2666,1.60004 1.9,3.03337 1.9,4.3 0,2.0667 -1.4334,5.03337 -4.3,8.9 -2.8,3.86669 -5.6334,6.66669 -8.5,8.4 -0.2,0.13336 -0.5,0.33335 -0.9,0.6 -2.7334,1.66669 -4.3,2.70002 -4.7,3.1 -0.3334,0.40002 -0.2667,1.03335 0.2,1.9 0.067,0.13335 0.1,0.23335 0.1,0.3 0.4666,0.86668 1.4666,1.86668 3,3 1.6,1.13335 3.6,2.10001 6,2.9 2.4666,0.73334 5,0.53334 7.6,-0.6 2.8666,-1.19999 4.3,-0.63332 4.3,1.7 0,1.26667 -0.9667,2.30001 -2.9,3.1 -1.8667,0.73334 -4.1667,1.06667 -6.9,1 -2.7334,-0.13333 -5.2,-0.69999 -7.4,-1.7 -4.6667,-1.99999 -8,-5.59999 -10,-10.8 -1.9334,-5.19998 -1.9667,-10.63331 -0.1,-16.3 0.6666,-2.19996 2.1333,-4.59996 4.4,-7.2 2.3333,-2.66662 4.5333,-4.46662 6.6,-5.4 m 6.4,4.7 c -0.8667,-0.66662 -1.5,-0.99996 -1.9,-1 -0.3334,4e-5 -1.1667,0.33338 -2.5,1 -2.5334,1.40004 -4.6334,3.26671 -6.3,5.6 -1.6,2.33337 -2.5334,4.83336 -2.8,7.5 -0.2667,2.33336 -0.1334,3.70002 0.4,4.1 0.6,0.33336 1.8333,-0.0666 3.7,-1.2 2.5333,-1.46664 5,-3.66664 7.4,-6.6 2.4,-2.9333 3.6,-5.19996 3.6,-6.8 0,-1.06663 -0.5334,-1.93329 -1.6,-2.6"
         style="font-size:100px;font-variant:normal;font-weight:500;font-stretch:normal;font-family:My_Unprofessional_Handwriting;-inkscape-font-specification:My_Unprofessional_Handwriting Medium"
         id="path3016" />
      <path
         d="m 1182.4789,-266.82017 c 2.2667,-0.79995 4.4334,-0.89995 6.5,-0.3 2.0667,0.60005 4.8667,2.13338 8.4,4.6 0.8,0.60004 1.3333,1.86671 1.6,3.8 0.3333,1.93337 0.7,6.43336 1.1,13.5 0,0.13336 0.033,0.40002 0.1,0.8 0.1333,1.13336 0.1667,2.60002 0.1,4.4 -0.067,1.73335 -0.2,3.50002 -0.4,5.3 -0.2,1.73335 -0.7667,3.56668 -1.7,5.5 -0.9333,1.93334 -2.1333,3.63334 -3.6,5.1 -1.8,1.73333 -3.4,2.86667 -4.8,3.4 -1.4,0.6 -3.3333,0.9 -5.8,0.9 -2.5333,0 -4.6,-0.36667 -6.2,-1.1 -1.6,-0.66667 -3.3,-2 -5.1,-4 -3,-3.26666 -3.4666,-5.56666 -1.4,-6.9 0.5334,-0.26666 1.1,-0.19999 1.7,0.2 0.6667,0.40001 1.8,1.40001 3.4,3 1.8667,1.93334 3.1334,3.1 3.8,3.5 0.7334,0.33334 1.9667,0.5 3.7,0.5 1.8,-0.0667 3.3334,-0.46666 4.6,-1.2 1.2667,-0.73333 2.7334,-2.09999 4.4,-4.1 0.6,-0.73332 1.2,-2.76665 1.8,-6.1 0.6667,-3.39998 0.8333,-5.39998 0.5,-6 -0.3333,-0.46664 -1.1666,-0.16665 -2.5,0.9 -1.6,1.13335 -3.6,1.66669 -6,1.6 -2.3333,-0.0666 -4.4666,-0.73331 -6.4,-2 -2.0666,-1.39998 -3.7666,-3.19998 -5.1,-5.4 -1.2666,-2.19997 -1.9,-4.4333 -1.9,-6.7 0,-2.39996 0.2,-4.16663 0.6,-5.3 0.4667,-1.26663 1.6667,-2.76663 3.6,-4.5 1.9334,-1.79996 3.6,-2.93329 5,-3.4 m 8.6,6.2 c -1.6666,-1.19996 -3.5,-1.66663 -5.5,-1.4 -2,0.26671 -3.7666,1.23337 -5.3,2.9 -0.7333,0.73337 -1.2,1.4667 -1.4,2.2 -0.2,0.73337 -0.3,1.80003 -0.3,3.2 0,1.6667 0.1334,2.83336 0.4,3.5 0.3334,0.60003 1.1334,1.53336 2.4,2.8 1.9334,1.73336 3.7,2.60002 5.3,2.6 2.2667,2e-5 4.0667,-0.93331 5.4,-2.8 1.3334,-1.86664 2,-4.39997 2,-7.6 0,-1.39996 -0.1666,-2.36663 -0.5,-2.9 -0.3333,-0.59996 -1.1666,-1.43329 -2.5,-2.5"
         style="font-size:100px;font-variant:normal;font-weight:500;font-stretch:normal;font-family:My_Unprofessional_Handwriting;-inkscape-font-specification:My_Unprofessional_Handwriting Medium"
         id="path3018" />
      <path
         d="m 1214.7055,-266.82017 c 2.2667,-0.79995 4.4333,-0.89995 6.5,-0.3 2.0666,0.60005 4.8666,2.13338 8.4,4.6 0.8,0.60004 1.3333,1.86671 1.6,3.8 0.3333,1.93337 0.7,6.43336 1.1,13.5 0,0.13336 0.033,0.40002 0.1,0.8 0.1333,1.13336 0.1666,2.60002 0.1,4.4 -0.067,1.73335 -0.2,3.50002 -0.4,5.3 -0.2,1.73335 -0.7667,3.56668 -1.7,5.5 -0.9334,1.93334 -2.1334,3.63334 -3.6,5.1 -1.8,1.73333 -3.4,2.86667 -4.8,3.4 -1.4,0.6 -3.3333,0.9 -5.8,0.9 -2.5333,0 -4.6,-0.36667 -6.2,-1.1 -1.6,-0.66667 -3.3,-2 -5.1,-4 -3,-3.26666 -3.4667,-5.56666 -1.4,-6.9 0.5333,-0.26666 1.1,-0.19999 1.7,0.2 0.6667,0.40001 1.8,1.40001 3.4,3 1.8667,1.93334 3.1333,3.1 3.8,3.5 0.7333,0.33334 1.9667,0.5 3.7,0.5 1.8,-0.0667 3.3333,-0.46666 4.6,-1.2 1.2667,-0.73333 2.7333,-2.09999 4.4,-4.1 0.6,-0.73332 1.2,-2.76665 1.8,-6.1 0.6666,-3.39998 0.8333,-5.39998 0.5,-6 -0.3334,-0.46664 -1.1667,-0.16665 -2.5,0.9 -1.6,1.13335 -3.6,1.66669 -6,1.6 -2.3333,-0.0666 -4.4667,-0.73331 -6.4,-2 -2.0667,-1.39998 -3.7667,-3.19998 -5.1,-5.4 -1.2667,-2.19997 -1.9,-4.4333 -1.9,-6.7 0,-2.39996 0.2,-4.16663 0.6,-5.3 0.4667,-1.26663 1.6667,-2.76663 3.6,-4.5 1.9333,-1.79996 3.6,-2.93329 5,-3.4 m 8.6,6.2 c -1.6667,-1.19996 -3.5,-1.66663 -5.5,-1.4 -2,0.26671 -3.7667,1.23337 -5.3,2.9 -0.7333,0.73337 -1.2,1.4667 -1.4,2.2 -0.2,0.73337 -0.3,1.80003 -0.3,3.2 0,1.6667 0.1333,2.83336 0.4,3.5 0.3333,0.60003 1.1333,1.53336 2.4,2.8 1.9333,1.73336 3.7,2.60002 5.3,2.6 2.2667,2e-5 4.0667,-0.93331 5.4,-2.8 1.3333,-1.86664 2,-4.39997 2,-7.6 0,-1.39996 -0.1667,-2.36663 -0.5,-2.9 -0.3334,-0.59996 -1.1667,-1.43329 -2.5,-2.5"
         style="font-size:100px;font-variant:normal;font-weight:500;font-stretch:normal;font-family:My_Unprofessional_Handwriting;-inkscape-font-specification:My_Unprofessional_Handwriting Medium"
         id="path3020" />
      <path
         d="m 1246.7321,-267.12017 c 1.6,-0.66662 2.9,-1.03329 3.9,-1.1 0.9999,-0.0666 2.2666,0.20005 3.8,0.8 1.3999,0.46671 2.6999,1.50005 3.9,3.1 1.2666,1.60004 1.8999,3.03337 1.9,4.3 -10e-5,2.0667 -1.4334,5.03337 -4.3,8.9 -2.8001,3.86669 -5.6334,6.66669 -8.5,8.4 -0.2,0.13336 -0.5,0.33335 -0.9,0.6 -2.7334,1.66669 -4.3,2.70002 -4.7,3.1 -0.3334,0.40002 -0.2667,1.03335 0.2,1.9 0.067,0.13335 0.1,0.23335 0.1,0.3 0.4666,0.86668 1.4666,1.86668 3,3 1.6,1.13335 3.6,2.10001 6,2.9 2.4666,0.73334 4.9999,0.53334 7.6,-0.6 2.8666,-1.19999 4.2999,-0.63332 4.3,1.7 -10e-5,1.26667 -0.9667,2.30001 -2.9,3.1 -1.8667,0.73334 -4.1667,1.06667 -6.9,1 -2.7334,-0.13333 -5.2,-0.69999 -7.4,-1.7 -4.6667,-1.99999 -8,-5.59999 -10,-10.8 -1.9334,-5.19998 -1.9667,-10.63331 -0.1,-16.3 0.6666,-2.19996 2.1333,-4.59996 4.4,-7.2 2.3333,-2.66662 4.5333,-4.46662 6.6,-5.4 m 6.4,4.7 c -0.8667,-0.66662 -1.5001,-0.99996 -1.9,-1 -0.3334,4e-5 -1.1667,0.33338 -2.5,1 -2.5334,1.40004 -4.6334,3.26671 -6.3,5.6 -1.6,2.33337 -2.5334,4.83336 -2.8,7.5 -0.2667,2.33336 -0.1334,3.70002 0.4,4.1 0.6,0.33336 1.8333,-0.0666 3.7,-1.2 2.5333,-1.46664 5,-3.66664 7.4,-6.6 2.3999,-2.9333 3.5999,-5.19996 3.6,-6.8 -10e-5,-1.06663 -0.5334,-1.93329 -1.6,-2.6"
         style="font-size:100px;font-variant:normal;font-weight:500;font-stretch:normal;font-family:My_Unprofessional_Handwriting;-inkscape-font-specification:My_Unprofessional_Handwriting Medium"
         id="path3022" />
      <path
         d="m 1272.6961,-253.42017 c 2.9334,-4.86663 6.6333,-7.53329 11.1,-8 3,-0.33329 5.0667,0.36671 6.2,2.1 0.4,0.6667 0.5333,1.40004 0.4,2.2 -0.1333,0.8667 -0.5333,1.3667 -1.2,1.5 -0.6667,0.0667 -1.4667,3e-5 -2.4,-0.2 -0.8667,-0.26663 -2,-0.26663 -3.4,0 -1.3333,0.2667 -2.5667,0.9667 -3.7,2.1 -1.7333,1.6667 -2.9333,3.5667 -3.6,5.7 -0.6666,2.13336 -0.8333,4.80002 -0.5,8 0.6,7.13335 0.6667,11.10001 0.2,11.9 -0.2,0.33334 -0.5666,0.53334 -1.1,0.6 -0.8666,0.13334 -1.5,0.10001 -1.9,-0.1 -0.4,-0.19999 -0.7333,-0.66666 -1,-1.4 -0.2,-0.73332 -0.3666,-1.53332 -0.5,-2.4 -0.1333,-0.86666 -0.4,-2.16665 -0.8,-3.9 -0.4,-1.73332 -0.9,-3.46665 -1.5,-5.2 -1.4666,-3.93331 -2.7333,-9.06664 -3.8,-15.4 -0.2666,-1.66663 0.067,-2.9333 1,-3.8 0.6667,-0.59996 1.1334,-0.89996 1.4,-0.9 0.2667,4e-5 0.7,0.26671 1.3,0.8 0.6667,0.60004 1.3,2.40004 1.9,5.4 0.3334,1.33337 0.6334,2.00003 0.9,2 0.2667,3e-5 0.6,-0.3333 1,-1"
         style="font-size:100px;font-variant:normal;font-weight:500;font-stretch:normal;font-family:My_Unprofessional_Handwriting;-inkscape-font-specification:My_Unprofessional_Handwriting Medium"
         id="path3024" />
      <path
         d="m 1292.7399,-231.62017 c -0.4667,-0.79999 -0.4,-1.56665 0.2,-2.3 0.6,-0.73332 1.3,-1.09999 2.1,-1.1 0.8666,1e-5 1.6,0.36668 2.2,1.1 0.6,0.73335 0.6666,1.50001 0.2,2.3 -0.4667,0.73334 -1.2667,1.10001 -2.4,1.1 -1.0667,1e-5 -1.8334,-0.36666 -2.3,-1.1"
         style="font-size:100px;font-variant:normal;font-weight:500;font-stretch:normal;font-family:My_Unprofessional_Handwriting;-inkscape-font-specification:My_Unprofessional_Handwriting Medium"
         id="path3026" />
      <path
         d="m 1371.6586,-287.72017 c 0.5333,-0.53327 0.9,-0.79993 1.1,-0.8 0.2,7e-5 0.7,0.20007 1.5,0.6 0.5333,0.3334 0.9,1.30007 1.1,2.9 0.2,1.5334 0.4,5.26673 0.6,11.2 0.2,6.53338 0.2,11.33338 0,14.4 -0.1333,3.0667 -0.7667,8.33336 -1.9,15.8 -0.7333,5.26668 -1.9,7.86668 -3.5,7.8 -0.3333,2e-5 -0.6667,-0.13332 -1,-0.4 -0.8,-0.53332 -1.1333,-2.09998 -1,-4.7 0.1333,-2.59998 0.5,-5.29997 1.1,-8.1 0.6,-2.86664 0.9667,-5.5333 1.1,-8 0.1333,-2.53329 -0.2667,-3.93329 -1.2,-4.2 -0.8,-0.26663 -3.5,-1.96662 -8.1,-5.1 l -13.4,-8.6 c -2.6,-1.59994 -4.3333,-2.76661 -5.2,-3.5 -0.8,-0.73327 -1.2,-1.46661 -1.2,-2.2 0,-1.93327 0.9667,-2.59994 2.9,-2 1.1334,0.40006 2.8667,1.30006 5.2,2.7 2.0667,1.20006 4.9333,3.03339 8.6,5.5 3.6667,2.40005 6.1667,4.10005 7.5,5.1 2.2667,1.73338 3.6333,2.43338 4.1,2.1 0.6,-0.33329 0.9,-3.13328 0.9,-8.4 0,-0.33328 0,-0.76661 0,-1.3 0,-6.59994 0.2667,-10.19993 0.8,-10.8"
         style="font-size:100px;font-variant:normal;font-weight:500;font-stretch:normal;font-family:My_Unprofessional_Handwriting;-inkscape-font-specification:My_Unprofessional_Handwriting Medium"
         id="path3028" />
      <path
         d="m 1390.4821,-267.12017 c 1.6,-0.66662 2.9,-1.03329 3.9,-1.1 0.9999,-0.0666 2.2666,0.20005 3.8,0.8 1.3999,0.46671 2.6999,1.50005 3.9,3.1 1.2666,1.60004 1.8999,3.03337 1.9,4.3 -10e-5,2.0667 -1.4334,5.03337 -4.3,8.9 -2.8001,3.86669 -5.6334,6.66669 -8.5,8.4 -0.2,0.13336 -0.5,0.33335 -0.9,0.6 -2.7334,1.66669 -4.3,2.70002 -4.7,3.1 -0.3334,0.40002 -0.2667,1.03335 0.2,1.9 0.067,0.13335 0.1,0.23335 0.1,0.3 0.4666,0.86668 1.4666,1.86668 3,3 1.6,1.13335 3.6,2.10001 6,2.9 2.4666,0.73334 4.9999,0.53334 7.6,-0.6 2.8666,-1.19999 4.2999,-0.63332 4.3,1.7 -10e-5,1.26667 -0.9667,2.30001 -2.9,3.1 -1.8667,0.73334 -4.1667,1.06667 -6.9,1 -2.7334,-0.13333 -5.2,-0.69999 -7.4,-1.7 -4.6667,-1.99999 -8,-5.59999 -10,-10.8 -1.9334,-5.19998 -1.9667,-10.63331 -0.1,-16.3 0.6666,-2.19996 2.1333,-4.59996 4.4,-7.2 2.3333,-2.66662 4.5333,-4.46662 6.6,-5.4 m 6.4,4.7 c -0.8667,-0.66662 -1.5001,-0.99996 -1.9,-1 -0.3334,4e-5 -1.1667,0.33338 -2.5,1 -2.5334,1.40004 -4.6334,3.26671 -6.3,5.6 -1.6,2.33337 -2.5334,4.83336 -2.8,7.5 -0.2667,2.33336 -0.1334,3.70002 0.4,4.1 0.6,0.33336 1.8333,-0.0666 3.7,-1.2 2.5333,-1.46664 5,-3.66664 7.4,-6.6 2.3999,-2.9333 3.5999,-5.19996 3.6,-6.8 -10e-5,-1.06663 -0.5334,-1.93329 -1.6,-2.6"
         style="font-size:100px;font-variant:normal;font-weight:500;font-stretch:normal;font-family:My_Unprofessional_Handwriting;-inkscape-font-specification:My_Unprofessional_Handwriting Medium"
         id="path3030" />
      <path
         d="m 1418.6461,-257.02017 c 1.7334,-1.26663 3.0333,-2.06663 3.9,-2.4 0.9333,-0.39996 2.0667,-0.59996 3.4,-0.6 1.8,4e-5 3.5333,0.43337 5.2,1.3 1.6667,0.80004 2.5,1.6667 2.5,2.6 0,0.53337 0.3667,1.70003 1.1,3.5 0.7333,1.73336 1.2667,3.30003 1.6,4.7 0.7333,3.06669 2.5,7.83335 5.3,14.3 0.3333,0.86668 -0.067,1.70001 -1.2,2.5 -1.5333,1.00001 -2.7667,0.73334 -3.7,-0.8 -0.2667,-0.46666 -0.4667,-1.03332 -0.6,-1.7 -0.4667,-1.99999 -1.1,-2.99998 -1.9,-3 -0.7333,2e-5 -2.0333,1.00001 -3.9,3 -1.5333,1.66668 -2.6667,2.70001 -3.4,3.1 -0.6667,0.40001 -1.8,0.70001 -3.4,0.9 -3.7333,0.33334 -7,-0.36666 -9.8,-2.1 -2.7333,-1.73332 -4.3,-4.06665 -4.7,-7 -0.5333,-3.19998 0.033,-6.36664 1.7,-9.5 1.6667,-3.1333 4.3,-6.06663 7.9,-8.8 m 10.5,5.6 c -1,-2.19997 -1.9333,-3.39997 -2.8,-3.6 -0.8667,-0.19997 -2.2667,0.40003 -4.2,1.8 -2.8666,2.13336 -4.9,4.13336 -6.1,6 -1.2,1.86669 -1.8,3.96669 -1.8,6.3 0,2.20002 0.7667,3.80002 2.3,4.8 1.6,1.00001 3.8334,1.36668 6.7,1.1 1.1333,-0.13332 2,-0.46665 2.6,-1 0.6667,-0.53332 1.6333,-1.76665 2.9,-3.7 1.3333,-1.99998 2.0333,-3.83331 2.1,-5.5 0.067,-1.66664 -0.5,-3.73331 -1.7,-6.2"
         style="font-size:100px;font-variant:normal;font-weight:500;font-stretch:normal;font-family:My_Unprofessional_Handwriting;-inkscape-font-specification:My_Unprofessional_Handwriting Medium"
         id="path3032" />
      <path
         d="m 1444.0071,-280.72017 c 0.4666,-0.53327 1,-0.79994 1.6,-0.8 0.6666,6e-5 1.2,0.26673 1.6,0.8 1.1333,1.40006 2,8.30005 2.6,20.7 0.3333,6.80003 0.7,10.33336 1.1,10.6 0.2666,0.20003 0.8,-0.0333 1.6,-0.7 3.5333,-3.19997 6.9333,-4.36663 10.2,-3.5 3.3333,0.8667 5.7999,3.5667 7.4,8.1 0.5333,1.60002 0.8666,5.03335 1,10.3 0.1333,3.33334 0.1333,5.53334 0,6.6 -0.1334,1.06667 -0.4667,1.86667 -1,2.4 -0.8001,0.8 -1.6001,0.96667 -2.4,0.5 -0.3334,-0.26666 -0.6334,-0.73333 -0.9,-1.4 -0.2001,-0.66666 -0.3667,-1.59999 -0.5,-2.8 -0.067,-1.19999 -0.1334,-2.43332 -0.2,-3.7 -0.067,-1.26665 -0.1667,-2.83332 -0.3,-4.7 -0.067,-1.93331 -0.1667,-3.66665 -0.3,-5.2 -0.067,-0.86664 -0.7334,-1.96664 -2,-3.3 -1.2667,-1.39997 -2.2667,-2.09997 -3,-2.1 -1,3e-5 -2.4,0.90003 -4.2,2.7 -1.8,1.73336 -2.9334,3.33336 -3.4,4.8 -0.4,1.06669 -0.6,2.43335 -0.6,4.1 0,1.60001 0.067,3.10001 0.2,4.5 0.1333,1.40001 0.2,2.73334 0.2,4 0.067,1.26667 -0.1,2.30001 -0.5,3.1 -0.4,0.73334 -1.0667,1.1 -2,1.1 -0.8667,0 -1.5667,-0.33333 -2.1,-1 -0.7334,-0.86666 -1.7667,-10.06665 -3.1,-27.6 -1.2667,-17.59995 -1.6,-26.76661 -1,-27.5"
         style="font-size:100px;font-variant:normal;font-weight:500;font-stretch:normal;font-family:My_Unprofessional_Handwriting;-inkscape-font-specification:My_Unprofessional_Handwriting Medium"
         id="path3034" />
      <path
         d="m 1473.7993,-236.22017 c 0.4666,-0.59998 1.1,-0.89998 1.9,-0.9 0.8666,2e-5 1.5333,0.30002 2,0.9 0.4666,0.60001 0.7999,3.96668 1,10.1 0.067,4.06667 0.033,6.66667 -0.1,7.8 -0.067,1.13333 -0.4001,1.9 -1,2.3 -0.8,0.53333 -1.5667,0.39999 -2.3,-0.4 -0.7334,-0.66667 -1.3334,-3.93333 -1.8,-9.8 -0.4,-5.93332 -0.3,-9.26665 0.3,-10"
         style="font-size:100px;font-variant:normal;font-weight:500;font-stretch:normal;font-family:My_Unprofessional_Handwriting;-inkscape-font-specification:My_Unprofessional_Handwriting Medium"
         id="path3036" />
      <path
         d="m 666.58051,-162.72017 c 0.5333,-0.53327 0.89996,-0.79993 1.1,-0.8 0.19996,7e-5 0.69996,0.20007 1.5,0.6 0.53329,0.3334 0.89996,1.30007 1.1,2.9 0.19996,1.5334 0.39996,5.26673 0.6,11.2 0.19996,6.53338 0.19996,11.33338 0,14.4 -0.13337,3.0667 -0.76671,8.33336 -1.9,15.8 -0.73337,5.26668 -1.90004,7.86668 -3.5,7.8 -0.33337,2e-5 -0.6667,-0.13332 -1,-0.4 -0.80003,-0.53332 -1.13337,-2.09998 -1,-4.7 0.1333,-2.59998 0.49997,-5.29997 1.1,-8.1 0.59997,-2.86664 0.96663,-5.5333 1.1,-8 0.1333,-2.53329 -0.2667,-3.93329 -1.2,-4.2 -0.80003,-0.26663 -3.50003,-1.96662 -8.1,-5.1 l -13.4,-8.6 c -2.60001,-1.59994 -4.33334,-2.76661 -5.2,-3.5 -0.80001,-0.73327 -1.20001,-1.46661 -1.2,-2.2 -10e-6,-1.93327 0.96666,-2.59994 2.9,-2 1.13332,0.40006 2.86666,1.30006 5.2,2.7 2.06665,1.20006 4.93331,3.03339 8.6,5.5 3.66664,2.40005 6.16664,4.10005 7.5,5.1 2.26663,1.73338 3.6333,2.43338 4.1,2.1 0.59997,-0.33329 0.89997,-3.13328 0.9,-8.4 -3e-5,-0.33328 -3e-5,-0.76661 0,-1.3 -3e-5,-6.59994 0.26663,-10.19993 0.8,-10.8"
         style="font-size:100px;font-variant:normal;font-weight:500;font-stretch:normal;font-family:My_Unprofessional_Handwriting;-inkscape-font-specification:My_Unprofessional_Handwriting Medium"
         id="path3038" />
      <path
         d="m 682.80394,-140.72017 c 3.06666,-0.99995 5.63332,-1.29995 7.7,-0.9 2.13332,0.40005 4.33331,1.63338 6.6,3.7 1.26664,1.20004 2.23331,2.50004 2.9,3.9 0.66664,1.33337 1.33331,3.4667 2,6.4 1.59997,7.06669 1.39997,12.93335 -0.6,17.6 -1.93336,4.60001 -5.40002,7.43334 -10.4,8.5 -3.60001,0.73334 -6.76668,0.30001 -9.5,-1.3 -2.73334,-1.66666 -4.86667,-4.43332 -6.4,-8.3 -1.26667,-2.99998 -1.93333,-6.66664 -2,-11 -0.0667,-4.39997 0.43333,-7.6333 1.5,-9.7 0.93333,-1.66663 1.4,-2.79996 1.4,-3.4 0,-0.79996 0.7,-1.76663 2.1,-2.9 1.46666,-1.13329 3.03333,-1.99996 4.7,-2.6 m 9.8,5.4 c -1.26668,-0.86663 -2.86668,-1.23329 -4.8,-1.1 -1.93334,0.13337 -3.53334,0.73337 -4.8,1.8 -1.53334,1.2667 -2.63334,2.60004 -3.3,4 -0.6,1.40003 -1.03334,3.43336 -1.3,6.1 -0.26667,2.73336 -0.2,5.23336 0.2,7.5 0.46666,2.26669 1.1,4.06668 1.9,5.4 0.86666,1.33335 1.79999,2.46668 2.8,3.4 1.06666,0.86668 1.96666,1.46668 2.7,1.8 0.73332,0.33334 1.26665,0.50001 1.6,0.5 1.53332,1e-5 3.03332,-0.43332 4.5,-1.3 1.53331,-0.86665 2.79998,-2.03332 3.8,-3.5 0.86664,-1.33332 1.36664,-2.46665 1.5,-3.4 0.13331,-0.93331 0.13331,-3.19998 0,-6.8 -0.13336,-4.06664 -0.60002,-7.19997 -1.4,-9.4 -0.73335,-2.19996 -1.86669,-3.86663 -3.4,-5"
         style="font-size:100px;font-variant:normal;font-weight:500;font-stretch:normal;font-family:My_Unprofessional_Handwriting;-inkscape-font-specification:My_Unprofessional_Handwriting Medium"
         id="path3040" />
      <path
         d="m 705.93988,-136.82017 c 0.66666,-0.99996 1.2,-1.53329 1.6,-1.6 0.46666,-0.0666 1.1,0.33338 1.9,1.2 0.46666,0.53337 0.73333,1.16671 0.8,1.9 0.13333,0.66671 0.1,1.83337 -0.1,3.5 -0.33334,2.8667 -0.13334,5.7667 0.6,8.7 0.79999,2.93336 1.89999,5.03336 3.3,6.3 1.33332,1.20002 2.93332,2.06669 4.8,2.6 1.73332,0.46668 3.13332,0.43335 4.2,-0.1 1.06665,-0.53331 2.09998,-1.73331 3.1,-3.6 0.73331,-1.33331 1.03331,-2.53331 0.9,-3.6 -0.0667,-1.13331 -0.80002,-4.3333 -2.2,-9.6 -0.46669,-1.9333 -0.70002,-3.16663 -0.7,-3.7 -2e-5,-0.59996 0.26665,-1.19996 0.8,-1.8 1.99998,-2.19996 3.76664,-0.93329 5.3,3.8 0.79997,2.4667 1.63331,6.0667 2.5,10.8 0.3333,1.73336 0.7333,3.50002 1.2,5.3 0.5333,1.80002 0.96664,3.23335 1.3,4.3 0.39997,1.06668 0.7333,2.10001 1,3.1 0.3333,0.93335 0.46663,1.73335 0.4,2.4 -3e-5,0.60001 -0.20003,1.10001 -0.6,1.5 -0.73336,0.73334 -1.43336,0.96668 -2.1,0.7 -0.53336,-0.19999 -1.23336,-0.99999 -2.1,-2.4 -0.80003,-1.46665 -1.20003,-2.59999 -1.2,-3.4 -3e-5,-1.66665 -1.30003,-1.59998 -3.9,0.2 -1.20002,0.80001 -2.16669,1.30001 -2.9,1.5 -0.73335,0.13335 -1.96668,0.10001 -3.7,-0.1 -2.86668,-0.19999 -5.46668,-1.13332 -7.8,-2.8 -2.33334,-1.73332 -4.16667,-3.96665 -5.5,-6.7 -1,-2.13331 -1.63333,-5.39997 -1.9,-9.8 -0.2,-4.39996 0.13333,-7.26663 1,-8.6"
         style="font-size:100px;font-variant:normal;font-weight:500;font-stretch:normal;font-family:My_Unprofessional_Handwriting;-inkscape-font-specification:My_Unprofessional_Handwriting Medium"
         id="path3042" />
      <path
         d="m 808.62113,-105.92017 c -1.46669,1e-5 -2.90003,-0.86666 -4.3,-2.6 -1.33336,-1.73332 -2.46669,-3.46665 -3.4,-5.2 -0.93335,-1.73331 -1.56669,-2.59998 -1.9,-2.6 -0.20002,2e-5 -0.40002,0.53335 -0.6,1.6 -0.13335,1.00002 -0.40002,2.20002 -0.8,3.6 -0.33335,1.40001 -0.90002,2.46668 -1.7,3.2 -0.73335,0.73334 -1.30001,1.13334 -1.7,1.2 -0.33335,0.0667 -0.93335,-0.13332 -1.8,-0.6 -3.93334,-2.06665 -7.13334,-8.29998 -9.6,-18.7 l -1.8,-7.2 c -0.8,-3.06663 -0.1,-4.59996 2.1,-4.6 0.86666,4e-5 1.53333,0.40004 2,1.2 0.53333,0.80004 1.09999,2.46671 1.7,5 2.79999,12.00002 4.83332,17.40002 6.1,16.2 0.39999,-0.39998 0.89999,-3.03331 1.5,-7.9 0.39999,-3.66664 0.79998,-6.06663 1.2,-7.2 0.39998,-1.19996 0.99998,-1.79996 1.8,-1.8 0.66665,4e-5 1.46665,0.7667 2.4,2.3 0.93331,1.53337 1.63331,3.20003 2.1,5 0.46664,1.66669 1.43331,4.13336 2.9,7.4 1.46664,3.20002 2.46664,4.80002 3,4.8 0.9333,2e-5 1.6333,-4.23331 2.1,-12.7 0.3333,-4.59997 0.0666,-8.2333 -0.8,-10.9 -0.80003,-2.73329 -1.06669,-4.46662 -0.8,-5.2 0.3333,-0.73329 1.09997,-1.09995 2.3,-1.1 1.3333,5e-5 2.3333,1.00005 3,3 0.66663,2.00004 1.09997,5.40004 1.3,10.2 0.19996,4.4667 -3e-5,8.86669 -0.6,13.2 -0.60003,4.26668 -1.3667,7.13335 -2.3,8.6 -0.80003,1.20001 -1.93336,1.80001 -3.4,1.8"
         style="font-size:100px;font-variant:normal;font-weight:500;font-stretch:normal;font-family:My_Unprofessional_Handwriting;-inkscape-font-specification:My_Unprofessional_Handwriting Medium"
         id="path3044" />
      <path
         d="m 818.24926,-139.92017 c 0.79999,-0.46662 1.33333,-0.66662 1.6,-0.6 0.33332,0.0667 0.83332,0.46671 1.5,1.2 0.66666,0.73338 1.13332,3.66671 1.4,8.8 0.26666,5.6667 0.93332,10.53336 2,14.6 1.13332,4.00002 2.36665,6.26668 3.7,6.8 0.73332,0.26668 1.03332,0.90001 0.9,1.9 -0.13335,1.00001 -0.60002,1.76668 -1.4,2.3 -0.80002,0.46668 -1.83335,0.23334 -3.1,-0.7 -1.66668,-1.26666 -2.96668,-3.13332 -3.9,-5.6 -0.93334,-2.53332 -1.80001,-6.43331 -2.6,-11.7 -0.86667,-6.1333 -1.30001,-10.36663 -1.3,-12.7 -10e-6,-2.33329 0.39999,-3.76662 1.2,-4.3 m 2.2,-10.1 c -0.93334,5e-5 -1.60001,-0.36661 -2,-1.1 -0.33334,-0.79994 -0.30001,-1.56661 0.1,-2.3 0.46666,-0.73327 1.16666,-1.03327 2.1,-0.9 0.59999,0.0667 0.99999,0.26672 1.2,0.6 0.19999,0.26672 0.29999,0.83339 0.3,1.7 -10e-6,0.86672 -0.10001,1.43339 -0.3,1.7 -0.20001,0.20005 -0.66668,0.30005 -1.4,0.3"
         style="font-size:100px;font-variant:normal;font-weight:500;font-stretch:normal;font-family:My_Unprofessional_Handwriting;-inkscape-font-specification:My_Unprofessional_Handwriting Medium"
         id="path3046" />
      <path
         d="m 848.10707,-140.02017 c 1.53331,-1.06662 2.89998,-1.63329 4.1,-1.7 1.19997,-0.0666 2.06664,0.36671 2.6,1.3 0.39997,0.66671 0.43331,1.23338 0.1,1.7 -0.33336,0.40004 -1.93336,1.70004 -4.8,3.9 -1.73335,1.33337 -2.50002,2.63337 -2.3,3.9 0.19998,1.2667 1.49998,3.30003 3.9,6.1 3.26664,3.80003 5.2333,6.83336 5.9,9.1 0.7333,2.26668 0.4333,4.50002 -0.9,6.7 -2.60003,4.13334 -6.00002,6.20001 -10.2,6.2 -1.93335,1e-5 -3.56668,-0.26666 -4.9,-0.8 -1.33335,-0.53332 -3.43334,-1.69999 -6.3,-3.5 -2.06667,-1.39999 -3.33334,-2.49999 -3.8,-3.3 -0.4,-0.86665 -0.13334,-1.73332 0.8,-2.6 0.66666,-0.66665 1.23333,-0.93332 1.7,-0.8 0.53333,0.13335 1.86666,0.93335 4,2.4 5.66665,3.80001 9.83331,4.43334 12.5,1.9 2.59998,-2.39998 2.49998,-5.29998 -0.3,-8.7 -3.66669,-4.53331 -5.83335,-7.3333 -6.5,-8.4 -0.60001,-1.1333 -0.90001,-2.5333 -0.9,-4.2 -10e-6,-3.53329 1.76665,-6.59996 5.3,-9.2"
         style="font-size:100px;font-variant:normal;font-weight:500;font-stretch:normal;font-family:My_Unprofessional_Handwriting;-inkscape-font-specification:My_Unprofessional_Handwriting Medium"
         id="path3048" />
      <path
         d="m 860.21801,-155.72017 c 0.46666,-0.53327 0.99999,-0.79994 1.6,-0.8 0.66666,6e-5 1.19999,0.26673 1.6,0.8 1.13332,1.40006 1.99999,8.30005 2.6,20.7 0.33332,6.80003 0.69999,10.33336 1.1,10.6 0.26665,0.20003 0.79999,-0.0333 1.6,-0.7 3.53332,-3.19997 6.93331,-4.36663 10.2,-3.5 3.33331,0.8667 5.79997,3.5667 7.4,8.1 0.5333,1.60002 0.86663,5.03335 1,10.3 0.1333,3.33334 0.1333,5.53334 0,6.6 -0.13337,1.06667 -0.4667,1.86667 -1,2.4 -0.80003,0.8 -1.60003,0.96667 -2.4,0.5 -0.33336,-0.26666 -0.63336,-0.73333 -0.9,-1.4 -0.20003,-0.66666 -0.36669,-1.59999 -0.5,-2.8 -0.0667,-1.19999 -0.13336,-2.43332 -0.2,-3.7 -0.0667,-1.26665 -0.16669,-2.83332 -0.3,-4.7 -0.0667,-1.93331 -0.16669,-3.66665 -0.3,-5.2 -0.0667,-0.86664 -0.73336,-1.96664 -2,-3.3 -1.26669,-1.39997 -2.26669,-2.09997 -3,-2.1 -1.00002,3e-5 -2.40002,0.90003 -4.2,2.7 -1.80002,1.73336 -2.93335,3.33336 -3.4,4.8 -0.40001,1.06669 -0.60001,2.43335 -0.6,4.1 -10e-6,1.60001 0.0666,3.10001 0.2,4.5 0.13332,1.40001 0.19999,2.73334 0.2,4 0.0666,1.26667 -0.10001,2.30001 -0.5,3.1 -0.40001,0.733338 -1.06668,1.100004 -2,1.100001 -0.86668,3e-6 -1.56668,-0.33333 -2.1,-1.000001 -0.73334,-0.86666 -1.76667,-10.06665 -3.1,-27.6 -1.26667,-17.59995 -1.60001,-26.76661 -1,-27.5"
         style="font-size:100px;font-variant:normal;font-weight:500;font-stretch:normal;font-family:My_Unprofessional_Handwriting;-inkscape-font-specification:My_Unprofessional_Handwriting Medium"
         id="path3050" />
      <path
         d="m 938.30238,-131.32017 c 1.86666,-2.19996 3.29999,-1.19996 4.3,3 0.19999,0.6667 0.33332,1.40003 0.4,2.2 0.73332,4.26669 1.89999,7.50002 3.5,9.7 1.59998,2.13335 3.83331,3.43335 6.7,3.9 1.86664,0.33335 3.29997,0.0667 4.3,-0.8 l 1.5,-1.2 -1.3,-6.9 c -0.93336,-4.59997 -1.13336,-7.2333 -0.6,-7.9 1.93331,-2.3333 3.69997,-0.56663 5.3,5.3 0.79997,2.93336 1.56663,7.00002 2.3,12.2 0.7333,5.46668 0.26663,9.80001 -1.4,13.000001 -1.60003,3.133332 -4.56669,5.33333 -8.9,6.6 -1.60002,0.466662 -2.90002,0.699995 -3.9,0.7 -1.00002,0.06666 -2.50002,-0.100005 -4.5,-0.5 -9.80001,-1.733336 -14.63333,-3.733334 -14.5,-6 0,-0.266665 0.0667,-0.499998 0.2,-0.7 1.06666,-1.800001 3.43333,-1.866661 7.1,-0.2 1.99999,0.866668 4.79999,1.466667 8.4,1.8 3.59998,0.333333 6.09998,0.2 7.5,-0.4 1.26664,-0.466665 2.39997,-1.466664 3.4,-3.000001 1.06664,-1.59999 1.66664,-3.16666 1.8,-4.7 l 0.2,-2.4 -3.3,0.2 c -2.00002,0.13334 -4.26669,-0.13332 -6.8,-0.8 -2.53335,-0.66665 -4.43335,-1.49999 -5.7,-2.5 -1.20001,-0.93332 -2.30001,-2.49998 -3.3,-4.7 -1.00001,-2.19998 -1.73334,-4.36664 -2.2,-6.5 -0.40001,-2.13331 -0.70001,-4.1333 -0.9,-6 -0.13334,-1.9333 -10e-6,-3.06663 0.4,-3.4"
         style="font-size:100px;font-variant:normal;font-weight:500;font-stretch:normal;font-family:My_Unprofessional_Handwriting;-inkscape-font-specification:My_Unprofessional_Handwriting Medium"
         id="path3052" />
      <path
         d="m 976.74926,-140.72017 c 3.06665,-0.99995 5.63331,-1.29995 7.7,-0.9 2.13331,0.40005 4.33331,1.63338 6.6,3.7 1.26664,1.20004 2.2333,2.50004 2.9,3.9 0.66663,1.33337 1.3333,3.4667 2,6.4 1.59996,7.06669 1.39996,12.93335 -0.6,17.6 -1.93337,4.60001 -5.40003,7.43334 -10.4,8.5 -3.60002,0.73334 -6.76668,0.30001 -9.5,-1.3 -2.73334,-1.66666 -4.86668,-4.43332 -6.4,-8.3 -1.26667,-2.99998 -1.93334,-6.66664 -2,-11 -0.0667,-4.39997 0.43333,-7.6333 1.5,-9.7 0.93333,-1.66663 1.39999,-2.79996 1.4,-3.4 -10e-6,-0.79996 0.69999,-1.76663 2.1,-2.9 1.46665,-1.13329 3.03332,-1.99996 4.7,-2.6 m 9.8,5.4 c -1.26669,-0.86663 -2.86669,-1.23329 -4.8,-1.1 -1.93335,0.13337 -3.53335,0.73337 -4.8,1.8 -1.53335,1.2667 -2.63335,2.60004 -3.3,4 -0.60001,1.40003 -1.03334,3.43336 -1.3,6.1 -0.26668,2.73336 -0.20001,5.23336 0.2,7.5 0.46666,2.26669 1.09999,4.06668 1.9,5.4 0.86665,1.33335 1.79999,2.46668 2.8,3.4 1.06665,0.86668 1.96665,1.46668 2.7,1.8 0.73331,0.33334 1.26665,0.50001 1.6,0.5 1.53331,1e-5 3.03331,-0.43332 4.5,-1.3 1.53331,-0.86665 2.79997,-2.03332 3.8,-3.5 0.86664,-1.33332 1.36664,-2.46665 1.5,-3.4 0.1333,-0.93331 0.1333,-3.19998 0,-6.8 -0.13336,-4.06664 -0.60003,-7.19997 -1.4,-9.4 -0.73336,-2.19996 -1.86669,-3.86663 -3.4,-5"
         style="font-size:100px;font-variant:normal;font-weight:500;font-stretch:normal;font-family:My_Unprofessional_Handwriting;-inkscape-font-specification:My_Unprofessional_Handwriting Medium"
         id="path3054" />
      <path
         d="m 999.88519,-136.82017 c 0.66671,-0.99996 1.20001,-1.53329 1.60001,-1.6 0.4667,-0.0666 1.1,0.33338 1.9,1.2 0.4667,0.53337 0.7333,1.16671 0.8,1.9 0.1333,0.66671 0.1,1.83337 -0.1,3.5 -0.3333,2.8667 -0.1333,5.7667 0.6,8.7 0.8,2.93336 1.9,5.03336 3.3,6.3 1.3333,1.20002 2.9333,2.06669 4.8,2.6 1.7333,0.46668 3.1333,0.43335 4.2,-0.1 1.0666,-0.53331 2.1,-1.73331 3.1,-3.6 0.7333,-1.33331 1.0333,-2.53331 0.9,-3.6 -0.067,-1.13331 -0.8,-4.3333 -2.2,-9.6 -0.4667,-1.9333 -0.7,-3.16663 -0.7,-3.7 0,-0.59996 0.2666,-1.19996 0.8,-1.8 2,-2.19996 3.7666,-0.93329 5.3,3.8 0.8,2.4667 1.6333,6.0667 2.5,10.8 0.3333,1.73336 0.7333,3.50002 1.2,5.3 0.5333,1.80002 0.9666,3.23335 1.3,4.3 0.4,1.06668 0.7333,2.10001 1,3.1 0.3333,0.93335 0.4666,1.73335 0.4,2.4 0,0.60001 -0.2,1.10001 -0.6,1.5 -0.7334,0.73334 -1.4334,0.96668 -2.1,0.7 -0.5334,-0.19999 -1.2334,-0.99999 -2.1,-2.4 -0.8,-1.46665 -1.2,-2.59999 -1.2,-3.4 0,-1.66665 -1.3,-1.59998 -3.9,0.2 -1.2,0.80001 -2.1667,1.30001 -2.9,1.5 -0.7334,0.13335 -1.9667,0.10001 -3.7,-0.1 -2.8667,-0.19999 -5.4667,-1.13332 -7.8,-2.8 -2.3333,-1.73332 -4.1667,-3.96665 -5.5,-6.7 -1.00001,-2.13331 -1.63334,-5.39997 -1.90001,-9.8 -0.2,-4.39996 0.13334,-7.26663 1,-8.6"
         style="font-size:100px;font-variant:normal;font-weight:500;font-stretch:normal;font-family:My_Unprofessional_Handwriting;-inkscape-font-specification:My_Unprofessional_Handwriting Medium"
         id="path3056" />
      <path
         d="m 1102.5664,-105.92017 c -1.4667,1e-5 -2.9,-0.86666 -4.3,-2.6 -1.3333,-1.73332 -2.4666,-3.46665 -3.4,-5.2 -0.9333,-1.73331 -1.5666,-2.59998 -1.9,-2.6 -0.2,2e-5 -0.4,0.53335 -0.6,1.6 -0.1333,1.00002 -0.4,2.20002 -0.8,3.6 -0.3333,1.40001 -0.9,2.46668 -1.7,3.2 -0.7333,0.73334 -1.3,1.13334 -1.7,1.2 -0.3333,0.0667 -0.9333,-0.13332 -1.8,-0.6 -3.9333,-2.06665 -7.1333,-8.29998 -9.6,-18.7 l -1.8,-7.2 c -0.8,-3.06663 -0.1,-4.59996 2.1,-4.6 0.8667,4e-5 1.5334,0.40004 2,1.2 0.5334,0.80004 1.1,2.46671 1.7,5 2.8,12.00002 4.8334,17.40002 6.1,16.2 0.4,-0.39998 0.9,-3.03331 1.5,-7.9 0.4,-3.66664 0.8,-6.06663 1.2,-7.2 0.4,-1.19996 1,-1.79996 1.8,-1.8 0.6667,4e-5 1.4667,0.7667 2.4,2.3 0.9334,1.53337 1.6334,3.20003 2.1,5 0.4667,1.66669 1.4334,4.13336 2.9,7.4 1.4667,3.20002 2.4667,4.80002 3,4.8 0.9333,2e-5 1.6333,-4.23331 2.1,-12.7 0.3333,-4.59997 0.067,-8.2333 -0.8,-10.9 -0.8,-2.73329 -1.0667,-4.46662 -0.8,-5.2 0.3333,-0.73329 1.1,-1.09995 2.3,-1.1 1.3333,5e-5 2.3333,1.00005 3,3 0.6667,2.00004 1.1,5.40004 1.3,10.2 0.2,4.4667 0,8.86669 -0.6,13.2 -0.6,4.26668 -1.3667,7.13335 -2.3,8.6 -0.8,1.20001 -1.9333,1.80001 -3.4,1.8"
         style="font-size:100px;font-variant:normal;font-weight:500;font-stretch:normal;font-family:My_Unprofessional_Handwriting;-inkscape-font-specification:My_Unprofessional_Handwriting Medium"
         id="path3058" />
      <path
         d="m 1123.2946,-142.12017 c 1.6,-0.66662 2.9,-1.03329 3.9,-1.1 0.9999,-0.0666 2.2666,0.20005 3.8,0.8 1.3999,0.46671 2.6999,1.50005 3.9,3.1 1.2666,1.60004 1.8999,3.03337 1.9,4.3 -10e-5,2.0667 -1.4334,5.03337 -4.3,8.9 -2.8001,3.86669 -5.6334,6.66669 -8.5,8.4 -0.2,0.13336 -0.5,0.33335 -0.9,0.6 -2.7334,1.66669 -4.3,2.70002 -4.7,3.1 -0.3334,0.40002 -0.2667,1.03335 0.2,1.9 0.067,0.13335 0.1,0.23335 0.1,0.3 0.4666,0.86668 1.4666,1.86668 3,3 1.6,1.13335 3.6,2.10001 6,2.9 2.4666,0.73334 4.9999,0.53334 7.6,-0.6 2.8666,-1.19999 4.2999,-0.63332 4.3,1.7 -10e-5,1.26667 -0.9667,2.30001 -2.9,3.1 -1.8667,0.73334 -4.1667,1.06667 -6.9,1 -2.7334,-0.13333 -5.2,-0.69999 -7.4,-1.7 -4.6667,-1.99999 -8,-5.59999 -10,-10.8 -1.9334,-5.19998 -1.9667,-10.63331 -0.1,-16.3 0.6666,-2.19996 2.1333,-4.59996 4.4,-7.2 2.3333,-2.66662 4.5333,-4.46662 6.6,-5.4 m 6.4,4.7 c -0.8667,-0.66662 -1.5001,-0.99996 -1.9,-1 -0.3334,4e-5 -1.1667,0.33338 -2.5,1 -2.5334,1.40004 -4.6334,3.26671 -6.3,5.6 -1.6,2.33337 -2.5334,4.83336 -2.8,7.5 -0.2667,2.33336 -0.1334,3.70002 0.4,4.1 0.6,0.33336 1.8333,-0.0666 3.7,-1.2 2.5333,-1.46664 5,-3.66664 7.4,-6.6 2.3999,-2.9333 3.5999,-5.19996 3.6,-6.8 -10e-5,-1.06663 -0.5334,-1.93329 -1.6,-2.6"
         style="font-size:100px;font-variant:normal;font-weight:500;font-stretch:normal;font-family:My_Unprofessional_Handwriting;-inkscape-font-specification:My_Unprofessional_Handwriting Medium"
         id="path3060" />
      <path
         d="m 1149.2586,-128.42017 c 2.9334,-4.86663 6.6333,-7.53329 11.1,-8 3,-0.33329 5.0667,0.36671 6.2,2.1 0.4,0.6667 0.5333,1.40004 0.4,2.2 -0.1333,0.8667 -0.5333,1.3667 -1.2,1.5 -0.6667,0.0667 -1.4667,3e-5 -2.4,-0.2 -0.8667,-0.26663 -2,-0.26663 -3.4,0 -1.3333,0.2667 -2.5667,0.9667 -3.7,2.1 -1.7333,1.6667 -2.9333,3.5667 -3.6,5.7 -0.6666,2.13336 -0.8333,4.80002 -0.5,8 0.6,7.13335 0.6667,11.10001 0.2,11.9 -0.2,0.33334 -0.5666,0.53334 -1.1,0.6 -0.8666,0.13334 -1.5,0.10001 -1.9,-0.1 -0.4,-0.19999 -0.7333,-0.66666 -1,-1.4 -0.2,-0.73332 -0.3666,-1.53332 -0.5,-2.4 -0.1333,-0.86666 -0.4,-2.16665 -0.8,-3.9 -0.4,-1.73332 -0.9,-3.46665 -1.5,-5.2 -1.4666,-3.93331 -2.7333,-9.06664 -3.8,-15.4 -0.2666,-1.66663 0.067,-2.9333 1,-3.8 0.6667,-0.59996 1.1334,-0.89996 1.4,-0.9 0.2667,4e-5 0.7,0.26671 1.3,0.8 0.6667,0.60004 1.3,2.40004 1.9,5.4 0.3334,1.33337 0.6334,2.00003 0.9,2 0.2667,3e-5 0.6,-0.3333 1,-1"
         style="font-size:100px;font-variant:normal;font-weight:500;font-stretch:normal;font-family:My_Unprofessional_Handwriting;-inkscape-font-specification:My_Unprofessional_Handwriting Medium"
         id="path3062" />
      <path
         d="m 1181.3024,-142.12017 c 1.6,-0.66662 2.9,-1.03329 3.9,-1.1 1,-0.0666 2.2666,0.20005 3.8,0.8 1.4,0.46671 2.7,1.50005 3.9,3.1 1.2666,1.60004 1.9,3.03337 1.9,4.3 0,2.0667 -1.4334,5.03337 -4.3,8.9 -2.8,3.86669 -5.6334,6.66669 -8.5,8.4 -0.2,0.13336 -0.5,0.33335 -0.9,0.6 -2.7334,1.66669 -4.3,2.70002 -4.7,3.1 -0.3334,0.40002 -0.2667,1.03335 0.2,1.9 0.067,0.13335 0.1,0.23335 0.1,0.3 0.4666,0.86668 1.4666,1.86668 3,3 1.6,1.13335 3.6,2.10001 6,2.9 2.4666,0.73334 5,0.53334 7.6,-0.6 2.8666,-1.19999 4.3,-0.63332 4.3,1.7 0,1.26667 -0.9667,2.30001 -2.9,3.1 -1.8667,0.73334 -4.1667,1.06667 -6.9,1 -2.7334,-0.13333 -5.2,-0.69999 -7.4,-1.7 -4.6667,-1.99999 -8,-5.59999 -10,-10.8 -1.9334,-5.19998 -1.9667,-10.63331 -0.1,-16.3 0.6666,-2.19996 2.1333,-4.59996 4.4,-7.2 2.3333,-2.66662 4.5333,-4.46662 6.6,-5.4 m 6.4,4.7 c -0.8667,-0.66662 -1.5,-0.99996 -1.9,-1 -0.3334,4e-5 -1.1667,0.33338 -2.5,1 -2.5334,1.40004 -4.6334,3.26671 -6.3,5.6 -1.6,2.33337 -2.5334,4.83336 -2.8,7.5 -0.2667,2.33336 -0.1334,3.70002 0.4,4.1 0.6,0.33336 1.8333,-0.0666 3.7,-1.2 2.5333,-1.46664 5,-3.66664 7.4,-6.6 2.4,-2.9333 3.6,-5.19996 3.6,-6.8 0,-1.06663 -0.5334,-1.93329 -1.6,-2.6"
         style="font-size:100px;font-variant:normal;font-weight:500;font-stretch:normal;font-family:My_Unprofessional_Handwriting;-inkscape-font-specification:My_Unprofessional_Handwriting Medium"
         id="path3064" />
      <path
         d="m 1248.4586,-144.32017 c 0.2667,-0.66662 0.8,-1.03328 1.6,-1.1 0.8667,-0.0666 1.6,0.20005 2.2,0.8 0.6,0.53338 0.9,1.80005 0.9,3.8 0,2.00004 0.2667,4.20004 0.8,6.6 0.5333,2.33337 1.0333,3.60003 1.5,3.8 0.3333,0.13337 1.3,-0.0666 2.9,-0.6 1.6,-0.5333 3.2333,-1.06663 4.9,-1.6 1.6667,-0.5333 3.3,-0.86663 4.9,-1 1.6,-0.1333 2.5333,0.23337 2.8,1.1 0.3333,0.8667 0.2,1.6667 -0.4,2.4 -0.5333,0.73337 -1.4,1.2667 -2.6,1.6 -1.4667,0.40003 -2.6333,0.73337 -3.5,1 -0.8,0.2667 -1.7,0.53336 -2.7,0.8 -0.9333,0.2667 -1.6333,0.53336 -2.1,0.8 -0.4,0.20003 -0.8667,0.40003 -1.4,0.6 -0.5333,0.20003 -0.9,0.43336 -1.1,0.7 -0.1333,0.2667 -0.3,0.53336 -0.5,0.8 -0.2,0.20003 -0.3333,0.50003 -0.4,0.9 0,0.33336 0,0.66669 0,1 0,0.26669 0.033,0.66669 0.1,1.2 0.4,4.86669 0.7333,7.96668 1,9.3 0.3333,1.26668 0.9333,2.43335 1.8,3.5 1.2,1.40001 2.5667,2.06668 4.1,2 1.6,-0.0667 3.5667,-0.86666 5.9,-2.4 4.1333,-2.79998 6.3667,-2.86665 6.7,-0.2 0.1333,1.20001 -0.4667,2.30001 -1.8,3.3 -3.6,2.53334 -7.0667,3.90001 -10.4,4.1 -3.2667,0.20001 -6,-0.73333 -8.2,-2.8 -0.9333,-0.93332 -1.8,-2.59999 -2.6,-5 -0.7333,-2.39998 -1.2333,-5.19998 -1.5,-8.4 l -0.5,-4.7 -2.2,0.5 c -1.4,0.40003 -2.9333,0.60003 -4.6,0.6 -1,0.0667 -1.6666,3e-5 -2,-0.2 -0.2666,-0.19997 -0.4,-0.63331 -0.4,-1.3 0,-0.79997 0.3667,-1.46664 1.1,-2 0.8,-0.59997 2.4667,-1.46664 5,-2.6 1.2,-0.46663 1.9,-0.8333 2.1,-1.1 0.2,-0.3333 0.1,-0.8333 -0.3,-1.5 -0.4,-0.86663 -0.7666,-3.3333 -1.1,-7.4 -0.2666,-4.06662 -0.2666,-6.49995 0,-7.3"
         style="font-size:100px;font-variant:normal;font-weight:500;font-stretch:normal;font-family:My_Unprofessional_Handwriting;-inkscape-font-specification:My_Unprofessional_Handwriting Medium"
         id="path3066" />
      <path
         d="m 1278.1868,-155.72017 c 0.4666,-0.53327 1,-0.79994 1.6,-0.8 0.6666,6e-5 1.2,0.26673 1.6,0.8 1.1333,1.40006 1.9999,8.30005 2.6,20.7 0.3333,6.80003 0.6999,10.33336 1.1,10.6 0.2666,0.20003 0.7999,-0.0333 1.6,-0.7 3.5333,-3.19997 6.9333,-4.36663 10.2,-3.5 3.3333,0.8667 5.7999,3.5667 7.4,8.1 0.5333,1.60002 0.8666,5.03335 1,10.3 0.1333,3.33334 0.1333,5.53334 0,6.6 -0.1334,1.06667 -0.4667,1.86667 -1,2.4 -0.8001,0.8 -1.6001,0.96667 -2.4,0.5 -0.3334,-0.26666 -0.6334,-0.73333 -0.9,-1.4 -0.2001,-0.66666 -0.3667,-1.59999 -0.5,-2.8 -0.067,-1.19999 -0.1334,-2.43332 -0.2,-3.7 -0.067,-1.26665 -0.1667,-2.83332 -0.3,-4.7 -0.067,-1.93331 -0.1667,-3.66665 -0.3,-5.2 -0.067,-0.86664 -0.7334,-1.96664 -2,-3.3 -1.2667,-1.39997 -2.2667,-2.09997 -3,-2.1 -1.0001,3e-5 -2.4001,0.90003 -4.2,2.7 -1.8001,1.73336 -2.9334,3.33336 -3.4,4.8 -0.4001,1.06669 -0.6001,2.43335 -0.6,4.1 -10e-5,1.60001 0.067,3.10001 0.2,4.5 0.1333,1.40001 0.1999,2.73334 0.2,4 0.067,1.26667 -0.1001,2.30001 -0.5,3.1 -0.4001,0.733338 -1.0667,1.100004 -2,1.100001 -0.8667,3e-6 -1.5667,-0.33333 -2.1,-1.000001 -0.7334,-0.86666 -1.7667,-10.06665 -3.1,-27.6 -1.2667,-17.59995 -1.6,-26.76661 -1,-27.5"
         style="font-size:100px;font-variant:normal;font-weight:500;font-stretch:normal;font-family:My_Unprofessional_Handwriting;-inkscape-font-specification:My_Unprofessional_Handwriting Medium"
         id="path3068" />
      <path
         d="m 1317.2789,-132.02017 c 1.7334,-1.26663 3.0334,-2.06663 3.9,-2.4 0.9334,-0.39996 2.0667,-0.59996 3.4,-0.6 1.8,4e-5 3.5334,0.43337 5.2,1.3 1.6667,0.80004 2.5,1.6667 2.5,2.6 0,0.53337 0.3667,1.70003 1.1,3.5 0.7333,1.73336 1.2667,3.30003 1.6,4.7 0.7333,3.06669 2.5,7.83335 5.3,14.3 0.3333,0.86668 -0.067,1.70001 -1.2,2.5 -1.5333,1.00001 -2.7667,0.73334 -3.7,-0.8 -0.2667,-0.46666 -0.4667,-1.03332 -0.6,-1.7 -0.4667,-1.99999 -1.1,-2.99998 -1.9,-3 -0.7333,2e-5 -2.0333,1.00001 -3.9,3 -1.5333,1.66668 -2.6666,2.70001 -3.4,3.1 -0.6666,0.40001 -1.8,0.70001 -3.4,0.9 -3.7333,0.33334 -7,-0.36666 -9.8,-2.1 -2.7333,-1.73332 -4.3,-4.06665 -4.7,-7 -0.5333,-3.19998 0.033,-6.36664 1.7,-9.5 1.6667,-3.1333 4.3,-6.06663 7.9,-8.8 m 10.5,5.6 c -1,-2.19997 -1.9333,-3.39997 -2.8,-3.6 -0.8666,-0.19997 -2.2666,0.40003 -4.2,1.8 -2.8666,2.13336 -4.9,4.13336 -6.1,6 -1.2,1.86669 -1.8,3.96669 -1.8,6.3 0,2.20002 0.7667,3.80002 2.3,4.8 1.6,1.00001 3.8334,1.36668 6.7,1.1 1.1334,-0.13332 2,-0.46665 2.6,-1 0.6667,-0.53332 1.6334,-1.76665 2.9,-3.7 1.3334,-1.99998 2.0334,-3.83331 2.1,-5.5 0.067,-1.66664 -0.5,-3.73331 -1.7,-6.2"
         style="font-size:100px;font-variant:normal;font-weight:500;font-stretch:normal;font-family:My_Unprofessional_Handwriting;-inkscape-font-specification:My_Unprofessional_Handwriting Medium"
         id="path3070" />
      <path
         d="m 1349.2399,-144.32017 c 0.2666,-0.66662 0.8,-1.03328 1.6,-1.1 0.8666,-0.0666 1.6,0.20005 2.2,0.8 0.6,0.53338 0.9,1.80005 0.9,3.8 0,2.00004 0.2666,4.20004 0.8,6.6 0.5333,2.33337 1.0333,3.60003 1.5,3.8 0.3333,0.13337 1.3,-0.0666 2.9,-0.6 1.6,-0.5333 3.2333,-1.06663 4.9,-1.6 1.6666,-0.5333 3.3,-0.86663 4.9,-1 1.6,-0.1333 2.5333,0.23337 2.8,1.1 0.3333,0.8667 0.1999,1.6667 -0.4,2.4 -0.5334,0.73337 -1.4,1.2667 -2.6,1.6 -1.4667,0.40003 -2.6334,0.73337 -3.5,1 -0.8,0.2667 -1.7,0.53336 -2.7,0.8 -0.9334,0.2667 -1.6334,0.53336 -2.1,0.8 -0.4,0.20003 -0.8667,0.40003 -1.4,0.6 -0.5334,0.20003 -0.9,0.43336 -1.1,0.7 -0.1334,0.2667 -0.3,0.53336 -0.5,0.8 -0.2,0.20003 -0.3334,0.50003 -0.4,0.9 0,0.33336 0,0.66669 0,1 0,0.26669 0.033,0.66669 0.1,1.2 0.4,4.86669 0.7333,7.96668 1,9.3 0.3333,1.26668 0.9333,2.43335 1.8,3.5 1.2,1.40001 2.5666,2.06668 4.1,2 1.6,-0.0667 3.5666,-0.86666 5.9,-2.4 4.1333,-2.79998 6.3666,-2.86665 6.7,-0.2 0.1333,1.20001 -0.4667,2.30001 -1.8,3.3 -3.6,2.53334 -7.0667,3.90001 -10.4,4.1 -3.2667,0.20001 -6,-0.73333 -8.2,-2.8 -0.9334,-0.93332 -1.8,-2.59999 -2.6,-5 -0.7334,-2.39998 -1.2334,-5.19998 -1.5,-8.4 l -0.5,-4.7 -2.2,0.5 c -1.4,0.40003 -2.9334,0.60003 -4.6,0.6 -1,0.0667 -1.6667,3e-5 -2,-0.2 -0.2667,-0.19997 -0.4,-0.63331 -0.4,-1.3 0,-0.79997 0.3666,-1.46664 1.1,-2 0.8,-0.59997 2.4666,-1.46664 5,-2.6 1.2,-0.46663 1.9,-0.8333 2.1,-1.1 0.2,-0.3333 0.1,-0.8333 -0.3,-1.5 -0.4,-0.86663 -0.7667,-3.3333 -1.1,-7.4 -0.2667,-4.06662 -0.2667,-6.49995 0,-7.3"
         style="font-size:100px;font-variant:normal;font-weight:500;font-stretch:normal;font-family:My_Unprofessional_Handwriting;-inkscape-font-specification:My_Unprofessional_Handwriting Medium"
         id="path3072" />
      <path
         d="m 1432.7602,-157.92017 c 1,-0.33327 2.4333,-0.43327 4.3,-0.3 1.9333,0.0667 3.2333,0.30006 3.9,0.7 0.4666,0.26673 0.6333,0.83339 0.5,1.7 -0.067,0.86673 -0.3667,1.53339 -0.9,2 -0.6,0.53339 -1.2667,0.70006 -2,0.5 -0.6667,-0.19994 -1.3667,-0.29994 -2.1,-0.3 -0.7334,6e-5 -1.4334,0.10006 -2.1,0.3 -0.6,0.13339 -1.1334,0.83339 -1.6,2.1 -0.4667,1.20005 -0.7667,2.96672 -0.9,5.3 -0.1334,2.46671 -0.067,4.46671 0.2,6 0.2666,1.53338 1.0666,4.73337 2.4,9.6 0.9333,3.53336 1.7333,5.60003 2.4,6.2 0.7333,0.60003 2.5,0.76669 5.3,0.5 1.9333,-0.19997 3.2333,-0.23331 3.9,-0.1 0.7333,0.0667 1.3,0.33336 1.7,0.8 0.8666,1.06669 0.5333,2.03336 -1,2.9 -1.4667,0.80002 -3.2667,1.43336 -5.4,1.9 -2.1334,0.46669 -3.2667,0.76669 -3.4,0.9 -0.2667,0.33335 -0.2334,2.50002 0.1,6.5 0.4,4.00001 0.9,7.76667 1.5,11.300001 0.4666,2.666667 0.5333,4.499998 0.2,5.5 -0.2667,0.999996 -1.0334,1.599996 -2.3,1.8 -0.7334,0.06666 -1.3334,-0.200004 -1.8,-0.8 -0.4,-0.533337 -0.7334,-1.500002 -1,-2.9 -0.2,-1.4 -0.3667,-2.866665 -0.5,-4.400001 -0.1334,-1.59999 -0.3334,-3.66666 -0.6,-6.2 -0.2667,-2.53332 -0.5667,-4.89998 -0.9,-7.1 l -0.5,-3.1 -5.2,-0.4 c -3.4,-0.19998 -5.3667,-0.69998 -5.9,-1.5 -0.6667,-1.13331 -0.3333,-1.96664 1,-2.5 1.4,-0.59997 3.1,-1.03331 5.1,-1.3 2,-0.26664 3.1333,-0.53331 3.4,-0.8 0.3333,-0.39997 0.2333,-1.49997 -0.3,-3.3 -0.5334,-1.86663 -1.2333,-4.46663 -2.1,-7.8 -0.8,-3.39996 -1.2333,-6.59995 -1.3,-9.6 -0.1333,-3.79995 0.3,-6.93328 1.3,-9.4 1.0667,-2.53327 2.6,-4.09994 4.6,-4.7"
         style="font-size:100px;font-variant:normal;font-weight:500;font-stretch:normal;font-family:My_Unprofessional_Handwriting;-inkscape-font-specification:My_Unprofessional_Handwriting Medium"
         id="path3074" />
      <path
         d="m 1460.0524,-132.02017 c 1.7333,-1.26663 3.0333,-2.06663 3.9,-2.4 0.9333,-0.39996 2.0666,-0.59996 3.4,-0.6 1.8,4e-5 3.5333,0.43337 5.2,1.3 1.6666,0.80004 2.5,1.6667 2.5,2.6 0,0.53337 0.3666,1.70003 1.1,3.5 0.7333,1.73336 1.2666,3.30003 1.6,4.7 0.7333,3.06669 2.4999,7.83335 5.3,14.3 0.3333,0.86668 -0.067,1.70001 -1.2,2.5 -1.5334,1.00001 -2.7667,0.73334 -3.7,-0.8 -0.2667,-0.46666 -0.4667,-1.03332 -0.6,-1.7 -0.4667,-1.99999 -1.1,-2.99998 -1.9,-3 -0.7334,2e-5 -2.0334,1.00001 -3.9,3 -1.5334,1.66668 -2.6667,2.70001 -3.4,3.1 -0.6667,0.40001 -1.8,0.70001 -3.4,0.9 -3.7334,0.33334 -7,-0.36666 -9.8,-2.1 -2.7334,-1.73332 -4.3,-4.06665 -4.7,-7 -0.5334,-3.19998 0.033,-6.36664 1.7,-9.5 1.6666,-3.1333 4.3,-6.06663 7.9,-8.8 m 10.5,5.6 c -1,-2.19997 -1.9334,-3.39997 -2.8,-3.6 -0.8667,-0.19997 -2.2667,0.40003 -4.2,1.8 -2.8667,2.13336 -4.9,4.13336 -6.1,6 -1.2,1.86669 -1.8,3.96669 -1.8,6.3 0,2.20002 0.7666,3.80002 2.3,4.8 1.6,1.00001 3.8333,1.36668 6.7,1.1 1.1333,-0.13332 2,-0.46665 2.6,-1 0.6666,-0.53332 1.6333,-1.76665 2.9,-3.7 1.3333,-1.99998 2.0333,-3.83331 2.1,-5.5 0.067,-1.66664 -0.5,-3.73331 -1.7,-6.2"
         style="font-size:100px;font-variant:normal;font-weight:500;font-stretch:normal;font-family:My_Unprofessional_Handwriting;-inkscape-font-specification:My_Unprofessional_Handwriting Medium"
         id="path3076" />
      <path
         d="m 1502.0133,-140.02017 c 1.5333,-1.06662 2.9,-1.63329 4.1,-1.7 1.2,-0.0666 2.0667,0.36671 2.6,1.3 0.4,0.66671 0.4333,1.23338 0.1,1.7 -0.3333,0.40004 -1.9333,1.70004 -4.8,3.9 -1.7333,1.33337 -2.5,2.63337 -2.3,3.9 0.2,1.2667 1.5,3.30003 3.9,6.1 3.2667,3.80003 5.2333,6.83336 5.9,9.1 0.7333,2.26668 0.4333,4.50002 -0.9,6.7 -2.6,4.13334 -6,6.20001 -10.2,6.2 -1.9333,1e-5 -3.5667,-0.26666 -4.9,-0.8 -1.3333,-0.53332 -3.4333,-1.69999 -6.3,-3.5 -2.0667,-1.39999 -3.3333,-2.49999 -3.8,-3.3 -0.4,-0.86665 -0.1333,-1.73332 0.8,-2.6 0.6667,-0.66665 1.2333,-0.93332 1.7,-0.8 0.5333,0.13335 1.8667,0.93335 4,2.4 5.6667,3.80001 9.8333,4.43334 12.5,1.9 2.6,-2.39998 2.5,-5.29998 -0.3,-8.7 -3.6667,-4.53331 -5.8333,-7.3333 -6.5,-8.4 -0.6,-1.1333 -0.9,-2.5333 -0.9,-4.2 0,-3.53329 1.7667,-6.59996 5.3,-9.2"
         style="font-size:100px;font-variant:normal;font-weight:500;font-stretch:normal;font-family:My_Unprofessional_Handwriting;-inkscape-font-specification:My_Unprofessional_Handwriting Medium"
         id="path3078" />
      <path
         d="m 1520.7243,-144.32017 c 0.2666,-0.66662 0.7999,-1.03328 1.6,-1.1 0.8666,-0.0666 1.5999,0.20005 2.2,0.8 0.5999,0.53338 0.8999,1.80005 0.9,3.8 -10e-5,2.00004 0.2666,4.20004 0.8,6.6 0.5333,2.33337 1.0333,3.60003 1.5,3.8 0.3333,0.13337 1.2999,-0.0666 2.9,-0.6 1.5999,-0.5333 3.2333,-1.06663 4.9,-1.6 1.6666,-0.5333 3.2999,-0.86663 4.9,-1 1.5999,-0.1333 2.5333,0.23337 2.8,1.1 0.3333,0.8667 0.1999,1.6667 -0.4,2.4 -0.5334,0.73337 -1.4001,1.2667 -2.6,1.6 -1.4667,0.40003 -2.6334,0.73337 -3.5,1 -0.8001,0.2667 -1.7001,0.53336 -2.7,0.8 -0.9334,0.2667 -1.6334,0.53336 -2.1,0.8 -0.4001,0.20003 -0.8667,0.40003 -1.4,0.6 -0.5334,0.20003 -0.9001,0.43336 -1.1,0.7 -0.1334,0.2667 -0.3001,0.53336 -0.5,0.8 -0.2001,0.20003 -0.3334,0.50003 -0.4,0.9 -10e-5,0.33336 -10e-5,0.66669 0,1 -10e-5,0.26669 0.033,0.66669 0.1,1.2 0.3999,4.86669 0.7333,7.96668 1,9.3 0.3333,1.26668 0.9333,2.43335 1.8,3.5 1.1999,1.40001 2.5666,2.06668 4.1,2 1.5999,-0.0667 3.5666,-0.86666 5.9,-2.4 4.1333,-2.79998 6.3666,-2.86665 6.7,-0.2 0.1333,1.20001 -0.4667,2.30001 -1.8,3.3 -3.6001,2.53334 -7.0667,3.90001 -10.4,4.1 -3.2667,0.20001 -6.0001,-0.73333 -8.2,-2.8 -0.9334,-0.93332 -1.8001,-2.59999 -2.6,-5 -0.7334,-2.39998 -1.2334,-5.19998 -1.5,-8.4 l -0.5,-4.7 -2.2,0.5 c -1.4001,0.40003 -2.9334,0.60003 -4.6,0.6 -1,0.0667 -1.6667,3e-5 -2,-0.2 -0.2667,-0.19997 -0.4,-0.63331 -0.4,-1.3 0,-0.79997 0.3666,-1.46664 1.1,-2 0.8,-0.59997 2.4666,-1.46664 5,-2.6 1.1999,-0.46663 1.8999,-0.8333 2.1,-1.1 0.1999,-0.3333 0.1,-0.8333 -0.3,-1.5 -0.4001,-0.86663 -0.7667,-3.3333 -1.1,-7.4 -0.2667,-4.06662 -0.2667,-6.49995 0,-7.3"
         style="font-size:100px;font-variant:normal;font-weight:500;font-stretch:normal;font-family:My_Unprofessional_Handwriting;-inkscape-font-specification:My_Unprofessional_Handwriting Medium"
         id="path3080" />
      <path
         d="m 1550.5524,-106.62017 c -0.4667,-0.79999 -0.4,-1.56665 0.2,-2.3 0.6,-0.73332 1.3,-1.09999 2.1,-1.1 0.8666,10e-6 1.6,0.36668 2.2,1.1 0.6,0.73335 0.6666,1.50001 0.2,2.3 -0.4667,0.73334 -1.2667,1.10001 -2.4,1.1 -1.0667,10e-6 -1.8334,-0.36666 -2.3,-1.1"
         style="font-size:100px;font-variant:normal;font-weight:500;font-stretch:normal;font-family:My_Unprofessional_Handwriting;-inkscape-font-specification:My_Unprofessional_Handwriting Medium"
         id="path3082" />
      <path
         d="m 637.38051,-26.120169 c 0.33333,-0.333279 1.46666,-0.933278 3.4,-1.8 1.93332,-0.933276 4.26665,-1.899942 7,-2.9 2.73331,-0.99994 5.53331,-1.433273 8.4,-1.3 2.93331,0.133394 5.19997,1.066726 6.8,2.8 1.5333,1.533389 2.19997,3.466721 2,5.8 -0.20003,2.266716 -0.73337,4.333381 -1.6,6.2 -0.8667,1.800044 -1.80003,3.500042 -2.8,5.1 -1.00003,1.533372 -1.50003,2.3667047 -1.5,2.4999999 -3e-5,0.2000378 0.96664,0.4333709 2.9,0.7 1.79997,0.2667037 3.79997,1.0667029 6,2.4 2.26663,1.3333669 3.83329,2.6333656 4.7,3.9 0.86662,1.333363 1.26662,3.10002793 1.2,5.3 -0.0667,2.2000235 -0.60004,4.1333549 -1.6,5.8 -1.80004,2.9333501 -3.6667,5.3333481 -5.6,7.2000001 -1.93337,1.800011 -3.80003,3.033343 -5.6,3.7 -1.73336,0.666675 -3.36669,1.133341 -4.9,1.4 -1.53336,0.266674 -3.13336,0.500007 -4.8,0.7 -1.60002,0.200007 -2.86668,0.53334 -3.8,1 -1.06668,0.533339 -1.86668,0.733338 -2.4,0.6 -0.53335,-0.199995 -1.76668,-1.033327 -3.7,-2.5 -2.66667,-2.066657 -4.00001,-3.466655 -4,-4.2 -10e-6,-0.799987 0.33333,-1.43332 1,-1.9 0.66666,-0.533319 1.33332,-0.699985 2,-0.5 0.73332,0.266681 1.23332,0.166681 1.5,-0.3 0.26666,-0.466652 0.0333,-3.566648 -0.7,-9.3000001 -0.66668,-5.7333036 -1.40001,-10.4999655 -2.2,-14.2999999 -1.46667,-7.133288 -2.30001,-11.433284 -2.5,-12.9 -0.13334,-1.533281 0.13333,-2.599946 0.8,-3.2 m 21.2,0.2 c -1.13336,-0.933278 -2.40003,-1.366611 -3.8,-1.3 -1.33336,0.06672 -3.63335,0.666721 -6.9,1.8 -2.00001,0.733386 -3.40001,1.333386 -4.2,1.8 -0.73335,0.466718 -1.13334,1.000051 -1.2,1.6 -0.13334,0.800049 0.13332,3.033381 0.8,6.7 0.66665,3.60004 1.26665,6.1000374 1.8,7.4999999 0.33332,0.8667019 0.63332,1.3667014 0.9,1.5 0.26665,0.066701 0.89998,-0.066632 1.9,-0.4 1.79998,-0.5999644 4.33331,-3.1332952 7.6,-7.5999999 3.26664,-4.533286 4.89997,-7.666616 4.9,-9.4 -3e-5,-0.533281 -0.60003,-1.266613 -1.8,-2.2 m 5.1,22.7999999 c -1.00003,-0.3333016 -2.63336,-0.5333014 -4.9,-0.6 -2.20003,-0.066635 -3.73336,0.066699 -4.6,0.4 -0.53336,0.2000314 -1.56669,0.8333641 -3.1,1.9 -1.53335,1.06669533 -2.66668,1.73336133 -3.4,2.00000003 -0.66668,0.2000275 -1.03335,0.70002697 -1.1,1.49999997 -0.0667,0.7333588 0.0333,2.7666901 0.3,6.1 0.33332,4.7333491 0.63332,7.3000131 0.9,7.7000001 0.19998,0.400012 1.63331,0.466679 4.3,0.2 2.66664,-0.266654 4.79997,-0.666654 6.4,-1.2 2.1333,-0.733319 4.36663,-2.499984 6.7,-5.3000001 2.39996,-2.8666451 3.59996,-5.2333094 3.6,-7.1 -4e-5,-1.0666398 -0.50004,-2.09997207 -1.5,-3.09999997 -0.93337,-1.06663673 -2.13337,-1.89996923 -3.6,-2.50000003"
         style="font-size:100px;font-variant:normal;font-weight:500;font-stretch:normal;font-family:My_Unprofessional_Handwriting;-inkscape-font-specification:My_Unprofessional_Handwriting Medium"
         id="path3084" />
      <path
         d="m 684.63832,-24.920169 c 1.59999,-0.666613 3.23332,-0.366613 4.9,0.9 0.99998,0.866718 2.23331,2.533383 3.7,5 1.46664,2.400045 2.36664,4.333376 2.7,5.8 0.19998,0.933374 0.49998,1.833373 0.9,2.7 0.46664,0.8667045 0.83331,1.9333701 1.1,3.1999999 0.66664,3.4666988 1.73331,7.46669483 3.2,12 1.5333,4.4666858 3.06664,8.2666821 4.6,11.4000001 1.06663,2.133343 1.49997,3.666675 1.3,4.6 -0.13337,0.866673 -0.90003,1.23334 -2.3,1.1 -0.73336,-0.06666 -1.3667,-0.36666 -1.9,-0.9 -0.4667,-0.533325 -1.0667,-1.466658 -1.8,-2.8 -1.20003,-2.333321 -2.16669,-4.533319 -2.9,-6.6 l -1,-3.1000001 -3.2,0.2 c -2.13335,0.1333529 -4.76668,0.6000191 -7.9,1.4 l -4.7,1.2000001 -0.5,5.5 c -0.33334,3.333342 -0.63334,5.400006 -0.9,6.2 -0.26667,0.733338 -0.83334,1.100004 -1.7,1.1 -1.2,4e-6 -1.93334,-0.566662 -2.2,-1.7 -0.33334,-1.333326 -0.2,-5.499989 0.4,-12.5000001 0.86666,-9.66663847 2.03333,-17.6999638 3.5,-24.0999999 1.53332,-6.399951 3.09999,-9.933281 4.7,-10.6 m 7,14.6 c -0.33335,-1.39996 -1.10002,-3.099958 -2.3,-5.1 -1.13335,-1.999954 -1.93335,-2.999953 -2.4,-3 -0.40001,4.7e-5 -0.93335,1.166712 -1.6,3.5 -0.66668,2.266708 -1.26668,4.833372 -1.8,7.6999999 -0.46668,2.8000327 -0.80001,5.4333634 -1,7.90000003 -0.20001,2.46669177 -10e-6,3.86669037 0.6,4.19999997 0.53332,0.3333564 2.53332,0.06669 6,-0.8 3.46665,-0.8666416 5.29998,-1.5333076 5.5,-2 0.13331,-0.3999734 -0.0334,-1.46663897 -0.5,-3.2 -0.40002,-1.7333022 -0.90002,-3.6666336 -1.5,-5.8 -0.60002,-2.133296 -0.93335,-3.2666279 -1,-3.3999999"
         style="font-size:100px;font-variant:normal;font-weight:500;font-stretch:normal;font-family:My_Unprofessional_Handwriting;-inkscape-font-specification:My_Unprofessional_Handwriting Medium"
         id="path3086" />
      <path
         d="m 711.63676,-29.720169 c 0.73332,-0.799941 1.46666,-1.133274 2.2,-1 1.06666,0.200059 3.43332,3.300056 7.1,9.3 3.66665,5.933377 6.26664,10.866705 7.8,14.7999999 2.53331,6.66669493 4.2333,11.0666905 5.1,13.2 0.9333,2.0666863 1.59997,3.1666852 2,3.3 0.1333,0.066685 0.26663,-0.266648 0.4,-1 0.1333,-0.7999798 0.2333,-1.8666454 0.3,-3.2 0.0666,-1.399976 0.1333,-2.9999744 0.2,-4.79999997 0.0666,-1.7999708 0.1333,-3.69996893 0.2,-5.70000003 0.1333,-1.9999649 0.26663,-3.9999629 0.4,-5.9999999 0.19997,-1.999959 0.4333,-3.899957 0.7,-5.7 0.26663,-1.86662 0.56663,-3.499952 0.9,-4.9 0.39996,-1.399949 0.86663,-2.499948 1.4,-3.3 0.59996,-0.866613 1.2333,-1.299946 1.9,-1.3 2.53329,5.4e-5 3.13329,1.933386 1.8,5.8 -0.80004,2.200046 -1.30004,6.933375 -1.5,14.1999999 -0.13337,7.2666937 -0.26671,14.0000203 -0.4,20.2000001 -0.13337,6.200008 -0.5667,9.533338 -1.3,10 -1.60004,1.000003 -3.2667,-0.03333 -5,-3.1 -4.33336,-7.599985 -7.60002,-14.3999785 -9.8,-20.40000007 -1.73335,-4.79996763 -3.66669,-9.29996313 -5.8,-13.49999993 -2.13335,-4.199955 -3.53335,-6.299953 -4.2,-6.3 -0.60001,4.7e-5 -1.00001,1.633379 -1.2,4.9 -0.20001,3.266706 -0.30001,9.3000331 -0.3,18.0999999 -10e-6,8.0666831 -0.0667,13.1333451 -0.2,15.2000001 -0.13334,2.000007 -0.43334,3.100006 -0.9,3.3 -0.80001,0.266672 -1.56667,0.166672 -2.3,-0.3 -0.86667,-0.533327 -1.46667,-4.866656 -1.8,-13.0000001 -0.26667,-8.13330597 -0.20001,-16.3666311 0.2,-24.6999999 0.46666,-8.333281 1.16666,-13.033276 2.1,-14.1"
         style="font-size:100px;font-variant:normal;font-weight:500;font-stretch:normal;font-family:My_Unprofessional_Handwriting;-inkscape-font-specification:My_Unprofessional_Handwriting Medium"
         id="path3088" />
      <path
         d="m 765.03676,-33.320169 c 1.46664,-0.733271 2.66664,-1.266604 3.6,-1.6 0.99997,-0.399936 1.79997,-0.599936 2.4,-0.6 0.59997,6.4e-5 1.0333,0.16673 1.3,0.5 0.26664,0.333396 0.39997,0.866729 0.4,1.6 -3e-5,0.866727 -0.2667,1.566727 -0.8,2.1 -0.4667,0.466726 -1.63336,1.166725 -3.5,2.1 -3.00002,1.533389 -5.23336,2.966721 -6.7,4.3 -1.46669,1.333385 -2.96668,3.266717 -4.5,5.8 -4.13335,6.933374 -5.96668,12.966701 -5.5,18.0999999 0.33332,3.2666927 0.86666,5.7666902 1.6,7.5 0.73332,1.7333534 2.03332,3.6000181 3.9,5.6000001 2.33331,2.400014 4.59998,4.100012 6.8,5.1 2.26664,1.00001 4.93331,1.50001 8,1.5 4.3333,10e-6 7.76663,-0.933323 10.3,-2.8 2.59996,-1.866652 4.59995,-4.866649 6,-9.0000001 0.33329,-1.1999774 0.63329,-2.4666428 0.9,-3.8 0.33328,-1.3999734 0.49995,-2.49997227 0.5,-3.29999997 -5e-5,-0.86663733 -0.10005,-1.36663683 -0.3,-1.50000003 -0.20005,3e-5 -1.40005,0.4666962 -3.6,1.40000003 -2.66671,1.2000274 -6.03337,2.43335947 -10.1,3.69999997 -4.0667,1.2000237 -6.63336,1.8000231 -7.7,1.8 -1.13336,2.31e-5 -1.93336,-0.3333099 -2.4,-1 -0.40002,-0.6666419 -0.33336,-1.4666411 0.2,-2.4 0.33331,-0.3999731 1.03331,-0.83330597 2.1,-1.29999997 1.13331,-0.4666384 2.46664,-0.8999713 4,-1.3 1.59997,-0.46663713 2.66663,-0.79997013 3.2,-1.00000003 0.0666,-0.066636 1.2333,-0.4666361 3.5,-1.2 2.26663,-0.7999679 3.86663,-1.4333006 4.8,-1.9 1.19996,-0.6666328 2.93329,-1.466632 5.2,-2.4 l 3.4,-1.4 1.5,1.4 c 0.53328,0.600035 0.86661,1.3000343 1,2.1 0.19995,0.7333661 0.26661,2.1000314 0.2,4.1 -0.26672,5.6666904 -1.30005,10.2333525 -3.1,13.7000001 -1.80005,3.400012 -4.76671,6.433343 -8.9,9.1 -1.46671,0.866672 -2.70004,1.400005 -3.7,1.6 -1.00004,0.200005 -3.10003,0.300005 -6.3,0.3 -3.13336,5e-6 -5.30003,-0.09999 -6.5,-0.3 -1.20002,-0.199995 -2.76669,-0.766661 -4.7,-1.7 -2.53335,-1.266659 -5.03335,-3.09999 -7.5,-5.5 -2.46668,-2.399985 -4.20001,-4.699983 -5.2,-6.9000001 -0.93334,-2.0666455 -1.56667,-5.233309 -1.9,-9.49999997 -0.33334,-4.26663383 -0.20001,-7.43329733 0.4,-9.50000003 0.79999,-2.5999589 2.16666,-5.6999559 4.1,-9.2999999 1.99999,-3.599949 3.83332,-6.299946 5.5,-8.1 2.19998,-2.399942 4.89998,-4.433273 8.1,-6.1"
         style="font-size:100px;font-variant:normal;font-weight:500;font-stretch:normal;font-family:My_Unprofessional_Handwriting;-inkscape-font-specification:My_Unprofessional_Handwriting Medium"
         id="path3090" />
      <path
         d="m 801.73676,7.4798309 c 0.53332,-0.533312 0.89999,-0.7999784 1.1,-0.8 0.19999,2.16e-5 0.73332,0.2000214 1.6,0.6 0.86665,0.4666872 1.26665,1.1666865 1.2,2.1 -10e-6,0.9333511 -0.46668,1.6333511 -1.4,2.1000001 -1.26668,0.733349 -2.26668,0.500016 -3,-0.7 -0.73334,-1.1999814 -0.56668,-2.2999803 0.5,-3.3000001 m -4.6,-46.8999999 c 0.53333,-0.533265 1.19999,-0.666598 2,-0.4 0.79999,0.266734 1.36666,0.766734 1.7,1.5 0.79999,2.200064 1.86666,11.033389 3.2,26.5 0.46665,5.2000348 0.69999,8.5333648 0.7,9.9999999 -10e-6,1.40002873 -0.23335,2.33336113 -0.7,2.80000003 -0.73335,0.73335987 -1.50001,0.86669307 -2.3,0.39999997 -0.40001,-0.3333061 -0.73334,-0.76663897 -1,-1.29999997 -0.26668,-0.5999712 -0.53334,-1.66663683 -0.8,-3.20000003 -0.20001,-1.5333004 -0.36668,-3.0999655 -0.5,-4.7 -0.13334,-1.6666289 -0.40001,-4.2332929 -0.8,-7.6999999 -0.40001,-3.466619 -0.83334,-6.933283 -1.3,-10.4 -0.33334,-2.86661 -0.53334,-5.733273 -0.6,-8.6 -0.0667,-2.933268 0.0667,-4.566599 0.4,-4.9"
         style="font-size:100px;font-variant:normal;font-weight:500;font-stretch:normal;font-family:My_Unprofessional_Handwriting;-inkscape-font-specification:My_Unprofessional_Handwriting Medium"
         id="path3092" />
      <path
         d="m 850.46644,-26.120169 c 0.33333,-0.333279 1.46667,-0.933278 3.4,-1.8 1.93333,-0.933276 4.26666,-1.899942 7,-2.9 2.73332,-0.99994 5.53332,-1.433273 8.4,-1.3 2.93331,0.133394 5.19998,1.066726 6.8,2.8 1.53331,1.533389 2.19997,3.466721 2,5.8 -0.20003,2.266716 -0.73336,4.333381 -1.6,6.2 -0.86669,1.800044 -1.80002,3.500042 -2.8,5.1 -1.00002,1.533372 -1.50002,2.3667047 -1.5,2.4999999 -2e-5,0.2000378 0.96665,0.4333709 2.9,0.7 1.79997,0.2667037 3.79997,1.0667029 6,2.4 2.26663,1.3333669 3.8333,2.6333656 4.7,3.9 0.86663,1.333363 1.26663,3.10002793 1.2,5.3 -0.0667,2.2000235 -0.60003,4.1333549 -1.6,5.8 -1.80003,2.9333501 -3.6667,5.3333481 -5.6,7.2000001 -1.93336,1.800011 -3.80002,3.033343 -5.6,3.7 -1.73335,0.666675 -3.36669,1.133341 -4.9,1.4 -1.53335,0.266674 -3.13335,0.500007 -4.8,0.7 -1.60001,0.200007 -2.86668,0.53334 -3.8,1 -1.06667,0.533339 -1.86667,0.733338 -2.4,0.6 -0.53334,-0.199995 -1.76667,-1.033327 -3.7,-2.5 -2.66667,-2.066657 -4,-3.466655 -4,-4.2 0,-0.799987 0.33333,-1.43332 1,-1.9 0.66667,-0.533319 1.33333,-0.699985 2,-0.5 0.73333,0.266681 1.23333,0.166681 1.5,-0.3 0.26666,-0.466652 0.0333,-3.566648 -0.7,-9.3000001 -0.66667,-5.7333036 -1.4,-10.4999655 -2.2,-14.2999999 -1.46667,-7.133288 -2.3,-11.433284 -2.5,-12.9 -0.13333,-1.533281 0.13334,-2.599946 0.8,-3.2 m 21.2,0.2 c -1.13335,-0.933278 -2.40002,-1.366611 -3.8,-1.3 -1.33335,0.06672 -3.63335,0.666721 -6.9,1.8 -2.00001,0.733386 -3.40001,1.333386 -4.2,1.8 -0.73334,0.466718 -1.13334,1.000051 -1.2,1.6 -0.13334,0.800049 0.13333,3.033381 0.8,6.7 0.66666,3.60004 1.26666,6.1000374 1.8,7.4999999 0.33333,0.8667019 0.63333,1.3667014 0.9,1.5 0.26666,0.066701 0.89999,-0.066632 1.9,-0.4 1.79999,-0.5999644 4.33332,-3.1332952 7.6,-7.5999999 3.26665,-4.533286 4.89998,-7.666616 4.9,-9.4 -2e-5,-0.533281 -0.60002,-1.266613 -1.8,-2.2 m 5.1,22.7999999 c -1.00002,-0.3333016 -2.63336,-0.5333014 -4.9,-0.6 -2.20002,-0.066635 -3.73335,0.066699 -4.6,0.4 -0.53335,0.2000314 -1.56668,0.8333641 -3.1,1.9 -1.53334,1.06669533 -2.66668,1.73336133 -3.4,2.00000003 -0.66668,0.2000275 -1.03334,0.70002697 -1.1,1.49999997 -0.0667,0.7333588 0.0333,2.7666901 0.3,6.1 0.33332,4.7333491 0.63332,7.3000131 0.9,7.7000001 0.19999,0.400012 1.63332,0.466679 4.3,0.2 2.66665,-0.266654 4.79998,-0.666654 6.4,-1.2 2.13331,-0.733319 4.36664,-2.499984 6.7,-5.3000001 2.39997,-2.8666451 3.59997,-5.2333094 3.6,-7.1 -3e-5,-1.0666398 -0.50003,-2.09997207 -1.5,-3.09999997 -0.93336,-1.06663673 -2.13336,-1.89996923 -3.6,-2.50000003"
         style="font-size:100px;font-variant:normal;font-weight:500;font-stretch:normal;font-family:My_Unprofessional_Handwriting;-inkscape-font-specification:My_Unprofessional_Handwriting Medium"
         id="path3094" />
      <path
         d="m 897.72426,-24.920169 c 1.59998,-0.666613 3.23332,-0.366613 4.9,0.9 0.99998,0.866718 2.23331,2.533383 3.7,5 1.46664,2.400045 2.36664,4.333376 2.7,5.8 0.19997,0.933374 0.49997,1.833373 0.9,2.7 0.46664,0.8667045 0.83331,1.9333701 1.1,3.1999999 0.66664,3.4666988 1.7333,7.46669483 3.2,12 1.5333,4.4666858 3.06663,8.2666821 4.6,11.4000001 1.06663,2.133343 1.49996,3.666675 1.3,4.6 -0.13337,0.866673 -0.90004,1.23334 -2.3,1.1 -0.73337,-0.06666 -1.3667,-0.36666 -1.9,-0.9 -0.4667,-0.533325 -1.0667,-1.466658 -1.8,-2.8 -1.20003,-2.333321 -2.1667,-4.533319 -2.9,-6.6 l -1,-3.1000001 -3.2,0.2 c -2.13335,0.1333529 -4.76669,0.6000191 -7.9,1.4 l -4.7,1.2000001 -0.5,5.5 c -0.33334,3.333342 -0.63334,5.400006 -0.9,6.2 -0.26668,0.733338 -0.83334,1.100004 -1.7,1.1 -1.20001,4e-6 -1.93334,-0.566662 -2.2,-1.7 -0.33334,-1.333326 -0.20001,-5.499989 0.4,-12.5000001 0.86666,-9.66663847 2.03333,-17.6999638 3.5,-24.0999999 1.53332,-6.399951 3.09999,-9.933281 4.7,-10.6 m 7,14.6 c -0.33335,-1.39996 -1.10002,-3.099958 -2.3,-5.1 -1.13335,-1.999954 -1.93335,-2.999953 -2.4,-3 -0.40002,4.7e-5 -0.93335,1.166712 -1.6,3.5 -0.66668,2.266708 -1.26668,4.833372 -1.8,7.6999999 -0.46668,2.8000327 -0.80001,5.4333634 -1,7.90000003 -0.20001,2.46669177 -1e-5,3.86669037 0.6,4.19999997 0.53332,0.3333564 2.53332,0.06669 6,-0.8 3.46664,-0.8666416 5.29998,-1.5333076 5.5,-2 0.13331,-0.3999734 -0.0334,-1.46663897 -0.5,-3.2 -0.40002,-1.7333022 -0.90002,-3.6666336 -1.5,-5.8 -0.60002,-2.133296 -0.93335,-3.2666279 -1,-3.3999999"
         style="font-size:100px;font-variant:normal;font-weight:500;font-stretch:normal;font-family:My_Unprofessional_Handwriting;-inkscape-font-specification:My_Unprofessional_Handwriting Medium"
         id="path3096" />
      <path
         d="m 924.72269,-29.720169 c 0.73333,-0.799941 1.46666,-1.133274 2.2,-1 1.06666,0.200059 3.43333,3.300056 7.1,9.3 3.66665,5.933377 6.26665,10.866705 7.8,14.7999999 2.53331,6.66669493 4.23331,11.0666905 5.1,13.2 0.93331,2.0666863 1.59998,3.1666852 2,3.3 0.13331,0.066685 0.26664,-0.266648 0.4,-1 0.13331,-0.7999798 0.23331,-1.8666454 0.3,-3.2 0.0666,-1.399976 0.13331,-2.9999744 0.2,-4.79999997 0.0666,-1.7999708 0.13331,-3.69996893 0.2,-5.70000003 0.13331,-1.9999649 0.26664,-3.9999629 0.4,-5.9999999 0.19997,-1.999959 0.43331,-3.899957 0.7,-5.7 0.26664,-1.86662 0.56664,-3.499952 0.9,-4.9 0.39997,-1.399949 0.86664,-2.499948 1.4,-3.3 0.59997,-0.866613 1.2333,-1.299946 1.9,-1.3 2.5333,5.4e-5 3.1333,1.933386 1.8,5.8 -0.80003,2.200046 -1.30003,6.933375 -1.5,14.1999999 -0.13336,7.2666937 -0.2667,14.0000203 -0.4,20.2000001 -0.13336,6.200008 -0.5667,9.533338 -1.3,10 -1.60003,1.000003 -3.26669,-0.03333 -5,-3.1 -4.33335,-7.599985 -7.60002,-14.3999785 -9.8,-20.40000007 -1.73335,-4.79996763 -3.66668,-9.29996313 -5.8,-13.49999993 -2.13334,-4.199955 -3.53334,-6.299953 -4.2,-6.3 -0.6,4.7e-5 -1,1.633379 -1.2,4.9 -0.2,3.266706 -0.3,9.3000331 -0.3,18.0999999 0,8.0666831 -0.0667,13.1333451 -0.2,15.2000001 -0.13334,2.000007 -0.43334,3.100006 -0.9,3.3 -0.8,0.266672 -1.56667,0.166672 -2.3,-0.3 -0.86667,-0.533327 -1.46667,-4.866656 -1.8,-13.0000001 -0.26666,-8.13330597 -0.2,-16.3666311 0.2,-24.6999999 0.46667,-8.333281 1.16667,-13.033276 2.1,-14.1"
         style="font-size:100px;font-variant:normal;font-weight:500;font-stretch:normal;font-family:My_Unprofessional_Handwriting;-inkscape-font-specification:My_Unprofessional_Handwriting Medium"
         id="path3098" />
      <path
         d="m 978.12269,-33.320169 c 1.46665,-0.733271 2.66665,-1.266604 3.6,-1.6 0.99998,-0.399936 1.79998,-0.599936 2.4,-0.6 0.59998,6.4e-5 1.03331,0.16673 1.3,0.5 0.26664,0.333396 0.39998,0.866729 0.4,1.6 -2e-5,0.866727 -0.26669,1.566727 -0.8,2.1 -0.46669,0.466726 -1.63336,1.166725 -3.5,2.1 -3.00002,1.533389 -5.23335,2.966721 -6.7,4.3 -1.46668,1.333385 -2.96668,3.266717 -4.5,5.8 -4.13334,6.933374 -5.96667,12.966701 -5.5,18.0999999 0.33333,3.2666927 0.86666,5.7666902 1.6,7.5 0.73333,1.7333534 2.03333,3.6000181 3.9,5.6000001 2.33332,2.400014 4.59999,4.100012 6.8,5.1 2.26665,1.00001 4.93331,1.50001 8,1.5 4.33331,10e-6 7.76664,-0.933323 10.3,-2.8 2.59996,-1.866652 4.60001,-4.866649 6.00001,-9.0000001 0.3333,-1.1999774 0.6333,-2.4666428 0.9,-3.8 0.3333,-1.3999734 0.4999,-2.49997227 0.5,-3.29999997 -1e-4,-0.86663733 -0.1001,-1.36663683 -0.3,-1.50000003 -0.2001,3e-5 -1.4,0.4666962 -3.60001,1.40000003 -2.6667,1.2000274 -6.03336,2.43335947 -10.1,3.69999997 -4.06669,1.2000237 -6.63335,1.8000231 -7.7,1.8 -1.13335,2.31e-5 -1.93335,-0.3333099 -2.4,-1 -0.40002,-0.6666419 -0.33335,-1.4666411 0.2,-2.4 0.33332,-0.3999731 1.03332,-0.83330597 2.1,-1.29999997 1.13331,-0.4666384 2.46664,-0.8999713 4,-1.3 1.59998,-0.46663713 2.66664,-0.79997013 3.2,-1.00000003 0.0666,-0.066636 1.23331,-0.4666361 3.5,-1.2 2.26663,-0.7999679 3.86663,-1.4333006 4.8,-1.9 1.19996,-0.6666328 2.9333,-1.466632 5.20001,-2.4 l 3.4,-1.4 1.5,1.4 c 0.5333,0.600035 0.8666,1.3000343 1,2.1 0.1999,0.7333661 0.2666,2.1000314 0.2,4.1 -0.2667,5.6666904 -1.3001,10.2333525 -3.1,13.7000001 -1.8001,3.400012 -4.76671,6.433343 -8.90001,9.1 -1.4667,0.866672 -2.70003,1.400005 -3.7,1.6 -1.00003,0.200005 -3.10003,0.300005 -6.3,0.3 -3.13335,5e-6 -5.30002,-0.09999 -6.5,-0.3 -1.20002,-0.199995 -2.76668,-0.766661 -4.7,-1.7 -2.53334,-1.266659 -5.03334,-3.09999 -7.5,-5.5 -2.46667,-2.399985 -4.2,-4.699983 -5.2,-6.9000001 -0.93333,-2.0666455 -1.56667,-5.233309 -1.9,-9.49999997 -0.33333,-4.26663383 -0.2,-7.43329733 0.4,-9.50000003 0.8,-2.5999589 2.16667,-5.6999559 4.1,-9.2999999 2,-3.599949 3.83333,-6.299946 5.5,-8.1 2.19999,-2.399942 4.89999,-4.433273 8.1,-6.1"
         style="font-size:100px;font-variant:normal;font-weight:500;font-stretch:normal;font-family:My_Unprofessional_Handwriting;-inkscape-font-specification:My_Unprofessional_Handwriting Medium"
         id="path3100" />
      <path
         d="m 1014.8227,7.4798309 c 0.5333,-0.533312 0.9,-0.7999784 1.1,-0.8 0.2,2.16e-5 0.7333,0.2000214 1.6,0.6 0.8666,0.4666872 1.2666,1.1666865 1.2,2.1 0,0.9333511 -0.4667,1.6333511 -1.4,2.1000001 -1.2667,0.733349 -2.2667,0.500016 -3,-0.7 -0.7333,-1.1999814 -0.5667,-2.2999803 0.5,-3.3000001 m -4.6,-46.8999999 c 0.5333,-0.533265 1.2,-0.666598 2,-0.4 0.8,0.266734 1.3667,0.766734 1.7,1.5 0.8,2.200064 1.8667,11.033389 3.2,26.5 0.4667,5.2000348 0.7,8.5333648 0.7,9.9999999 0,1.40002873 -0.2333,2.33336113 -0.7,2.80000003 -0.7333,0.73335987 -1.5,0.86669307 -2.3,0.39999997 -0.4,-0.3333061 -0.7333,-0.76663897 -1,-1.29999997 -0.2667,-0.5999712 -0.5333,-1.66663683 -0.8,-3.20000003 -0.2,-1.5333004 -0.3667,-3.0999655 -0.5,-4.7 -0.1333,-1.6666289 -0.4,-4.2332929 -0.8,-7.6999999 -0.4,-3.466619 -0.8333,-6.933283 -1.3,-10.4 -0.3333,-2.86661 -0.5333,-5.733273 -0.6,-8.6 -0.067,-2.933268 0.067,-4.566599 0.4,-4.9"
         style="font-size:100px;font-variant:normal;font-weight:500;font-stretch:normal;font-family:My_Unprofessional_Handwriting;-inkscape-font-specification:My_Unprofessional_Handwriting Medium"
         id="path3102" />
    </g>
    <flowRoot
       xml:space="preserve"
       id="flowRoot3023"
       style="font-size:40px;font-style:normal;font-weight:normal;line-height:125%;letter-spacing:0px;word-spacing:0px;fill:#000000;fill-opacity:1;stroke:none;font-family:Sans"
       transform="translate(23.462731,142.94018)"><flowRegion
         id="flowRegion3025"><rect
           id="rect3027"
           width="308.29855"
           height="123.03658"
           x="722.66315"
           y="-242.56107" /></flowRegion><flowPara
         id="flowPara3029" /></flowRoot>  </g>
</svg>
