<?xml version="1.0" encoding="UTF-8" standalone="no"?>
<!-- Created with Inkscape (http://www.inkscape.org/) -->

<svg
   xmlns:dc="http://purl.org/dc/elements/1.1/"
   xmlns:cc="http://creativecommons.org/ns#"
   xmlns:rdf="http://www.w3.org/1999/02/22-rdf-syntax-ns#"
   xmlns:svg="http://www.w3.org/2000/svg"
   xmlns="http://www.w3.org/2000/svg"
   xmlns:sodipodi="http://sodipodi.sourceforge.net/DTD/sodipodi-0.dtd"
   xmlns:inkscape="http://www.inkscape.org/namespaces/inkscape"
   width="3840"
   height="2160"
   id="svg4279"
   version="1.1"
   inkscape:version="0.48.5 r10040"
   sodipodi:docname="click.svg">
  <defs
     id="defs4281" />
  <sodipodi:namedview
     id="base"
     pagecolor="#ffffff"
     bordercolor="#666666"
     borderopacity="1.0"
     inkscape:pageopacity="0.0"
     inkscape:pageshadow="2"
     inkscape:zoom="0.12374369"
     inkscape:cx="1629.577"
     inkscape:cy="1046.3765"
     inkscape:document-units="px"
     inkscape:current-layer="layer1"
     showgrid="false"
     fit-margin-top="0"
     fit-margin-left="0"
     fit-margin-right="0"
     fit-margin-bottom="0"
     inkscape:window-width="960"
     inkscape:window-height="1059"
     inkscape:window-x="960"
     inkscape:window-y="21"
     inkscape:window-maximized="0" />
  <metadata
     id="metadata4284">
    <rdf:RDF>
      <cc:Work
         rdf:about="">
        <dc:format>image/svg+xml</dc:format>
        <dc:type
           rdf:resource="http://purl.org/dc/dcmitype/StillImage" />
        <dc:title></dc:title>
      </cc:Work>
    </rdf:RDF>
  </metadata>
  <g
     inkscape:label="Layer 1"
     inkscape:groupmode="layer"
     id="layer1"
     transform="translate(-175.80409,1495.856)">
    <g
       style="font-size:40px;font-style:normal;font-weight:normal;line-height:125%;letter-spacing:0px;word-spacing:0px;fill:#000000;fill-opacity:1;stroke:none;font-family:Sans"
       id="text2985">
      <path
         d="m 1181.9444,-1153.2939 c 7.7333,-3.7331 12.9333,-5.5998 15.6,-5.6 2.6666,-0.2664 4.9332,1.3336 6.8,4.8 1.8666,4.0002 1.7332,7.7336 -0.4,11.2 -1.8668,3.2002 -5.3334,5.3336 -10.4,6.4 -4.8001,1.0669 -12.8001,7.4669 -24,19.2 -11.2,11.7335 -20.5334,23.7335 -28,36 -5.3334,8.8002 -8.5334,15.2001 -9.6,19.2 -0.8,3.7335 -1.2,12.5335 -1.2,26.4 0,12.0001 0.4,20.4001 1.2,25.2 0.8,4.8001 2.6666,10.1334 5.6,15.99999 4.5333,9.06674 10,16.00007 16.4,20.8 4.5333,3.46673 8.8,5.60006 12.8,6.4 3.9999,0.53339 12.9333,0.80006 26.8,0.8 9.5999,6e-5 17.0666,-0.26661 22.4,-0.8 5.3332,-0.53328 8.5332,-1.19994 9.6,-2 1.3332,-0.79994 3.1999,-1.73327 5.6,-2.8 2.3999,-1.0666 5.4665,-1.99994 9.2,-2.8 4.2665,-0.79993 8.9332,-2.2666 14,-4.4 5.3332,-2.13326 9.3332,-3.99993 12,-5.6 2.9332,-1.59992 6.1332,-2.79992 9.6,-3.6 3.7332,-1.06659 6.1332,-0.66659 7.2,1.2 2.6665,2.13341 3.9998,4.93341 4,8.4 0.2665,3.20007 -0.8002,5.7334 -3.2,7.6 -3.7335,3.20006 -12.8002,7.46672 -27.2,12.8 -14.1335,5.06671 -30.0001,9.33337 -47.6,12.8 -17.3334,3.20003 -32.4001,2.80003 -45.2,-1.2 -13.6,-4.53329 -24,-10.26662 -31.2,-17.2 -6.9333,-7.19994 -13.0667,-17.8666 -18.4,-32 -3.4667,-9.06659 -5.2,-22.53319 -5.2,-40.39999 0,-18.1332 1.7333,-30.9332 5.2,-38.4 7.2,-15.4665 17.4666,-31.0665 30.8,-46.8 13.6,-15.7331 25.8666,-26.2664 36.8,-31.6"
         style="font-size:400px;font-variant:normal;font-weight:500;font-stretch:normal;font-family:My_Unprofessional_Handwriting;-inkscape-font-specification:My_Unprofessional_Handwriting Medium"
         id="path2985" />
      <path
         d="m 1298.6632,-1137.6939 c 2.9333,-3.1998 5.0666,-4.7998 6.4,-4.8 1.3333,2e-4 3.3333,1.4669 6,4.4 3.1999,3.7335 7.8666,19.7335 14,48 6.1333,28.0001 12.9332,56.0001 20.4,84 7.7332,27.73339 15.1999,43.86671 22.4,48.39999 2.6665,1.86671 4.9332,2.93338 6.8,3.2 2.1332,4e-5 4.7999,-0.66662 8,-2 5.5999,-2.39995 9.9999,-5.33328 13.2,-8.8 2.9332,-3.46661 6.1332,-5.06661 9.6,-4.8 3.4665,6e-5 6.1332,1.73339 8,5.2 1.3332,2.66672 1.7332,4.80005 1.2,6.4 -0.2668,1.33338 -1.7335,3.46671 -4.4,6.4 -8.8002,9.60003 -18.4001,15.46669 -28.8,17.6 -10.4001,2.13336 -18.9334,0.13336 -25.6,-6 -6.6668,-6.1333 -12.0001,-13.19996 -16,-21.2 -4.0001,-8.26661 -7.3334,-17.0666 -10,-26.4 -2.6667,-9.59991 -4.4001,-15.33329 -5.2,-17.19999 -1.6001,-3.7332 -4.9334,-16.6666 -10,-38.8 l -14,-61.2 c -2.9334,-12.7998 -4.5334,-20.7998 -4.8,-24 -0.2667,-3.4665 0.6666,-6.2665 2.8,-8.4"
         style="font-size:400px;font-variant:normal;font-weight:500;font-stretch:normal;font-family:My_Unprofessional_Handwriting;-inkscape-font-specification:My_Unprofessional_Handwriting Medium"
         id="path2987" />
      <path
         d="m 1428.0069,-1084.4939 c 3.2,-1.8665 5.3333,-2.6665 6.4,-2.4 1.3333,0.2668 3.3333,1.8668 6,4.8 2.6667,2.9335 4.5333,14.6668 5.6,35.2 1.0666,22.6668 3.7333,42.1334 8,58.39999 4.5333,16.00006 9.4666,25.06672 14.8,27.2 2.9333,1.06672 4.1333,3.60005 3.6,7.6 -0.5334,4.00004 -2.4,7.0667 -5.6,9.2 -3.2,1.8667 -7.3334,0.93337 -12.4,-2.8 -6.6667,-5.06662 -11.8667,-12.53328 -15.6,-22.4 -3.7333,-10.13326 -7.2,-25.73325 -10.4,-46.79999 -3.4667,-24.5332 -5.2,-41.4665 -5.2,-50.8 0,-9.3332 1.6,-15.0665 4.8,-17.2 m 8.8,-40.4 c -3.7333,2e-4 -6.4,-1.4665 -8,-4.4 -1.3333,-3.1998 -1.2,-6.2665 0.4,-9.2 1.8667,-2.9331 4.6667,-4.1331 8.4,-3.6 2.4,0.2669 4,1.0669 4.8,2.4 0.8,1.0669 1.2,3.3335 1.2,6.8 0,3.4669 -0.4,5.7335 -1.2,6.8 -0.8,0.8002 -2.6667,1.2002 -5.6,1.2"
         style="font-size:400px;font-variant:normal;font-weight:500;font-stretch:normal;font-family:My_Unprofessional_Handwriting;-inkscape-font-specification:My_Unprofessional_Handwriting Medium"
         id="path2989" />
      <path
         d="m 1504.2382,-1056.0939 c 5.0666,-6.3999 8.7999,-10.3999 11.2,-12 2.3999,-1.5999 5.4666,-2.2665 9.2,-2 6.1332,0.5335 9.1999,2.8001 9.2,6.8 0.2666,3.7335 -2.5334,8.6668 -8.4,14.8 -6.1334,6.1335 -11.2001,12.9334 -15.2,20.4 -4.0001,7.4668 -6.5334,14.5334 -7.6,21.2 -1.0667,6.6667 -1.2001,12.80007 -0.4,18.39999 1.0666,5.33341 3.4666,9.7334 7.2,13.2 3.7333,3.20006 8.6666,4.80006 14.8,4.8 14.3999,6e-5 30.2665,-11.0666 47.6,-33.19999 6.9332,-8.7999 11.8665,-13.9999 14.8,-15.6 3.1998,-1.5999 6.2665,-0.6666 9.2,2.8 2.6665,3.2001 2.7998,7.3334 0.4,12.4 -2.1335,5.06675 -7.3335,12.1334 -15.6,21.19999 -34.9334,39.20003 -64.8001,44.80003 -89.6,16.8 -9.0667,-10.39993 -12.4,-23.86659 -10,-40.39999 2.4,-16.7999 10.1333,-33.3332 23.2,-49.6"
         style="font-size:400px;font-variant:normal;font-weight:500;font-stretch:normal;font-family:My_Unprofessional_Handwriting;-inkscape-font-specification:My_Unprofessional_Handwriting Medium"
         id="path2991" />
      <path
         d="m 1607.2194,-1141.6939 c 2.1333,-2.3998 5.4667,-3.5998 10,-3.6 4.5333,-0.2664 7.0667,0.8002 7.6,3.2 0.5333,1.3336 1.8667,7.2002 4,17.6 2.1333,10.1335 4.4,19.7335 6.8,28.8 2.4,8.0002 4.6666,17.0668 6.8,27.2 2.4,10.1335 4.1333,18.1335 5.2,24 1.3333,5.8668 2.2666,9.0668 2.8,9.6 0.5333,0.5334 3.4666,-1.5999 8.8,-6.4 5.5999,-4.7999 11.7333,-9.9999 18.4,-15.6 6.6666,-5.5999 13.4666,-9.5999 20.4,-12 7.1999,-2.3998 12.5332,-0.9332 16,4.4 1.8666,2.9335 1.8666,6.1335 0,9.6 -1.8668,3.2001 -4.9334,5.3335 -9.2,6.4 -3.7334,1.0668 -9.8668,4.6668 -18.4,10.8 -5.3334,3.7334 -8.6667,6.5334 -10,8.4 -1.3334,1.6001 -1.2001,3.2001 0.4,4.8 2.1333,2.6668 4.2666,4.0001 6.4,4 1.5999,1e-4 13.3332,8.5334 35.2,25.59999 22.1332,17.06673 34.7999,26.13339 38,27.2 3.9999,1.60006 6.5332,3.86672 7.6,6.8 1.3332,2.93338 0.9332,5.73338 -1.2,8.4 -6.1335,7.4667 -16.5335,5.33337 -31.2,-6.4 -24.2668,-19.19993 -40.2667,-31.46659 -48,-36.8 -7.7334,-5.59989 -13.2001,-8.39989 -16.4,-8.39999 -5.0667,10e-5 -8,1.8667 -8.8,5.59999 -0.5334,3.73342 0.4,12.13341 2.8,25.2 2.6666,13.06672 3.5999,21.60004 2.8,25.6 -0.5334,3.73337 -3.3334,5.20003 -8.4,4.4 -2.6667,-0.26663 -4.9334,-1.3333 -6.8,-3.2 -1.6,-1.86663 -3.0667,-5.06663 -4.4,-9.6 -1.3334,-4.53328 -2.5334,-8.93328 -3.6,-13.2 -0.8,-4.53327 -2.1334,-11.19993 -4,-20 -1.6,-9.06658 -3.2,-17.19989 -4.8,-24.39999 -0.5334,-3.1999 -1.6,-8.6666 -3.2,-16.4 -1.6,-7.9999 -3.6,-17.5999 -6,-28.8 -2.4,-11.1999 -5.4667,-24.1332 -9.2,-38.8 -3.7333,-15.9998 -6.1333,-26.9331 -7.2,-32.8 -0.8,-5.8665 -0.5333,-9.5998 0.8,-11.2"
         style="font-size:400px;font-variant:normal;font-weight:500;font-stretch:normal;font-family:My_Unprofessional_Handwriting;-inkscape-font-specification:My_Unprofessional_Handwriting Medium"
         id="path2993" />
      <path
         d="m 1968.3757,-1102.0939 c 1.0666,-2.6665 3.1999,-4.1331 6.4,-4.4 3.4666,-0.2665 6.3999,0.8002 8.8,3.2 2.3999,2.1335 3.5999,7.2002 3.6,15.2 -10e-5,8.0002 1.0666,16.8002 3.2,26.4 2.1332,9.3335 4.1332,14.4001 6,15.2 1.3332,0.5335 5.1999,-0.2665 11.6,-2.4 6.3999,-2.1332 12.9332,-4.2665 19.6,-6.4 6.6665,-2.1332 13.1999,-3.4665 19.6,-4 6.3998,-0.5332 10.1332,0.9335 11.2,4.4 1.3332,3.4668 0.7998,6.6668 -1.6,9.6 -2.1335,2.9335 -5.6002,5.0668 -10.4,6.4 -5.8668,1.6001 -10.5335,2.9334 -14,4 -3.2001,1.0668 -6.8001,2.1334 -10.8,3.2 -3.7335,1.0668 -6.5335,2.1334 -8.4,3.2 -1.6001,0.8001 -3.4668,1.6001 -5.6,2.4 -2.1334,0.8001 -3.6001,1.7334 -4.4,2.8 -0.5334,1.0668 -1.2001,2.1334 -2,3.2 -0.8001,0.8001 -1.3334,2.0001 -1.6,3.6 -1e-4,1.3334 -1e-4,2.6668 0,4 -1e-4,1.0668 0.1332,2.6668 0.4,4.8 1.5999,19.46673 2.9332,31.86672 4,37.19999 1.3332,5.06672 3.7332,9.73338 7.2,14 4.7999,5.60004 10.2665,8.2667 16.4,8 6.3999,-0.26663 14.2665,-3.46663 23.6,-9.6 16.5332,-11.19994 25.4665,-11.46661 26.8,-0.8 0.5332,4.80004 -1.8668,9.20004 -7.2,13.2 -14.4002,10.13336 -28.2668,15.60002 -41.6,16.4 -13.0668,0.80002 -24.0001,-2.93331 -32.8,-11.2 -3.7334,-3.7333 -7.2001,-10.39996 -10.4,-20 -2.9334,-9.59994 -4.9334,-20.79993 -6,-33.6 l -2,-18.79999 -8.8,2 c -5.6001,1.6001 -11.7334,2.4001 -18.4,2.4 -4.0001,0.2668 -6.6667,1e-4 -8,-0.8 -1.0667,-0.7999 -1.6,-2.5332 -1.6,-5.2 0,-3.1999 1.4666,-5.8666 4.4,-8 3.1999,-2.3999 9.8666,-5.8666 20,-10.4 4.7999,-1.8666 7.5999,-3.3332 8.4,-4.4 0.7999,-1.3332 0.3999,-3.3332 -1.2,-6 -1.6001,-3.4665 -3.0667,-13.3332 -4.4,-29.6 -1.0667,-16.2665 -1.0667,-25.9998 0,-29.2"
         style="font-size:400px;font-variant:normal;font-weight:500;font-stretch:normal;font-family:My_Unprofessional_Handwriting;-inkscape-font-specification:My_Unprofessional_Handwriting Medium"
         id="path2995" />
      <path
         d="m 2125.2882,-1087.6939 c 12.2666,-3.9998 22.5332,-5.1998 30.8,-3.6 8.5332,1.6002 17.3332,6.5335 26.4,14.8 5.0665,4.8002 8.9332,10.0001 11.6,15.6 2.6665,5.3335 5.3332,13.8668 8,25.6 6.3998,28.2668 5.5998,51.7334 -2.4,70.39999 -7.7335,18.40004 -21.6001,29.73336 -41.6,34 -14.4001,2.93335 -27.0668,1.20002 -38,-5.2 -10.9334,-6.66663 -19.4667,-17.73329 -25.6,-33.2 -5.0667,-11.99993 -7.7334,-26.66658 -8,-43.99999 -0.2667,-17.5999 1.7333,-30.5332 6,-38.8 3.7333,-6.6665 5.5999,-11.1999 5.6,-13.6 -1e-4,-3.1999 2.7999,-7.0665 8.4,-11.6 5.8666,-4.5332 12.1333,-7.9998 18.8,-10.4 m 39.2,21.6 c -5.0668,-3.4665 -11.4668,-4.9332 -19.2,-4.4 -7.7334,0.5335 -14.1334,2.9335 -19.2,7.2 -6.1334,5.0668 -10.5334,10.4001 -13.2,16 -2.4001,5.6001 -4.1334,13.7334 -5.2,24.4 -1.0667,10.9334 -0.8001,20.9334 0.8,29.99999 1.8666,9.06674 4.3999,16.26673 7.6,21.6 3.4666,5.33339 7.1999,9.86672 11.2,13.6 4.2666,3.46671 7.8666,5.86671 10.8,7.2 2.9332,1.33337 5.0666,2.00004 6.4,2 6.1332,4e-5 12.1332,-1.73329 18,-5.2 6.1332,-3.46662 11.1999,-8.13328 15.2,-14 3.4665,-5.33327 5.4665,-9.8666 6,-13.6 0.5332,-3.73326 0.5332,-12.79992 0,-27.19999 -0.5335,-16.2666 -2.4001,-28.7999 -5.6,-37.6 -2.9335,-8.7999 -7.4668,-15.4665 -13.6,-20"
         style="font-size:400px;font-variant:normal;font-weight:500;font-stretch:normal;font-family:My_Unprofessional_Handwriting;-inkscape-font-specification:My_Unprofessional_Handwriting Medium"
         id="path2997" />
      <path
         d="m 2449.0007,-1084.8939 c 6.1332,-4.2665 11.5999,-6.5332 16.4,-6.8 4.7999,-0.2665 8.2665,1.4668 10.4,5.2 1.5999,2.6668 1.7332,4.9335 0.4,6.8 -1.3335,1.6002 -7.7335,6.8002 -19.2,15.6 -6.9334,5.3335 -10.0001,10.5335 -9.2,15.6 0.7999,5.0668 5.9999,13.2001 15.6,24.4 13.0665,15.2001 20.9332,27.33341 23.6,36.39999 2.9332,9.06673 1.7332,18.00006 -3.6,26.8 -10.4001,16.53337 -24.0001,24.80003 -40.8,24.8 -7.7334,3e-5 -14.2668,-1.06664 -19.6,-3.2 -5.3334,-2.1333 -13.7334,-6.79996 -25.2,-14 -8.2667,-5.59995 -13.3334,-9.99995 -15.2,-13.2 -1.6,-3.46661 -0.5334,-6.93327 3.2,-10.4 2.6666,-2.6666 4.9333,-3.73326 6.8,-3.2 2.1333,0.5334 7.4666,3.7334 16,9.6 22.6666,15.20004 39.3332,17.73338 50,7.6 10.3999,-9.59994 9.9999,-21.19993 -1.2,-34.8 -14.6668,-18.13319 -23.3334,-29.33319 -26,-33.59999 -2.4001,-4.5332 -3.6001,-10.1332 -3.6,-16.8 -10e-5,-14.1332 7.0666,-26.3998 21.2,-36.8"
         style="font-size:400px;font-variant:normal;font-weight:500;font-stretch:normal;font-family:My_Unprofessional_Handwriting;-inkscape-font-specification:My_Unprofessional_Handwriting Medium"
         id="path2999" />
      <path
         d="m 2523.8444,-1102.0939 c 1.0666,-2.6665 3.2,-4.1331 6.4,-4.4 3.4666,-0.2665 6.4,0.8002 8.8,3.2 2.4,2.1335 3.6,7.2002 3.6,15.2 0,8.0002 1.0666,16.8002 3.2,26.4 2.1333,9.3335 4.1333,14.4001 6,15.2 1.3333,0.5335 5.1999,-0.2665 11.6,-2.4 6.3999,-2.1332 12.9333,-4.2665 19.6,-6.4 6.6666,-2.1332 13.1999,-3.4665 19.6,-4 6.3999,-0.5332 10.1332,0.9335 11.2,4.4 1.3332,3.4668 0.7999,6.6668 -1.6,9.6 -2.1334,2.9335 -5.6001,5.0668 -10.4,6.4 -5.8668,1.6001 -10.5334,2.9334 -14,4 -3.2001,1.0668 -6.8001,2.1334 -10.8,3.2 -3.7334,1.0668 -6.5334,2.1334 -8.4,3.2 -1.6001,0.8001 -3.4667,1.6001 -5.6,2.4 -2.1334,0.8001 -3.6001,1.7334 -4.4,2.8 -0.5334,1.0668 -1.2001,2.1334 -2,3.2 -0.8001,0.8001 -1.3334,2.0001 -1.6,3.6 -1e-4,1.3334 -1e-4,2.6668 0,4 -1e-4,1.0668 0.1333,2.6668 0.4,4.8 1.5999,19.46673 2.9333,31.86672 4,37.19999 1.3333,5.06672 3.7333,9.73338 7.2,14 4.7999,5.60004 10.2666,8.2667 16.4,8 6.3999,-0.26663 14.2666,-3.46663 23.6,-9.6 16.5332,-11.19994 25.4665,-11.46661 26.8,-0.8 0.5332,4.80004 -1.8668,9.20004 -7.2,13.2 -14.4001,10.13336 -28.2668,15.60002 -41.6,16.4 -13.0667,0.80002 -24.0001,-2.93331 -32.8,-11.2 -3.7334,-3.7333 -7.2,-10.39996 -10.4,-20 -2.9334,-9.59994 -4.9334,-20.79993 -6,-33.6 l -2,-18.79999 -8.8,2 c -5.6,1.6001 -11.7333,2.4001 -18.4,2.4 -4,0.2668 -6.6667,1e-4 -8,-0.8 -1.0667,-0.7999 -1.6,-2.5332 -1.6,-5.2 0,-3.1999 1.4667,-5.8666 4.4,-8 3.2,-2.3999 9.8667,-5.8666 20,-10.4 4.8,-1.8666 7.6,-3.3332 8.4,-4.4 0.8,-1.3332 0.4,-3.3332 -1.2,-6 -1.6,-3.4665 -3.0667,-13.3332 -4.4,-29.6 -1.0667,-16.2665 -1.0667,-25.9998 0,-29.2"
         style="font-size:400px;font-variant:normal;font-weight:500;font-stretch:normal;font-family:My_Unprofessional_Handwriting;-inkscape-font-specification:My_Unprofessional_Handwriting Medium"
         id="path3001" />
      <path
         d="m 2681.1569,-1052.8939 c 6.9333,-5.0665 12.1333,-8.2665 15.6,-9.6 3.7333,-1.5999 8.2666,-2.3999 13.6,-2.4 7.1999,10e-5 14.1333,1.7335 20.8,5.2 6.6666,3.2001 9.9999,6.6668 10,10.4 -10e-5,2.1335 1.4666,6.8001 4.4,14 2.9332,6.9334 5.0666,13.2001 6.4,18.8 2.9332,12.2668 9.9999,31.3334 21.2,57.19999 1.3332,3.46671 -0.2668,6.80004 -4.8,10 -6.1334,4.00003 -11.0668,2.93337 -14.8,-3.2 -1.0668,-1.86662 -1.8668,-4.13329 -2.4,-6.8 -1.8668,-7.99994 -4.4001,-11.99994 -7.6,-12 -2.9334,6e-5 -8.1334,4.00006 -15.6,12 -6.1334,6.66671 -10.6667,10.80004 -13.6,12.4 -2.6667,1.60003 -7.2001,2.80003 -13.6,3.6 -14.9334,1.33336 -28,-1.46663 -39.2,-8.4 -10.9333,-6.93329 -17.2,-16.26661 -18.8,-28 -2.1333,-12.79992 0.1333,-25.46659 6.8,-37.99999 6.6667,-12.5332 17.2,-24.2665 31.6,-35.2 m 42,22.4 c -4.0001,-8.7999 -7.7334,-13.5999 -11.2,-14.4 -3.4667,-0.7999 -9.0667,1.6001 -16.8,7.2 -11.4667,8.5334 -19.6,16.5334 -24.4,24 -4.8,7.4668 -7.2,15.86674 -7.2,25.19999 0,8.80007 3.0666,15.20006 9.2,19.2 6.4,4.00005 15.3333,5.46672 26.8,4.4 4.5333,-0.53328 7.9999,-1.86661 10.4,-4 2.6666,-2.13327 6.5333,-7.0666 11.6,-14.8 5.3333,-7.99992 8.1333,-15.33324 8.4,-21.99999 0.2666,-6.6666 -2.0001,-14.9332 -6.8,-24.8"
         style="font-size:400px;font-variant:normal;font-weight:500;font-stretch:normal;font-family:My_Unprofessional_Handwriting;-inkscape-font-specification:My_Unprofessional_Handwriting Medium"
         id="path3003" />
      <path
         d="m 2812.2007,-1038.4939 c 11.7332,-19.4665 26.5332,-30.1332 44.4,-32 11.9999,-1.3332 20.2665,1.4668 24.8,8.4 1.5999,2.6668 2.1332,5.6001 1.6,8.8 -0.5335,3.4668 -2.1335,5.4668 -4.8,6 -2.6668,0.2668 -5.8668,10e-5 -9.6,-0.8 -3.4668,-1.0665 -8.0001,-1.0665 -13.6,0 -5.3334,1.0668 -10.2668,3.8668 -14.8,8.4 -6.9334,6.6668 -11.7334,14.2668 -14.4,22.8 -2.6668,8.5334 -3.3334,19.20008 -2,31.99999 2.3999,28.53338 2.6666,44.40003 0.8,47.6 -0.8001,1.33336 -2.2668,2.13336 -4.4,2.4 -3.4667,0.53336 -6.0001,0.40002 -7.6,-0.4 -1.6001,-0.79997 -2.9334,-2.66664 -4,-5.6 -0.8001,-2.9333 -1.4667,-6.1333 -2,-9.6 -0.5334,-3.46662 -1.6001,-8.66662 -3.2,-15.6 -1.6001,-6.93327 -3.6001,-13.8666 -6,-20.8 -5.8667,-15.73329 -10.9334,-36.26659 -15.2,-61.59999 -1.0667,-6.6665 0.2666,-11.7332 4,-15.2 2.6666,-2.3999 4.5333,-3.5999 5.6,-3.6 1.0666,10e-5 2.7999,1.0668 5.2,3.2 2.6666,2.4001 5.1999,9.6001 7.6,21.6 1.3333,5.3335 2.5333,8.0001 3.6,8 1.0666,10e-5 2.3999,-1.3332 4,-4"
         style="font-size:400px;font-variant:normal;font-weight:500;font-stretch:normal;font-family:My_Unprofessional_Handwriting;-inkscape-font-specification:My_Unprofessional_Handwriting Medium"
         id="path3005" />
      <path
         d="m 2918.3757,-1102.0939 c 1.0666,-2.6665 3.1999,-4.1331 6.4,-4.4 3.4666,-0.2665 6.3999,0.8002 8.8,3.2 2.3999,2.1335 3.5999,7.2002 3.6,15.2 -10e-5,8.0002 1.0666,16.8002 3.2,26.4 2.1332,9.3335 4.1332,14.4001 6,15.2 1.3332,0.5335 5.1999,-0.2665 11.6,-2.4 6.3999,-2.1332 12.9332,-4.2665 19.6,-6.4 6.6665,-2.1332 13.1999,-3.4665 19.6,-4 6.3998,-0.5332 10.1332,0.9335 11.2,4.4 1.3332,3.4668 0.7998,6.6668 -1.6,9.6 -2.1335,2.9335 -5.6002,5.0668 -10.4,6.4 -5.8668,1.6001 -10.5335,2.9334 -14,4 -3.2001,1.0668 -6.8001,2.1334 -10.8,3.2 -3.7335,1.0668 -6.5335,2.1334 -8.4,3.2 -1.6001,0.8001 -3.4668,1.6001 -5.6,2.4 -2.1334,0.8001 -3.6001,1.7334 -4.4,2.8 -0.5334,1.0668 -1.2001,2.1334 -2,3.2 -0.8001,0.8001 -1.3334,2.0001 -1.6,3.6 -10e-5,1.3334 -10e-5,2.6668 0,4 -10e-5,1.0668 0.1332,2.6668 0.4,4.8 1.5999,19.46673 2.9332,31.86672 4,37.19999 1.3332,5.06672 3.7332,9.73338 7.2,14 4.7999,5.60004 10.2665,8.2667 16.4,8 6.3999,-0.26663 14.2665,-3.46663 23.6,-9.6 16.5332,-11.19994 25.4665,-11.46661 26.8,-0.8 0.5332,4.80004 -1.8668,9.20004 -7.2,13.2 -14.4002,10.13336 -28.2668,15.60002 -41.6,16.4 -13.0668,0.80002 -24.0001,-2.93331 -32.8,-11.2 -3.7334,-3.7333 -7.2001,-10.39996 -10.4,-20 -2.9334,-9.59994 -4.9334,-20.79993 -6,-33.6 l -2,-18.79999 -8.8,2 c -5.6001,1.6001 -11.7334,2.4001 -18.4,2.4 -4.0001,0.2668 -6.6667,1e-4 -8,-0.8 -1.0667,-0.7999 -1.6,-2.5332 -1.6,-5.2 0,-3.1999 1.4666,-5.8666 4.4,-8 3.1999,-2.3999 9.8666,-5.8666 20,-10.4 4.7999,-1.8666 7.5999,-3.3332 8.4,-4.4 0.7999,-1.3332 0.3999,-3.3332 -1.2,-6 -1.6001,-3.4665 -3.0667,-13.3332 -4.4,-29.6 -1.0667,-16.2665 -1.0667,-25.9998 0,-29.2"
         style="font-size:400px;font-variant:normal;font-weight:500;font-stretch:normal;font-family:My_Unprofessional_Handwriting;-inkscape-font-specification:My_Unprofessional_Handwriting Medium"
         id="path3007" />
    </g>
  </g>
</svg>
