<?xml version="1.0" encoding="UTF-8" standalone="no"?>
<!-- Created with Inkscape (http://www.inkscape.org/) -->

<svg
   xmlns:dc="http://purl.org/dc/elements/1.1/"
   xmlns:cc="http://creativecommons.org/ns#"
   xmlns:rdf="http://www.w3.org/1999/02/22-rdf-syntax-ns#"
   xmlns:svg="http://www.w3.org/2000/svg"
   xmlns="http://www.w3.org/2000/svg"
   xmlns:sodipodi="http://sodipodi.sourceforge.net/DTD/sodipodi-0.dtd"
   xmlns:inkscape="http://www.inkscape.org/namespaces/inkscape"
   width="3840"
   height="2160"
   id="svg4279"
   version="1.1"
   inkscape:version="0.48.5 r10040"
   sodipodi:docname="controls.svg">
  <defs
     id="defs4281" />
  <sodipodi:namedview
     id="base"
     pagecolor="#ffffff"
     bordercolor="#666666"
     borderopacity="1.0"
     inkscape:pageopacity="0.0"
     inkscape:pageshadow="2"
     inkscape:zoom="0.35000001"
     inkscape:cx="1219.9487"
     inkscape:cy="1233.8811"
     inkscape:document-units="px"
     inkscape:current-layer="text2985"
     showgrid="false"
     fit-margin-top="0"
     fit-margin-left="0"
     fit-margin-right="0"
     fit-margin-bottom="0"
     inkscape:window-width="640"
     inkscape:window-height="1059"
     inkscape:window-x="1280"
     inkscape:window-y="21"
     inkscape:window-maximized="0" />
  <metadata
     id="metadata4284">
    <rdf:RDF>
      <cc:Work
         rdf:about="">
        <dc:format>image/svg+xml</dc:format>
        <dc:type
           rdf:resource="http://purl.org/dc/dcmitype/StillImage" />
        <dc:title />
      </cc:Work>
    </rdf:RDF>
  </metadata>
  <g
     inkscape:label="Layer 1"
     inkscape:groupmode="layer"
     id="layer1"
     transform="translate(-175.80409,1495.856)">
    <g
       style="font-size:40px;font-style:normal;font-weight:normal;line-height:125%;letter-spacing:0px;word-spacing:0px;fill:#000000;fill-opacity:1;stroke:none;font-family:Sans"
       id="text2985">
      <path
         d="m 825.7017,-1170.1559 c 1.46666,-1.5999 2.53332,-2.3999 3.2,-2.4 0.66666,10e-5 1.66666,0.7335 3,2.2 1.59999,1.8668 3.93332,9.8668 7,24 3.06664,14.0001 6.46664,28.0001 10.2,42 3.86663,13.8667 7.59996,21.9334 11.2,24.2 1.33329,0.9334 2.46662,1.4667 3.4,1.6 1.06662,0 2.39995,-0.3333 4,-1 2.79995,-1.2 4.99995,-2.6666 6.6,-4.4 1.46661,-1.7333 3.06661,-2.5333 4.8,-2.4 1.73327,0 3.0666,0.8667 4,2.6 0.6666,1.3334 0.8666,2.4 0.6,3.2 -0.1334,0.6667 -0.86673,1.7334 -2.2,3.2 -4.40006,4.8 -9.20005,7.7334 -14.4,8.8 -5.20004,1.0667 -9.46671,0.067 -12.8,-3 -3.33337,-3.0666 -6.00003,-6.6 -8,-10.6 -2.00003,-4.1333 -3.66669,-8.5333 -5,-13.2 -1.33335,-4.7999 -2.20002,-7.6666 -2.6,-8.6 -0.80002,-1.8666 -2.46668,-8.3333 -5,-19.4 l -7,-30.6 c -1.46667,-6.3999 -2.26667,-10.3999 -2.4,-12 -0.13334,-1.7332 0.33333,-3.1332 1.4,-4.2"
         style="font-size:200px;font-variant:normal;font-weight:500;font-stretch:normal;font-family:My_Unprofessional_Handwriting;-inkscape-font-specification:My_Unprofessional_Handwriting Medium"
         id="path2986" />
      <path
         d="m 912.57357,-1147.9559 c 3.19997,-1.3332 5.79997,-2.0666 7.8,-2.2 1.99997,-0.1332 4.5333,0.4001 7.6,1.6 2.79996,0.9334 5.39995,3.0001 7.8,6.2 2.53328,3.2001 3.79995,6.0668 3.8,8.6 -5e-5,4.1334 -2.86672,10.0667 -8.6,17.8 -5.60004,7.7334 -11.2667,13.3334 -17,16.8 -0.40003,0.2667 -1.00003,0.6667 -1.8,1.2 -5.46669,3.3334 -8.60002,5.4001 -9.4,6.2 -0.66668,0.8001 -0.53335,2.0667 0.4,3.8 0.13332,0.2667 0.19998,0.4667 0.2,0.6 0.93332,1.7334 2.93331,3.7334 6,6 3.19998,2.2667 7.19997,4.2 12,5.8 4.93329,1.4667 9.99996,1.0667 15.2,-1.2 5.73328,-2.4 8.59994,-1.2666 8.6,3.4 -6e-5,2.5334 -1.93339,4.6 -5.8,6.2 -3.73338,1.4667 -8.33338,2.1334 -13.8,2 -5.4667,-0.2666 -10.40003,-1.4 -14.8,-3.4 -9.33335,-4 -16.00001,-11.2 -20,-21.6 -3.86667,-10.3999 -3.93333,-21.2666 -0.2,-32.6 1.33333,-4.3999 4.26666,-9.1999 8.8,-14.4 4.66665,-5.3332 9.06665,-8.9332 13.2,-10.8 m 12.8,9.4 c -1.73337,-1.3332 -3.00003,-1.9999 -3.8,-2 -0.6667,10e-5 -2.33336,0.6668 -5,2 -5.06669,2.8001 -9.26669,6.5334 -12.6,11.2 -3.20001,4.6667 -5.06668,9.6667 -5.6,15 -0.53334,4.6667 -0.26668,7.4001 0.8,8.2 1.19999,0.6667 3.66665,-0.1333 7.4,-2.4 5.06664,-2.9333 9.99997,-7.3333 14.8,-13.2 4.79996,-5.8666 7.19996,-10.3999 7.2,-13.6 -4e-5,-2.1332 -1.06671,-3.8666 -3.2,-5.2"
         style="font-size:200px;font-variant:normal;font-weight:500;font-stretch:normal;font-family:My_Unprofessional_Handwriting;-inkscape-font-specification:My_Unprofessional_Handwriting Medium"
         id="path2988" />
      <path
         d="m 973.3017,-1179.5559 c 1.99997,-0.6665 4.86663,-0.8665 8.6,-0.6 3.86662,0.1335 6.46662,0.6001 7.8,1.4 0.93329,0.5335 1.26662,1.6668 1,3.4 -0.13338,1.7335 -0.73338,3.0668 -1.8,4 -1.20004,1.0668 -2.53338,1.4001 -4,1 -1.33337,-0.3999 -2.73337,-0.5999 -4.2,-0.6 -1.4667,10e-5 -2.8667,0.2001 -4.2,0.6 -1.20003,0.2668 -2.2667,1.6668 -3.2,4.2 -0.93336,2.4001 -1.53336,5.9335 -1.8,10.6 -0.26669,4.9334 -0.13336,8.9334 0.4,12 0.5333,3.0668 2.1333,9.4668 4.8,19.2 1.86663,7.0667 3.46663,11.2001 4.8,12.4 1.46663,1.2001 4.99996,1.5334 10.6,1 3.86661,-0.3999 6.46661,-0.4666 7.8,-0.2 1.4666,0.1334 2.5999,0.6667 3.4,1.6 1.7333,2.1334 1.0666,4.0667 -2,5.8 -2.93339,1.6001 -6.53338,2.8667 -10.8,3.8 -4.26671,0.9334 -6.53337,1.5334 -6.8,1.8 -0.53337,0.6667 -0.46671,5.0001 0.2,13 0.79996,8 1.79996,15.5334 3,22.6 0.93329,5.3333 1.06662,9 0.4,11 -0.53338,2 -2.06671,3.2 -4.6,3.6 -1.4667,0.1333 -2.6667,-0.4 -3.6,-1.6 -0.80003,-1.0667 -1.4667,-3 -2,-5.8 -0.40003,-2.8 -0.73337,-5.7333 -1,-8.8 -0.2667,-3.2 -0.6667,-7.3333 -1.2,-12.4 -0.53336,-5.0666 -1.13336,-9.8 -1.8,-14.2 l -1,-6.2 -10.4,-0.8 c -6.80001,-0.3999 -10.73334,-1.3999 -11.8,-3 -1.33334,-2.2666 -0.66667,-3.9333 2,-5 2.79999,-1.1999 6.19999,-2.0666 10.2,-2.6 3.99998,-0.5333 6.26664,-1.0666 6.8,-1.6 0.66664,-0.7999 0.46664,-2.9999 -0.6,-6.6 -1.06669,-3.7333 -2.46669,-8.9332 -4.2,-15.6 -1.60002,-6.7999 -2.46668,-13.1999 -2.6,-19.2 -0.26668,-7.5999 0.59998,-13.8665 2.6,-18.8 2.13331,-5.0665 5.19997,-8.1999 9.2,-9.4"
         style="font-size:200px;font-variant:normal;font-weight:500;font-stretch:normal;font-family:My_Unprofessional_Handwriting;-inkscape-font-specification:My_Unprofessional_Handwriting Medium"
         id="path2990" />
      <path
         d="m 1021.8861,-1152.3559 c 0.5333,-1.3332 1.6,-2.0666 3.2,-2.2 1.7333,-0.1332 3.1999,0.4001 4.4,1.6 1.1999,1.0668 1.7999,3.6001 1.8,7.6 -10e-5,4.0001 0.5333,8.4001 1.6,13.2 1.0666,4.6668 2.0666,7.2001 3,7.6 0.6666,0.2668 2.5999,-0.1332 5.8,-1.2 3.1999,-1.0666 6.4666,-2.1332 9.8,-3.2 3.3333,-1.0666 6.5999,-1.7332 9.8,-2 3.1999,-0.2666 5.0666,0.4668 5.6,2.2 0.6666,1.7334 0.3999,3.3334 -0.8,4.8 -1.0668,1.4667 -2.8001,2.5334 -5.2,3.2 -2.9334,0.8001 -5.2667,1.4667 -7,2 -1.6001,0.5334 -3.4001,1.0667 -5.4,1.6 -1.8667,0.5334 -3.2667,1.0667 -4.2,1.6 -0.8001,0.4001 -1.7334,0.8001 -2.8,1.2 -1.0667,0.4001 -1.8001,0.8667 -2.2,1.4 -0.2667,0.5334 -0.6001,1.0667 -1,1.6 -0.4001,0.4001 -0.6667,1.0001 -0.8,1.8 -10e-5,0.6667 -10e-5,1.3334 0,2 -10e-5,0.5334 0.067,1.3334 0.2,2.4 0.7999,9.7334 1.4666,15.9334 2,18.6 0.6666,2.5334 1.8666,4.8667 3.6,7 2.3999,2.8 5.1333,4.1334 8.2,4 3.1999,-0.1333 7.1333,-1.7333 11.8,-4.8 8.2666,-5.6 12.7332,-5.7333 13.4,-0.4 0.2666,2.4 -0.9334,4.6 -3.6,6.6 -7.2001,5.0667 -14.1334,7.8 -20.8,8.2 -6.5334,0.4 -12.0001,-1.4666 -16.4,-5.6 -1.8667,-1.8666 -3.6001,-5.2 -5.2,-10 -1.4667,-4.8 -2.4667,-10.3999 -3,-16.8 l -1,-9.4 -4.4,1 c -2.8,0.8001 -5.8667,1.2001 -9.2,1.2 -2,0.1334 -3.3334,10e-5 -4,-0.4 -0.5334,-0.3999 -0.8,-1.2666 -0.8,-2.6 0,-1.5999 0.7333,-2.9333 2.2,-4 1.6,-1.1999 4.9333,-2.9333 10,-5.2 2.4,-0.9333 3.8,-1.6666 4.2,-2.2 0.4,-0.6666 0.2,-1.6666 -0.6,-3 -0.8,-1.7332 -1.5334,-6.6666 -2.2,-14.8 -0.5334,-8.1332 -0.5334,-12.9999 0,-14.6"
         style="font-size:200px;font-variant:normal;font-weight:500;font-stretch:normal;font-family:My_Unprofessional_Handwriting;-inkscape-font-specification:My_Unprofessional_Handwriting Medium"
         id="path2992" />
      <path
         d="m 1100.1423,-1186.3559 c 0.2667,-1.1999 1.6,-1.7332 4,-1.6 2.4,10e-5 3.8,0.6001 4.2,1.8 0.5333,1.3335 0.1333,7.9335 -1.2,19.8 l -4.2,36 c -1.2,9.4667 -2.2,16.5334 -3,21.2 -0.6667,4.5334 -2.2,12.0667 -4.6,22.6 -1.4667,6.6667 -2.6,11.6 -3.4,14.8 -0.6667,3.0667 -1.4,5.6667 -2.2,7.8 -0.6667,2.1334 -1.2667,3.4667 -1.8,4 -0.4,0.4 -1.0667,0.6667 -2,0.8 -2.8,0.4 -4.4,-0.4666 -4.8,-2.6 -0.4,-2.1333 0.067,-6.7333 1.4,-13.8 0.6667,-2.8 1.6667,-7.4666 3,-14 1.4667,-6.5333 2.4667,-11.3999 3,-14.6 0.6667,-3.1999 1.6,-8.9999 2.8,-17.4 1.2,-8.3999 2.4667,-18.5332 3.8,-30.4 2.1333,-19.1999 3.8,-30.6665 5,-34.4"
         style="font-size:200px;font-variant:normal;font-weight:500;font-stretch:normal;font-family:My_Unprofessional_Handwriting;-inkscape-font-specification:My_Unprofessional_Handwriting Medium"
         id="path2994" />
      <path
         d="m 1127.7829,-1120.5559 c 5.8667,-9.7332 13.2667,-15.0666 22.2,-16 6,-0.6666 10.1333,0.7334 12.4,4.2 0.8,1.3334 1.0667,2.8001 0.8,4.4 -0.2667,1.7334 -1.0667,2.7334 -2.4,3 -1.3333,0.1334 -2.9333,10e-5 -4.8,-0.4 -1.7333,-0.5332 -4,-0.5332 -6.8,0 -2.6667,0.5334 -5.1333,1.9334 -7.4,4.2 -3.4666,3.3334 -5.8666,7.1334 -7.2,11.4 -1.3333,4.2667 -1.6666,9.6001 -1,16 1.2,14.2667 1.3334,22.2 0.4,23.8 -0.4,0.6667 -1.1333,1.0667 -2.2,1.2 -1.7333,0.2667 -3,0.2 -3.8,-0.2 -0.8,-0.4 -1.4666,-1.3333 -2,-2.8 -0.4,-1.4666 -0.7333,-3.0666 -1,-4.8 -0.2666,-1.7333 -0.8,-4.3333 -1.6,-7.8 -0.8,-3.4666 -1.8,-6.9333 -3,-10.4 -2.9333,-7.8666 -5.4666,-18.1333 -7.6,-30.8 -0.5333,-3.3332 0.1334,-5.8666 2,-7.6 1.3334,-1.1999 2.2667,-1.7999 2.8,-1.8 0.5334,10e-5 1.4,0.5334 2.6,1.6 1.3334,1.2001 2.6,4.8001 3.8,10.8 0.6667,2.6667 1.2667,4.0001 1.8,4 0.5334,10e-5 1.2,-0.6666 2,-2"
         style="font-size:200px;font-variant:normal;font-weight:500;font-stretch:normal;font-family:My_Unprofessional_Handwriting;-inkscape-font-specification:My_Unprofessional_Handwriting Medium"
         id="path2996" />
      <path
         d="m 1169.6704,-1143.5559 c 1.6,-0.9332 2.6667,-1.3332 3.2,-1.2 0.6667,0.1334 1.6667,0.9334 3,2.4 1.3334,1.4668 2.2667,7.3334 2.8,17.6 0.5334,11.3334 1.8667,21.0667 4,29.2 2.2667,8 4.7334,12.5334 7.4,13.6 1.4667,0.5334 2.0667,1.8 1.8,3.8 -0.2666,2 -1.2,3.5334 -2.8,4.6 -1.6,0.9334 -3.6666,0.4667 -6.2,-1.4 -3.3333,-2.5333 -5.9333,-6.2666 -7.8,-11.2 -1.8666,-5.0666 -3.6,-12.8666 -5.2,-23.4 -1.7333,-12.2666 -2.6,-20.7332 -2.6,-25.4 0,-4.6666 0.8,-7.5332 2.4,-8.6 m 4.4,-20.2 c -1.8666,1e-4 -3.2,-0.7332 -4,-2.2 -0.6666,-1.5999 -0.6,-3.1332 0.2,-4.6 0.9334,-1.4665 2.3334,-2.0665 4.2,-1.8 1.2,0.1335 2,0.5335 2.4,1.2 0.4,0.5335 0.6,1.6668 0.6,3.4 0,1.7335 -0.2,2.8668 -0.6,3.4 -0.4,0.4001 -1.3333,0.6001 -2.8,0.6"
         style="font-size:200px;font-variant:normal;font-weight:500;font-stretch:normal;font-family:My_Unprofessional_Handwriting;-inkscape-font-specification:My_Unprofessional_Handwriting Medium"
         id="path2998" />
      <path
         d="m 1220.7861,-1147.3559 c 4.5333,-1.5999 8.8666,-1.7999 13,-0.6 4.1333,1.2001 9.7333,4.2668 16.8,9.2 1.5999,1.2001 2.6666,3.7334 3.2,7.6 0.6666,3.8668 1.3999,12.8667 2.2,27 -10e-5,0.2667 0.067,0.8001 0.2,1.6 0.2666,2.2667 0.3332,5.2001 0.2,8.8 -0.1334,3.4667 -0.4001,7 -0.8,10.6 -0.4001,3.4667 -1.5334,7.1334 -3.4,11 -1.8668,3.8667 -4.2667,7.2667 -7.2,10.2 -3.6001,3.4667 -6.8001,5.7333 -9.6,6.8 -2.8001,1.2 -6.6667,1.8 -11.6,1.8 -5.0667,0 -9.2,-0.7333 -12.4,-2.2 -3.2,-1.3333 -6.6,-4 -10.2,-8 -6,-6.5333 -6.9334,-11.1333 -2.8,-13.8 1.0666,-0.5333 2.2,-0.4 3.4,0.4 1.3333,0.8 3.6,2.8 6.8,6 3.7333,3.8667 6.2666,6.2 7.6,7 1.4666,0.6667 3.9333,1 7.4,1 3.5999,-0.1333 6.6666,-0.9333 9.2,-2.4 2.5333,-1.4666 5.4666,-4.2 8.8,-8.2 1.1999,-1.4666 2.3999,-5.5333 3.6,-12.2 1.3333,-6.7999 1.6666,-10.7999 1,-12 -0.6667,-0.9333 -2.3334,-0.3333 -5,1.8 -3.2001,2.2667 -7.2001,3.3334 -12,3.2 -4.6667,-0.1333 -8.9334,-1.4666 -12.8,-4 -4.1334,-2.7999 -7.5334,-6.3999 -10.2,-10.8 -2.5334,-4.3999 -3.8,-8.8666 -3.8,-13.4 0,-4.7999 0.4,-8.3332 1.2,-10.6 0.9333,-2.5332 3.3333,-5.5332 7.2,-9 3.8666,-3.5999 7.1999,-5.8666 10,-6.8 m 17.2,12.4 c -3.3334,-2.3999 -7.0001,-3.3332 -11,-2.8 -4.0001,0.5334 -7.5334,2.4668 -10.6,5.8 -1.4667,1.4668 -2.4,2.9334 -2.8,4.4 -0.4,1.4668 -0.6,3.6001 -0.6,6.4 0,3.3334 0.2666,5.6667 0.8,7 0.6666,1.2001 2.2666,3.0667 4.8,5.6 3.8666,3.4667 7.3999,5.2001 10.6,5.2 4.5333,10e-5 8.1333,-1.8666 10.8,-5.6 2.6666,-3.7333 3.9999,-8.7999 4,-15.2 -10e-5,-2.7999 -0.3334,-4.7332 -1,-5.8 -0.6667,-1.1999 -2.3334,-2.8666 -5,-5"
         style="font-size:200px;font-variant:normal;font-weight:500;font-stretch:normal;font-family:My_Unprofessional_Handwriting;-inkscape-font-specification:My_Unprofessional_Handwriting Medium"
         id="path3000" />
      <path
         d="m 1260.6392,-1175.1559 c 0.9333,-1.0665 2,-1.5999 3.2,-1.6 1.3333,1e-4 2.4,0.5335 3.2,1.6 2.2667,2.8001 4,16.6001 5.2,41.4 0.6666,13.6001 1.4,20.6667 2.2,21.2 0.5333,0.4001 1.6,-0.067 3.2,-1.4 7.0666,-6.3999 13.8666,-8.7333 20.4,-7 6.6666,1.7334 11.5999,7.1334 14.8,16.2 1.0666,3.2001 1.7333,10.0667 2,20.6 0.2666,6.6667 0.2666,11.0667 0,13.2 -0.2667,2.1334 -0.9334,3.7334 -2,4.8 -1.6001,1.6 -3.2001,1.9334 -4.8,1 -0.6667,-0.5333 -1.2667,-1.4666 -1.8,-2.8 -0.4001,-1.3333 -0.7334,-3.2 -1,-5.6 -0.1334,-2.4 -0.2667,-4.8666 -0.4,-7.4 -0.1334,-2.5333 -0.3334,-5.6666 -0.6,-9.4 -0.1334,-3.8666 -0.3334,-7.3333 -0.6,-10.4 -0.1334,-1.7333 -1.4667,-3.9333 -4,-6.6 -2.5334,-2.7999 -4.5334,-4.1999 -6,-4.2 -2,10e-5 -4.8,1.8001 -8.4,5.4 -3.6,3.4667 -5.8667,6.6667 -6.8,9.6 -0.8,2.1334 -1.2,4.8667 -1.2,8.2 0,3.2 0.1333,6.2 0.4,9 0.2666,2.8 0.4,5.4667 0.4,8 0.1333,2.5334 -0.2,4.6 -1,6.2 -0.8,1.4667 -2.1334,2.2 -4,2.2 -1.7333,0 -3.1333,-0.6666 -4.2,-2 -1.4667,-1.7333 -3.5333,-20.1333 -6.2,-55.2 -2.5333,-35.1999 -3.2,-53.5332 -2,-55"
         style="font-size:200px;font-variant:normal;font-weight:500;font-stretch:normal;font-family:My_Unprofessional_Handwriting;-inkscape-font-specification:My_Unprofessional_Handwriting Medium"
         id="path3002" />
      <path
         d="m 1332.8236,-1152.3559 c 0.5333,-1.3332 1.6,-2.0666 3.2,-2.2 1.7333,-0.1332 3.1999,0.4001 4.4,1.6 1.1999,1.0668 1.7999,3.6001 1.8,7.6 -10e-5,4.0001 0.5333,8.4001 1.6,13.2 1.0666,4.6668 2.0666,7.2001 3,7.6 0.6666,0.2668 2.5999,-0.1332 5.8,-1.2 3.1999,-1.0666 6.4666,-2.1332 9.8,-3.2 3.3333,-1.0666 6.5999,-1.7332 9.8,-2 3.1999,-0.2666 5.0666,0.4668 5.6,2.2 0.6666,1.7334 0.3999,3.3334 -0.8,4.8 -1.0668,1.4667 -2.8001,2.5334 -5.2,3.2 -2.9334,0.8001 -5.2667,1.4667 -7,2 -1.6001,0.5334 -3.4001,1.0667 -5.4,1.6 -1.8667,0.5334 -3.2667,1.0667 -4.2,1.6 -0.8001,0.4001 -1.7334,0.8001 -2.8,1.2 -1.0667,0.4001 -1.8001,0.8667 -2.2,1.4 -0.2667,0.5334 -0.6001,1.0667 -1,1.6 -0.4001,0.4001 -0.6667,1.0001 -0.8,1.8 -10e-5,0.6667 -10e-5,1.3334 0,2 -10e-5,0.5334 0.067,1.3334 0.2,2.4 0.7999,9.7334 1.4666,15.9334 2,18.6 0.6666,2.5334 1.8666,4.8667 3.6,7 2.3999,2.8 5.1333,4.1334 8.2,4 3.1999,-0.1333 7.1333,-1.7333 11.8,-4.8 8.2666,-5.6 12.7332,-5.7333 13.4,-0.4 0.2666,2.4 -0.9334,4.6 -3.6,6.6 -7.2001,5.0667 -14.1334,7.8 -20.8,8.2 -6.5334,0.4 -12.0001,-1.4666 -16.4,-5.6 -1.8667,-1.8666 -3.6001,-5.2 -5.2,-10 -1.4667,-4.8 -2.4667,-10.3999 -3,-16.8 l -1,-9.4 -4.4,1 c -2.8,0.8001 -5.8667,1.2001 -9.2,1.2 -2,0.1334 -3.3334,10e-5 -4,-0.4 -0.5334,-0.3999 -0.8,-1.2666 -0.8,-2.6 0,-1.5999 0.7333,-2.9333 2.2,-4 1.6,-1.1999 4.9333,-2.9333 10,-5.2 2.4,-0.9333 3.8,-1.6666 4.2,-2.2 0.4,-0.6666 0.2,-1.6666 -0.6,-3 -0.8,-1.7332 -1.5334,-6.6666 -2.2,-14.8 -0.5334,-8.1332 -0.5334,-12.9999 0,-14.6"
         style="font-size:200px;font-variant:normal;font-weight:500;font-stretch:normal;font-family:My_Unprofessional_Handwriting;-inkscape-font-specification:My_Unprofessional_Handwriting Medium"
         id="path3004" />
      <path
         d="m 1489.4642,-1152.3559 c 0.5333,-1.3332 1.6,-2.0666 3.2,-2.2 1.7333,-0.1332 3.2,0.4001 4.4,1.6 1.2,1.0668 1.8,3.6001 1.8,7.6 0,4.0001 0.5333,8.4001 1.6,13.2 1.0666,4.6668 2.0666,7.2001 3,7.6 0.6666,0.2668 2.6,-0.1332 5.8,-1.2 3.2,-1.0666 6.4666,-2.1332 9.8,-3.2 3.3333,-1.0666 6.5999,-1.7332 9.8,-2 3.1999,-0.2666 5.0666,0.4668 5.6,2.2 0.6666,1.7334 0.3999,3.3334 -0.8,4.8 -1.0667,1.4667 -2.8001,2.5334 -5.2,3.2 -2.9334,0.8001 -5.2667,1.4667 -7,2 -1.6,0.5334 -3.4,1.0667 -5.4,1.6 -1.8667,0.5334 -3.2667,1.0667 -4.2,1.6 -0.8,0.4001 -1.7334,0.8001 -2.8,1.2 -1.0667,0.4001 -1.8,0.8667 -2.2,1.4 -0.2667,0.5334 -0.6,1.0667 -1,1.6 -0.4,0.4001 -0.6667,1.0001 -0.8,1.8 0,0.6667 0,1.3334 0,2 0,0.5334 0.067,1.3334 0.2,2.4 0.8,9.7334 1.4666,15.9334 2,18.6 0.6666,2.5334 1.8666,4.8667 3.6,7 2.4,2.8 5.1333,4.1334 8.2,4 3.1999,-0.1333 7.1333,-1.7333 11.8,-4.8 8.2666,-5.6 12.7333,-5.7333 13.4,-0.4 0.2666,2.4 -0.9334,4.6 -3.6,6.6 -7.2001,5.0667 -14.1334,7.8 -20.8,8.2 -6.5334,0.4 -12,-1.4666 -16.4,-5.6 -1.8667,-1.8666 -3.6,-5.2 -5.2,-10 -1.4667,-4.8 -2.4667,-10.3999 -3,-16.8 l -1,-9.4 -4.4,1 c -2.8,0.8001 -5.8667,1.2001 -9.2,1.2 -2,0.1334 -3.3333,10e-5 -4,-0.4 -0.5333,-0.3999 -0.8,-1.2666 -0.8,-2.6 0,-1.5999 0.7333,-2.9333 2.2,-4 1.6,-1.1999 4.9333,-2.9333 10,-5.2 2.4,-0.9333 3.8,-1.6666 4.2,-2.2 0.4,-0.6666 0.2,-1.6666 -0.6,-3 -0.8,-1.7332 -1.5334,-6.6666 -2.2,-14.8 -0.5334,-8.1332 -0.5334,-12.9999 0,-14.6"
         style="font-size:200px;font-variant:normal;font-weight:500;font-stretch:normal;font-family:My_Unprofessional_Handwriting;-inkscape-font-specification:My_Unprofessional_Handwriting Medium"
         id="path3006" />
      <path
         d="m 1567.9204,-1145.1559 c 6.1334,-1.9999 11.2667,-2.5999 15.4,-1.8 4.2667,0.8001 8.6667,3.2668 13.2,7.4 2.5333,2.4001 4.4667,5.0001 5.8,7.8 1.3333,2.6668 2.6667,6.9334 4,12.8 3.2,14.1334 2.8,25.8667 -1.2,35.2 -3.8667,9.2 -10.8,14.8667 -20.8,17 -7.2,1.4667 -13.5333,0.6 -19,-2.6 -5.4666,-3.3333 -9.7333,-8.8666 -12.8,-16.6 -2.5333,-5.9999 -3.8666,-13.3333 -4,-22 -0.1333,-8.7999 0.8667,-15.2666 3,-19.4 1.8667,-3.3332 2.8,-5.5999 2.8,-6.8 0,-1.5999 1.4,-3.5332 4.2,-5.8 2.9334,-2.2666 6.0667,-3.9999 9.4,-5.2 m 19.6,10.8 c -2.5333,-1.7332 -5.7333,-2.4666 -9.6,-2.2 -3.8666,0.2668 -7.0666,1.4668 -9.6,3.6 -3.0666,2.5334 -5.2666,5.2001 -6.6,8 -1.2,2.8001 -2.0666,6.8667 -2.6,12.2 -0.5333,5.4667 -0.4,10.4667 0.4,15 0.9334,4.5334 2.2,8.1334 3.8,10.8 1.7334,2.6667 3.6,4.9334 5.6,6.8 2.1334,1.7334 3.9334,2.9334 5.4,3.6 1.4667,0.6667 2.5333,1 3.2,1 3.0667,0 6.0667,-0.8666 9,-2.6 3.0667,-1.7333 5.6,-4.0666 7.6,-7 1.7333,-2.6666 2.7333,-4.9333 3,-6.8 0.2667,-1.8666 0.2667,-6.3999 0,-13.6 -0.2667,-8.1333 -1.2,-14.3999 -2.8,-18.8 -1.4667,-4.3999 -3.7333,-7.7332 -6.8,-10"
         style="font-size:200px;font-variant:normal;font-weight:500;font-stretch:normal;font-family:My_Unprofessional_Handwriting;-inkscape-font-specification:My_Unprofessional_Handwriting Medium"
         id="path3008" />
      <path
         d="m 1696.3767,-1129.3559 c -0.5333,-1.8666 -0.3333,-3.5332 0.6,-5 1.0667,-1.4666 2.2,-2.1999 3.4,-2.2 1.3333,10e-5 2.7333,0.8668 4.2,2.6 1.6,1.7334 2.4,3.3334 2.4,4.8 0,3.2001 0.6,5.0001 1.8,5.4 1.2,0.4001 3.1333,-0.5999 5.8,-3 2,-1.7332 3.7333,-2.8666 5.2,-3.4 1.4666,-0.5332 3.4,-0.7999 5.8,-0.8 2.8,10e-5 4.7333,0.3334 5.8,1 1.2,0.5334 2.9333,2.0668 5.2,4.6 l 5,5.8 5.2,-4.4 c 3.4666,-2.9332 6.1333,-4.3332 8,-4.2 1.9999,10e-5 4.4666,0.8668 7.4,2.6 3.0666,1.7334 5.3999,3.6001 7,5.6 1.7333,2.4001 3.9999,7.1334 6.8,14.2 2.9332,7.0667 4.6666,12.2667 5.2,15.6 0.2666,1.3334 0.6666,3.1334 1.2,5.4 0.5332,2.2667 0.9332,4.1334 1.2,5.6 0.2666,1.4667 0.3999,3 0.4,4.6 0.1332,1.4667 -0.2668,2.6 -1.2,3.4 -0.8001,0.8 -2.0668,1.2 -3.8,1.2 -2.0001,0 -3.4668,-1.2 -4.4,-3.6 -0.9334,-2.5333 -2.4667,-9.2666 -4.6,-20.2 -0.6667,-2.7999 -2.5334,-7.0666 -5.6,-12.8 -2.9334,-5.7333 -5.0667,-8.9999 -6.4,-9.8 -1.0667,-0.6666 -1.9334,-0.8666 -2.6,-0.6 -0.6667,0.2667 -1.6001,1.0667 -2.8,2.4 -1.6001,2.0001 -2.5334,5.8001 -2.8,11.4 -0.1334,5.4667 0.4666,11.8001 1.8,19 0.7999,4.8 0.8666,8.1334 0.2,10 -0.6667,1.8667 -2.2667,2.8 -4.8,2.8 -1.6001,0 -2.7334,-0.7333 -3.4,-2.2 -0.5334,-1.4666 -1.8001,-7 -3.8,-16.6 -2,-9.7333 -4.3334,-17.1999 -7,-22.4 -2.5334,-5.3333 -5.2,-7.9999 -8,-8 -1.3334,10e-5 -2.4,0.4667 -3.2,1.4 -0.6667,0.8001 -1.4667,2.6001 -2.4,5.4 -1.7334,4.6667 -2.2667,10.9334 -1.6,18.8 0.8,12.1334 0.9333,18.6667 0.4,19.6 -0.2667,0.5334 -1.2,0.8667 -2.8,1 -2.4,0.2667 -4.2,-0.4 -5.4,-2 -1.0667,-1.6 -2.2,-5.0666 -3.4,-10.4 -5.8667,-25.8666 -9.2,-40.0666 -10,-42.6"
         style="font-size:200px;font-variant:normal;font-weight:500;font-stretch:normal;font-family:My_Unprofessional_Handwriting;-inkscape-font-specification:My_Unprofessional_Handwriting Medium"
         id="path3010" />
      <path
         d="m 1807.7642,-1145.1559 c 6.1333,-1.9999 11.2666,-2.5999 15.4,-1.8 4.2666,0.8001 8.6666,3.2668 13.2,7.4 2.5333,2.4001 4.4666,5.0001 5.8,7.8 1.3333,2.6668 2.6666,6.9334 4,12.8 3.1999,14.1334 2.7999,25.8667 -1.2,35.2 -3.8667,9.2 -10.8001,14.8667 -20.8,17 -7.2,1.4667 -13.5334,0.6 -19,-2.6 -5.4667,-3.3333 -9.7333,-8.8666 -12.8,-16.6 -2.5333,-5.9999 -3.8667,-13.3333 -4,-22 -0.1333,-8.7999 0.8667,-15.2666 3,-19.4 1.8667,-3.3332 2.8,-5.5999 2.8,-6.8 0,-1.5999 1.4,-3.5332 4.2,-5.8 2.9333,-2.2666 6.0666,-3.9999 9.4,-5.2 m 19.6,10.8 c -2.5334,-1.7332 -5.7334,-2.4666 -9.6,-2.2 -3.8667,0.2668 -7.0667,1.4668 -9.6,3.6 -3.0667,2.5334 -5.2667,5.2001 -6.6,8 -1.2,2.8001 -2.0667,6.8667 -2.6,12.2 -0.5333,5.4667 -0.4,10.4667 0.4,15 0.9333,4.5334 2.2,8.1334 3.8,10.8 1.7333,2.6667 3.6,4.9334 5.6,6.8 2.1333,1.7334 3.9333,2.9334 5.4,3.6 1.4666,0.6667 2.5333,1 3.2,1 3.0666,0 6.0666,-0.8666 9,-2.6 3.0666,-1.7333 5.6,-4.0666 7.6,-7 1.7333,-2.6666 2.7333,-4.9333 3,-6.8 0.2666,-1.8666 0.2666,-6.3999 0,-13.6 -0.2667,-8.1333 -1.2001,-14.3999 -2.8,-18.8 -1.4667,-4.3999 -3.7334,-7.7332 -6.8,-10"
         style="font-size:200px;font-variant:normal;font-weight:500;font-stretch:normal;font-family:My_Unprofessional_Handwriting;-inkscape-font-specification:My_Unprofessional_Handwriting Medium"
         id="path3012" />
      <path
         d="m 1886.6361,-1143.1559 c 2.5333,-3.0666 5.3999,-2.5332 8.6,1.6 2.5333,3.0668 4.2666,7.3334 5.2,12.8 0.2666,2.4001 0.4666,5.4001 0.6,9 0.1333,3.6001 -0.067,7.6667 -0.6,12.2 -0.5334,4.5334 -1.4001,8.8001 -2.6,12.8 -1.2001,3.8667 -3.0667,7.1334 -5.6,9.8 -2.4001,2.6667 -5.3334,4 -8.8,4 -2.4001,0 -4.3334,-0.4 -5.8,-1.2 -1.3334,-0.8 -3.2667,-2.5333 -5.8,-5.2 -4.1334,-4.2666 -6.2,-6.7999 -6.2,-7.6 0,-0.1333 -1,-2.5999 -3,-7.4 -1.8667,-4.7999 -3.7334,-9.5333 -5.6,-14.2 -1.8667,-4.7999 -2.8,-7.1999 -2.8,-7.2 -1.6,-3.4666 -2.3334,-6.0666 -2.2,-7.8 0.1333,-1.7332 1.0666,-3.1332 2.8,-4.2 2,-1.1999 3.8,-0.6666 5.4,1.6 1.7333,2.2668 3.2,5.2668 4.4,9 1.3333,3.6001 2.0666,5.6001 2.2,6 0.6666,0.9334 1.8666,3.9334 3.6,9 1.2,3.7334 3.3333,7.9334 6.4,12.6 3.1999,4.5334 5.5333,6.8 7,6.8 1.3333,0 2.5999,-2.3333 3.8,-7 1.3333,-4.6666 2.1999,-10.1999 2.6,-16.6 0.2666,-5.8666 0.2666,-9.9332 0,-12.2 -0.1334,-2.2666 -0.8667,-4.8666 -2.2,-7.8 -2.0001,-4.5332 -2.4667,-7.4666 -1.4,-8.8"
         style="font-size:200px;font-variant:normal;font-weight:500;font-stretch:normal;font-family:My_Unprofessional_Handwriting;-inkscape-font-specification:My_Unprofessional_Handwriting Medium"
         id="path3014" />
      <path
         d="m 1929.3704,-1147.9559 c 3.2,-1.3332 5.8,-2.0666 7.8,-2.2 2,-0.1332 4.5333,0.4001 7.6,1.6 2.8,0.9334 5.4,3.0001 7.8,6.2 2.5333,3.2001 3.8,6.0668 3.8,8.6 0,4.1334 -2.8667,10.0667 -8.6,17.8 -5.6,7.7334 -11.2667,13.3334 -17,16.8 -0.4,0.2667 -1,0.6667 -1.8,1.2 -5.4666,3.3334 -8.6,5.4001 -9.4,6.2 -0.6666,0.8001 -0.5333,2.0667 0.4,3.8 0.1334,0.2667 0.2,0.4667 0.2,0.6 0.9334,1.7334 2.9334,3.7334 6,6 3.2,2.2667 7.2,4.2 12,5.8 4.9333,1.4667 10,1.0667 15.2,-1.2 5.7333,-2.4 8.6,-1.2666 8.6,3.4 0,2.5334 -1.9333,4.6 -5.8,6.2 -3.7333,1.4667 -8.3333,2.1334 -13.8,2 -5.4667,-0.2666 -10.4,-1.4 -14.8,-3.4 -9.3333,-4 -16,-11.2 -20,-21.6 -3.8666,-10.3999 -3.9333,-21.2666 -0.2,-32.6 1.3334,-4.3999 4.2667,-9.1999 8.8,-14.4 4.6667,-5.3332 9.0667,-8.9332 13.2,-10.8 m 12.8,9.4 c -1.7333,-1.3332 -3,-1.9999 -3.8,-2 -0.6667,10e-5 -2.3333,0.6668 -5,2 -5.0666,2.8001 -9.2666,6.5334 -12.6,11.2 -3.2,4.6667 -5.0666,9.6667 -5.6,15 -0.5333,4.6667 -0.2666,7.4001 0.8,8.2 1.2,0.6667 3.6667,-0.1333 7.4,-2.4 5.0667,-2.9333 10,-7.3333 14.8,-13.2 4.8,-5.8666 7.2,-10.3999 7.2,-13.6 0,-2.1332 -1.0667,-3.8666 -3.2,-5.2"
         style="font-size:200px;font-variant:normal;font-weight:500;font-stretch:normal;font-family:My_Unprofessional_Handwriting;-inkscape-font-specification:My_Unprofessional_Handwriting Medium"
         id="path3016" />
      <path
         d="m 1121.1673,-897.95588 c 3.2,-1.33324 5.8,-2.06658 7.8,-2.2 2,-0.13324 4.5333,0.40009 7.6,1.6 2.8,0.93342 5.4,3.00008 7.8,6.2 2.5333,3.20008 3.8,6.06674 3.8,8.6 0,4.1334 -2.8667,10.06673 -8.6,17.8 -5.6,7.73338 -11.2667,13.33338 -17,16.8 -0.4,0.2667 -1,0.6667 -1.8,1.2 -5.4667,3.33337 -8.6,5.40003 -9.4,6.2 -0.6667,0.80003 -0.5333,2.0667 0.4,3.8 0.1333,0.26669 0.2,0.46669 0.2,0.6 0.9333,1.73336 2.9333,3.73336 6,6 3.2,2.26668 7.2,4.20002 12,5.8 4.9333,1.46668 10,1.06668 15.2,-1.2 5.7333,-2.39998 8.6,-1.26665 8.6,3.4 0,2.53334 -1.9334,4.60001 -5.8,6.2 -3.7334,1.46667 -8.3334,2.13334 -13.8,2 -5.4667,-0.26666 -10.4,-1.39999 -14.8,-3.4 -9.3333,-3.99999 -16,-11.19998 -20,-21.6 -3.8666,-10.39996 -3.9333,-21.26662 -0.2,-32.6 1.3333,-4.39993 4.2667,-9.19993 8.8,-14.4 4.6667,-5.33325 9.0667,-8.93325 13.2,-10.8 m 12.8,9.4 c -1.7333,-1.33325 -3,-1.99992 -3.8,-2 -0.6667,8e-5 -2.3333,0.66675 -5,2 -5.0667,2.80007 -9.2667,6.5334 -12.6,11.2 -3.2,4.66673 -5.0667,9.66672 -5.6,15 -0.5333,4.66671 -0.2667,7.40004 0.8,8.2 1.2,0.66671 3.6667,-0.13329 7.4,-2.4 5.0667,-2.93328 10,-7.33328 14.8,-13.2 4.8,-5.8666 7.2,-10.39993 7.2,-13.6 0,-2.13326 -1.0667,-3.86659 -3.2,-5.2"
         style="font-size:200px;font-variant:normal;font-weight:500;font-stretch:normal;font-family:My_Unprofessional_Handwriting;-inkscape-font-specification:My_Unprofessional_Handwriting Medium"
         id="path3026" />
      <path
         d="m 1255.4798,-902.35588 c 0.5333,-1.33324 1.6,-2.06657 3.2,-2.2 1.7333,-0.13324 3.2,0.40009 4.4,1.6 1.2,1.06676 1.8,3.60009 1.8,7.6 0,4.00008 0.5333,8.40008 1.6,13.2 1.0667,4.66673 2.0667,7.20006 3,7.6 0.6667,0.26673 2.6,-0.13327 5.8,-1.2 3.2,-1.0666 6.4666,-2.13327 9.8,-3.2 3.3333,-1.0666 6.6,-1.73326 9.8,-2 3.2,-0.2666 5.0666,0.46674 5.6,2.2 0.6666,1.7334 0.4,3.3334 -0.8,4.8 -1.0667,1.46673 -2.8,2.53339 -5.2,3.2 -2.9334,0.80006 -5.2667,1.46673 -7,2 -1.6,0.53339 -3.4,1.06672 -5.4,1.6 -1.8667,0.53339 -3.2667,1.06672 -4.2,1.6 -0.8,0.40005 -1.7333,0.80005 -2.8,1.2 -1.0667,0.40005 -1.8,0.86672 -2.2,1.4 -0.2667,0.53338 -0.6,1.06672 -1,1.6 -0.4,0.40005 -0.6667,1.00005 -0.8,1.8 0,0.66671 0,1.33338 0,2 0,0.53338 0.067,1.33338 0.2,2.4 0.8,9.73337 1.4667,15.93336 2,18.6 0.6667,2.53336 1.8667,4.86669 3.6,7 2.4,2.80002 5.1333,4.13335 8.2,4 3.2,-0.13332 7.1333,-1.73332 11.8,-4.8 8.2666,-5.59997 12.7333,-5.73331 13.4,-0.4 0.2666,2.40002 -0.9334,4.60002 -3.6,6.6 -7.2,5.06667 -14.1334,7.80001 -20.8,8.2 -6.5334,0.4 -12,-1.46666 -16.4,-5.6 -1.8667,-1.86665 -3.6,-5.19998 -5.2,-10 -1.4667,-4.79997 -2.4667,-10.39997 -3,-16.8 l -1,-9.4 -4.4,1 c -2.8,0.80005 -5.8667,1.20004 -9.2,1.2 -2,0.13338 -3.3333,4e-5 -4,-0.4 -0.5333,-0.39995 -0.8,-1.26662 -0.8,-2.6 0,-1.59995 0.7334,-2.93328 2.2,-4 1.6,-1.19995 4.9333,-2.93328 10,-5.2 2.4,-0.93328 3.8,-1.66661 4.2,-2.2 0.4,-0.66661 0.2,-1.66661 -0.6,-3 -0.8,-1.73327 -1.5333,-6.6666 -2.2,-14.8 -0.5333,-8.13325 -0.5333,-12.99991 0,-14.6"
         style="font-size:200px;font-variant:normal;font-weight:500;font-stretch:normal;font-family:My_Unprofessional_Handwriting;-inkscape-font-specification:My_Unprofessional_Handwriting Medium"
         id="path3028" />
      <path
         d="m 1333.9361,-895.15588 c 6.1333,-1.99991 11.2666,-2.59991 15.4,-1.8 4.2666,0.80009 8.6666,3.26675 13.2,7.4 2.5333,2.40008 4.4666,5.00007 5.8,7.8 1.3332,2.66673 2.6666,6.9334 4,12.8 3.1999,14.13338 2.7999,25.8667 -1.2,35.2 -3.8667,9.20001 -10.8001,14.86667 -20.8,17 -7.2001,1.46667 -13.5334,0.60001 -19,-2.6 -5.4667,-3.33332 -9.7334,-8.86665 -12.8,-16.6 -2.5334,-5.99997 -3.8667,-13.33329 -4,-22 -0.1334,-8.79994 0.8666,-15.2666 3,-19.4 1.8666,-3.33326 2.8,-5.59993 2.8,-6.8 0,-1.59993 1.4,-3.53326 4.2,-5.8 2.9333,-2.26659 6.0666,-3.99992 9.4,-5.2 m 19.6,10.8 c -2.5334,-1.73326 -5.7334,-2.46659 -9.6,-2.2 -3.8667,0.26674 -7.0667,1.46674 -9.6,3.6 -3.0667,2.5334 -5.2667,5.20007 -6.6,8 -1.2,2.80006 -2.0667,6.86672 -2.6,12.2 -0.5334,5.46671 -0.4,10.46671 0.4,15 0.9333,4.53337 2.2,8.13336 3.8,10.8 1.7333,2.66669 3.6,4.93335 5.6,6.8 2.1333,1.73335 3.9333,2.93335 5.4,3.6 1.4666,0.66668 2.5333,1.00001 3.2,1 3.0666,10e-6 6.0666,-0.86665 9,-2.6 3.0666,-1.73331 5.5999,-4.06665 7.6,-7 1.7333,-2.66664 2.7333,-4.9333 3,-6.8 0.2666,-1.86663 0.2666,-6.39996 0,-13.6 -0.2667,-8.13328 -1.2001,-14.39994 -2.8,-18.8 -1.4667,-4.39993 -3.7334,-7.73326 -6.8,-10"
         style="font-size:200px;font-variant:normal;font-weight:500;font-stretch:normal;font-family:My_Unprofessional_Handwriting;-inkscape-font-specification:My_Unprofessional_Handwriting Medium"
         id="path3030" />
      <path
         d="m 1495.7923,-893.75588 c 3.0666,-2.13325 5.8,-3.26658 8.2,-3.4 2.4,-0.13325 4.1333,0.73342 5.2,2.6 0.8,1.33342 0.8666,2.46675 0.2,3.4 -0.6667,0.80008 -3.8667,3.40008 -9.6,7.8 -3.4667,2.66674 -5,5.26673 -4.6,7.8 0.4,2.5334 3,6.60006 7.8,12.2 6.5333,7.60004 10.4666,13.66671 11.8,18.2 1.4666,4.53336 0.8666,9.00003 -1.8,13.4 -5.2,8.26668 -12,12.40001 -20.4,12.4 -3.8667,10e-6 -7.1333,-0.53332 -9.8,-1.6 -2.6667,-1.06666 -6.8667,-3.39999 -12.6,-7 -4.1333,-2.79998 -6.6666,-4.99998 -7.6,-6.6 -0.8,-1.73331 -0.2666,-3.46664 1.6,-5.2 1.3333,-1.3333 2.4667,-1.86664 3.4,-1.6 1.0667,0.2667 3.7333,1.8667 8,4.8 11.3333,7.60002 19.6667,8.86668 25,3.8 5.2,-4.79997 5,-10.59997 -0.6,-17.4 -7.3333,-9.06662 -11.6667,-14.66661 -13,-16.8 -1.2,-2.26661 -1.8,-5.06661 -1.8,-8.4 0,-7.0666 3.5333,-13.19992 10.6,-18.4"
         style="font-size:200px;font-variant:normal;font-weight:500;font-stretch:normal;font-family:My_Unprofessional_Handwriting;-inkscape-font-specification:My_Unprofessional_Handwriting Medium"
         id="path3032" />
      <path
         d="m 1520.0142,-925.15588 c 0.9333,-1.06655 2,-1.59988 3.2,-1.6 1.3333,1.2e-4 2.4,0.53345 3.2,1.6 2.2667,2.80011 4,16.6001 5.2,41.4 0.6666,13.60006 1.4,20.66672 2.2,21.2 0.5333,0.40005 1.6,-0.0666 3.2,-1.4 7.0666,-6.39994 13.8666,-8.73327 20.4,-7 6.6666,1.73339 11.5999,7.13339 14.8,16.2 1.0666,3.20004 1.7333,10.0667 2,20.6 0.2666,6.66668 0.2666,11.06668 0,13.2 -0.2667,2.13334 -0.9334,3.73334 -2,4.8 -1.6001,1.6 -3.2001,1.93334 -4.8,1 -0.6667,-0.53333 -1.2667,-1.46666 -1.8,-2.8 -0.4001,-1.33332 -0.7334,-3.19999 -1,-5.6 -0.1334,-2.39998 -0.2667,-4.86665 -0.4,-7.4 -0.1334,-2.53331 -0.3334,-5.66664 -0.6,-9.4 -0.1334,-3.86663 -0.3334,-7.3333 -0.6,-10.4 -0.1334,-1.73329 -1.4667,-3.93329 -4,-6.6 -2.5334,-2.79995 -4.5334,-4.19995 -6,-4.2 -2,5e-5 -4.8,1.80005 -8.4,5.4 -3.6,3.46671 -5.8667,6.66671 -6.8,9.6 -0.8,2.13337 -1.2,4.8667 -1.2,8.2 0,3.20002 0.1333,6.20002 0.4,9 0.2666,2.80002 0.4,5.46668 0.4,8 0.1333,2.53334 -0.2,4.60001 -1,6.2 -0.8,1.46667 -2.1334,2.2 -4,2.2 -1.7333,0 -3.1333,-0.66666 -4.2,-2 -1.4667,-1.73333 -3.5333,-20.13331 -6.2,-55.2 -2.5333,-35.19991 -3.2,-53.53322 -2,-55"
         style="font-size:200px;font-variant:normal;font-weight:500;font-stretch:normal;font-family:My_Unprofessional_Handwriting;-inkscape-font-specification:My_Unprofessional_Handwriting Medium"
         id="path3034" />
      <path
         d="m 1597.9986,-895.15588 c 6.1333,-1.99991 11.2666,-2.59991 15.4,-1.8 4.2666,0.80009 8.6666,3.26675 13.2,7.4 2.5333,2.40008 4.4666,5.00007 5.8,7.8 1.3332,2.66673 2.6666,6.9334 4,12.8 3.1999,14.13338 2.7999,25.8667 -1.2,35.2 -3.8667,9.20001 -10.8001,14.86667 -20.8,17 -7.2001,1.46667 -13.5334,0.60001 -19,-2.6 -5.4667,-3.33332 -9.7334,-8.86665 -12.8,-16.6 -2.5334,-5.99997 -3.8667,-13.33329 -4,-22 -0.1334,-8.79994 0.8666,-15.2666 3,-19.4 1.8666,-3.33326 2.8,-5.59993 2.8,-6.8 0,-1.59993 1.4,-3.53326 4.2,-5.8 2.9333,-2.26659 6.0666,-3.99992 9.4,-5.2 m 19.6,10.8 c -2.5334,-1.73326 -5.7334,-2.46659 -9.6,-2.2 -3.8667,0.26674 -7.0667,1.46674 -9.6,3.6 -3.0667,2.5334 -5.2667,5.20007 -6.6,8 -1.2,2.80006 -2.0667,6.86672 -2.6,12.2 -0.5334,5.46671 -0.4,10.46671 0.4,15 0.9333,4.53337 2.2,8.13336 3.8,10.8 1.7333,2.66669 3.6,4.93335 5.6,6.8 2.1333,1.73335 3.9333,2.93335 5.4,3.6 1.4666,0.66668 2.5333,1.00001 3.2,1 3.0666,10e-6 6.0666,-0.86665 9,-2.6 3.0666,-1.73331 5.5999,-4.06665 7.6,-7 1.7333,-2.66664 2.7333,-4.9333 3,-6.8 0.2666,-1.86663 0.2666,-6.39996 0,-13.6 -0.2667,-8.13328 -1.2001,-14.39994 -2.8,-18.8 -1.4667,-4.39993 -3.7334,-7.73326 -6.8,-10"
         style="font-size:200px;font-variant:normal;font-weight:500;font-stretch:normal;font-family:My_Unprofessional_Handwriting;-inkscape-font-specification:My_Unprofessional_Handwriting Medium"
         id="path3036" />
      <path
         d="m 1661.6704,-895.15588 c 6.1334,-1.99991 11.2667,-2.59991 15.4,-1.8 4.2667,0.80009 8.6667,3.26675 13.2,7.4 2.5333,2.40008 4.4667,5.00007 5.8,7.8 1.3333,2.66673 2.6667,6.9334 4,12.8 3.2,14.13338 2.8,25.8667 -1.2,35.2 -3.8667,9.20001 -10.8,14.86667 -20.8,17 -7.2,1.46667 -13.5333,0.60001 -19,-2.6 -5.4666,-3.33332 -9.7333,-8.86665 -12.8,-16.6 -2.5333,-5.99997 -3.8666,-13.33329 -4,-22 -0.1333,-8.79994 0.8667,-15.2666 3,-19.4 1.8667,-3.33326 2.8,-5.59993 2.8,-6.8 0,-1.59993 1.4,-3.53326 4.2,-5.8 2.9334,-2.26659 6.0667,-3.99992 9.4,-5.2 m 19.6,10.8 c -2.5333,-1.73326 -5.7333,-2.46659 -9.6,-2.2 -3.8666,0.26674 -7.0666,1.46674 -9.6,3.6 -3.0666,2.5334 -5.2666,5.20007 -6.6,8 -1.2,2.80006 -2.0666,6.86672 -2.6,12.2 -0.5333,5.46671 -0.4,10.46671 0.4,15 0.9334,4.53337 2.2,8.13336 3.8,10.8 1.7334,2.66669 3.6,4.93335 5.6,6.8 2.1334,1.73335 3.9334,2.93335 5.4,3.6 1.4667,0.66668 2.5333,1.00001 3.2,1 3.0667,10e-6 6.0667,-0.86665 9,-2.6 3.0667,-1.73331 5.6,-4.06665 7.6,-7 1.7333,-2.66664 2.7333,-4.9333 3,-6.8 0.2667,-1.86663 0.2667,-6.39996 0,-13.6 -0.2667,-8.13328 -1.2,-14.39994 -2.8,-18.8 -1.4667,-4.39993 -3.7333,-7.73326 -6.8,-10"
         style="font-size:200px;font-variant:normal;font-weight:500;font-stretch:normal;font-family:My_Unprofessional_Handwriting;-inkscape-font-specification:My_Unprofessional_Handwriting Medium"
         id="path3038" />
      <path
         d="m 1719.5423,-902.35588 c 0.5333,-1.33324 1.6,-2.06657 3.2,-2.2 1.7333,-0.13324 3.2,0.40009 4.4,1.6 1.2,1.06676 1.8,3.60009 1.8,7.6 0,4.00008 0.5333,8.40008 1.6,13.2 1.0667,4.66673 2.0667,7.20006 3,7.6 0.6667,0.26673 2.6,-0.13327 5.8,-1.2 3.2,-1.0666 6.4666,-2.13327 9.8,-3.2 3.3333,-1.0666 6.6,-1.73326 9.8,-2 3.2,-0.2666 5.0666,0.46674 5.6,2.2 0.6666,1.7334 0.4,3.3334 -0.8,4.8 -1.0667,1.46673 -2.8,2.53339 -5.2,3.2 -2.9334,0.80006 -5.2667,1.46673 -7,2 -1.6,0.53339 -3.4,1.06672 -5.4,1.6 -1.8667,0.53339 -3.2667,1.06672 -4.2,1.6 -0.8,0.40005 -1.7333,0.80005 -2.8,1.2 -1.0667,0.40005 -1.8,0.86672 -2.2,1.4 -0.2667,0.53338 -0.6,1.06672 -1,1.6 -0.4,0.40005 -0.6667,1.00005 -0.8,1.8 0,0.66671 0,1.33338 0,2 0,0.53338 0.067,1.33338 0.2,2.4 0.8,9.73337 1.4667,15.93336 2,18.6 0.6667,2.53336 1.8667,4.86669 3.6,7 2.4,2.80002 5.1333,4.13335 8.2,4 3.2,-0.13332 7.1333,-1.73332 11.8,-4.8 8.2666,-5.59997 12.7333,-5.73331 13.4,-0.4 0.2666,2.40002 -0.9334,4.60002 -3.6,6.6 -7.2,5.06667 -14.1334,7.80001 -20.8,8.2 -6.5334,0.4 -12,-1.46666 -16.4,-5.6 -1.8667,-1.86665 -3.6,-5.19998 -5.2,-10 -1.4667,-4.79997 -2.4667,-10.39997 -3,-16.8 l -1,-9.4 -4.4,1 c -2.8,0.80005 -5.8667,1.20004 -9.2,1.2 -2,0.13338 -3.3333,4e-5 -4,-0.4 -0.5333,-0.39995 -0.8,-1.26662 -0.8,-2.6 0,-1.59995 0.7334,-2.93328 2.2,-4 1.6,-1.19995 4.9333,-2.93328 10,-5.2 2.4,-0.93328 3.8,-1.66661 4.2,-2.2 0.4,-0.66661 0.2,-1.66661 -0.6,-3 -0.8,-1.73327 -1.5333,-6.6666 -2.2,-14.8 -0.5333,-8.13325 -0.5333,-12.99991 0,-14.6"
         style="font-size:200px;font-variant:normal;font-weight:500;font-stretch:normal;font-family:My_Unprofessional_Handwriting;-inkscape-font-specification:My_Unprofessional_Handwriting Medium"
         id="path3040" />
    </g>
  </g>
</svg>
