<?xml version="1.0" encoding="UTF-8" standalone="no"?>
<!-- Created with Inkscape (http://www.inkscape.org/) -->

<svg
   xmlns:dc="http://purl.org/dc/elements/1.1/"
   xmlns:cc="http://creativecommons.org/ns#"
   xmlns:rdf="http://www.w3.org/1999/02/22-rdf-syntax-ns#"
   xmlns:svg="http://www.w3.org/2000/svg"
   xmlns="http://www.w3.org/2000/svg"
   xmlns:sodipodi="http://sodipodi.sourceforge.net/DTD/sodipodi-0.dtd"
   xmlns:inkscape="http://www.inkscape.org/namespaces/inkscape"
   width="602.13"
   height="901.75"
   id="svg4073"
   version="1.1"
   inkscape:version="0.48.5 r10040"
   sodipodi:docname="Heidegger_cowboy.svg">
  <defs
     id="defs4075" />
  <sodipodi:namedview
     id="base"
     pagecolor="#ffffff"
     bordercolor="#666666"
     borderopacity="1.0"
     inkscape:pageopacity="0.0"
     inkscape:pageshadow="2"
     inkscape:zoom="5.6"
     inkscape:cx="271.37822"
     inkscape:cy="760.15421"
     inkscape:document-units="px"
     inkscape:current-layer="layer1"
     showgrid="false"
     fit-margin-top="0"
     fit-margin-left="0"
     fit-margin-right="0"
     fit-margin-bottom="0"
     inkscape:window-width="480"
     inkscape:window-height="1059"
     inkscape:window-x="654"
     inkscape:window-y="21"
     inkscape:window-maximized="0" />
  <metadata
     id="metadata4078">
    <rdf:RDF>
      <cc:Work
         rdf:about="">
        <dc:format>image/svg+xml</dc:format>
        <dc:type
           rdf:resource="http://purl.org/dc/dcmitype/StillImage" />
        <dc:title />
      </cc:Work>
    </rdf:RDF>
  </metadata>
  <g
     inkscape:label="Layer 1"
     inkscape:groupmode="layer"
     id="layer1"
     transform="translate(-70.939023,-81.486921)">
    <g
       transform="matrix(4.6679688,0,0,4.6679688,23.243999,-998.02774)"
       id="g4046">
      <path
         inkscape:connector-curvature="0"
         id="path3980"
         d="m 40,390 c -0.5,-0.5 -2.25,-4.5 -1.375,-7.875 0.875,-3.375 3,-4 3.5,-6.125 0.5,-2.125 1.25,-9.25 2.125,-10.875 0.875,-1.625 0.25,-3.875 2.75,-7 2.5,-3.125 5.875,-22.25 7.75,-22.375 1.875,-0.125 30.25,-0.5 30.25,-0.5 0,0 -1.625,2.625 -1,3.625 0.625,1 11.625,19.125 13,25.625 1.375,6.5 -0.5,17.375 -1.125,21.5 -0.625,4.125 -3.25,7.625 -3.25,7.625 0,0 -7.25,6.75 -7.375,6.125 -0.125,-0.625 -3.375,-9.875 -3.125,-11 0.25,-1.125 3.125,-20.25 2.375,-22.125 C 83.75,364.75 73.375,354.5 71.625,354.375 69.875,354.25 55.5,385.625 49.25,388.375 43,391.125 40,390 40,390 z"
         style="fill:#7295d9;fill-opacity:1;stroke:none" />
      <path
         inkscape:connector-curvature="0"
         id="path3982"
         d="m 60.375,415.625 c 2.125,-1.75 3.875,-1.125 4.375,-1.375 0.5,-0.25 0.875,-2 0.875,-2 l 3,-0.25 c 0,0 -2.625,2.25 -0.75,2.125 1.875,-0.125 2.375,-2.125 5.25,-1.75 2.875,0.375 5.25,0.5 5.25,0.5 0,0 4.125,4.625 1,3.875 -3.125,-0.75 -11.125,-0.5 -11.125,-0.5 0,0 1.5,3.875 0,4.125 -1.5,0.25 -1.625,-1.625 -3.5,-1.625 -1.875,0 -2.75,1.5 -2.75,1.5 0,0 -0.75,-0.125 -1.125,-2.375 -0.375,-2.25 -0.5,-2.25 -0.5,-2.25 z"
         style="fill:#878986;fill-opacity:1;stroke:none" />
      <path
         inkscape:connector-curvature="0"
         id="path3984"
         d="m 13.625,397.5 c 0,0 0.25,-3.25 1.125,-3.125 0.875,0.125 0.375,3.125 2,3.875 1.625,0.75 6.25,3.75 7.875,4.75 1.625,1 0.875,3.25 0.875,3.25 0,0 -5.625,-3.875 -6.875,-4.375 -1.25,-0.5 -1.125,-0.5 -1.875,0.375 -0.75,0.875 -1.375,-0.5 -4.375,-1 -3,-0.5 -2.5,-1.75 -0.75,-2.875 1.75,-1.125 2,-0.875 2,-0.875 z"
         style="fill:#928d93;fill-opacity:1;stroke:none" />
      <path
         inkscape:connector-curvature="0"
         id="path3986"
         d="m 76.625,417.75 c 0,-1 -0.125,-24.625 0.625,-27.875 0.75,-3.25 3.625,-7 8.5,-5.75 4.875,1.25 5.75,7.625 5.875,9.875 0.125,2.25 -1.5,10 -0.25,10.375 1.25,0.375 12.375,0.375 13.625,1 1.25,0.625 3.5,2.375 2,5 -1.5,2.625 -13.375,2.5 -15,3.125 -1.625,0.625 -4,0.75 -4,0.75 0,0 1.375,3.875 -5,5 -6.375,1.125 -5.75,1.5 -6.375,-1.5 z"
         style="fill:#906749;fill-opacity:1;stroke:none" />
      <path
         inkscape:connector-curvature="0"
         id="path3990"
         d="m 19.125,410.125 c 0,-0.875 7.875,-22.625 15.625,-25.5 7.75,-2.875 21,2.5 13.5,10.75 -7.5,8.25 -10.75,10 -10.625,11 0.125,1 10.25,9.75 9.125,14.625 -1.125,4.875 -5.375,3.875 -7.25,1.25 -1.875,-2.625 -8.875,-8.375 -8.875,-8.375 0,0 -2.25,0.375 -4.5,2.125 -2.25,1.75 -7,-5.875 -7,-5.875 z"
         style="fill:#906749;fill-opacity:1;stroke:none" />
      <path
         sodipodi:nodetypes="csssscscssc"
         inkscape:connector-curvature="0"
         id="path3992"
         d="m 46.75,254.25 c 4,-5.625 8.625,-13.625 18,-6.25 9.375,7.375 11.40165,18.68046 9.375,21.375 -0.586832,0.78023 2.625,3.75 2.125,5 -0.5,1.25 -3.757583,6.90663 -7.132583,6.53163 -3.375,-0.375 -2.992417,6.46837 -2.992417,6.46837 0,0 -13.75,1.125 -13.875,0.125 -0.125,-1 -0.5,-9.875 -0.5,-9.875 0,0 -4.25,-10 -4.375,-12.75 -0.125,-2.75 -0.75,-8.75 -0.625,-9.875 0.125,-1.125 0,-0.75 0,-0.75 z"
         style="fill:#fedec5;fill-opacity:1;stroke:none" />
      <path
         inkscape:connector-curvature="0"
         id="path3994"
         d="m 46,332.375 c -7,2.375 -5.25,4.125 -7,2.125 -1.75,-2 -8.625,-9.75 -9,-16.625 -0.375,-6.875 4.875,-15 6.25,-16.5 1.375,-1.5 9.875,-15.75 11.75,-16.5 1.875,-0.75 7,0.125 8.875,0.5 C 58.75,285.75 69,285.25 70.75,284 c 1.75,-1.25 0.125,-2.875 4.25,-3.375 4.125,-0.5 23.375,-3.875 29.875,-9.75 6.5,-5.875 8.375,-8.5 9,-10.875 0.625,-2.375 -1.25,-4.875 0.875,-4.75 2.125,0.125 11.5,1.125 11.75,2.375 0.25,1.25 -2.875,7.625 -4,9.625 -1.125,2 -8.25,11.625 -9.75,13 -1.5,1.375 -20.25,11 -26.75,11.625 -6.5,0.625 -6.5,3.75 -6.5,3.75 0,0 10.375,23.875 10.125,30.125 -0.25,6.25 -1.5,12.25 -4.75,13 -3.25,0.75 -15.625,2.625 -18.125,2.375 -2.5,-0.25 -5.5,0.875 -8,-3 -2.5,-3.875 -7,-4.75 -6.5,-7.625 0.5,-2.875 -2.375,-12.375 -2.375,-16.25 0,-3.875 2,-4 -0.75,-5.25 -2.75,-1.25 -4.375,0.75 -5.25,2.625 -0.875,1.875 -1.75,5.25 -0.625,7.25 1.125,2 3.5,9.375 2.75,13.5 z"
         style="fill:#434544;fill-opacity:1;stroke:none" />
      <path
         inkscape:connector-curvature="0"
         id="path3996"
         d="m 49.375,284.125 c 0,0 3.125,10.875 3,13.75 C 52.25,300.75 50.25,307.5 49,308.125 47.75,308.75 48.5,333.5 48.5,333.5 l 0.25,23.5 c 0,0 -0.125,8.75 -0.5,9.5 -0.375,0.75 -2.5,5.125 -0.375,5.5 2.125,0.375 10,-7.375 10.25,-8.5 0.25,-1.125 4.25,-9.625 2.875,-13 -1.375,-3.375 -5.125,-7.375 -5.625,-8.375 -0.5,-1 17,0.125 17.5,-0.125 0.5,-0.25 13.375,-1.75 15.625,-3.375 2.25,-1.625 6.125,-5 6,-6.125 -0.125,-1.125 -3.75,-14 -4,-16 -0.25,-2 -0.125,-13.25 -3.875,-17.375 C 82.875,295 72.75,285.625 72.375,285 72,284.375 65.5,282.375 67.125,285.25 c 1.625,2.875 11.375,17.375 12,18.5 0.625,1.125 5.75,12.375 5.75,13.75 0,1.375 3.125,9.875 2.5,12.375 -0.625,2.5 -0.625,6.125 -3,6.25 -2.375,0.125 -13.875,3.375 -15.5,2.75 -1.625,-0.625 -6.25,-43 -8.25,-46.75 -2,-3.75 -1.125,-7.375 -5.75,-9.5 -4.625,-2.125 -5.5,1.5 -5.5,1.5 z"
         style="fill:#906844;fill-opacity:1;stroke:none" />
      <path
         inkscape:connector-curvature="0"
         id="path3998"
         d="m 72.75,338.875 c 1.375,-3.25 -1.25,-4.5 3.625,-4.75 4.875,-0.25 6.125,0 6.25,2.25 0.125,2.25 0.75,6.625 -2.625,6.75 -3.375,0.125 -6.75,0.625 -7.25,-4.25 z"
         style="fill:#dfdad4;fill-opacity:1;stroke:none" />
      <path
         inkscape:connector-curvature="0"
         id="path4002"
         d="m 110.375,245.875 c 0.375,0.625 3.75,8.375 4.375,8.75 0.625,0.375 4.625,2.75 11.25,2 6.625,-0.75 11.25,-3 11.625,-3.875 0.375,-0.875 3.125,-4.125 -0.5,-4.25 -3.625,-0.125 -6.25,2.625 -6.5,1.5 -0.25,-1.125 4.625,-6.125 7,-9.375 C 140,237.375 139,235.5 139,235.5 c 0,0 -1.625,-1.625 -3.25,-0.125 -1.625,1.5 -7.25,11.375 -8.75,10.75 -1.5,-0.625 -1.375,-5.25 -0.5,-7.125 0.875,-1.875 2.75,-4.625 2.875,-5.125 0.125,-0.5 -1.75,-5.625 -4.625,0 -2.875,5.625 -1.625,11.125 -2.625,11.375 -1,0.25 -2.375,1.5 -2.25,-1.5 0.125,-3 0,-9.375 0,-9.375 0,0 -2.875,-3.5 -4,3.125 -1.125,6.625 2,8.625 0.5,9.125 -1.5,0.5 -1,-2.5 -3,-3.25 -2,-0.75 -3,2.5 -3,2.5 z"
         style="fill:#fedec7;fill-opacity:1;stroke:none" />
      <path
         inkscape:connector-curvature="0"
         id="path4000"
         d="m 39.625,334.875 c 5.125,-2.875 5.875,-2.5 7.5,-2.125 1.625,0.375 6.375,2.75 7.25,3.25 0.875,0.5 2.625,2.75 1.25,3.125 -1.375,0.375 -4.875,1.125 -5.25,0.25 -0.375,-0.875 -1,0.5 0.625,2.125 1.625,1.625 6.875,5 6.5,6.125 -0.375,1.125 -3.875,1.75 -4.375,0.625 -0.5,-1.125 -1,0.125 -1,0.125 0,0 2.625,3 2,4 -0.625,1 -2.125,1.5 -3.25,0.125 -1.125,-1.375 -2.75,-3.75 -2.75,-3.75 0,0 0.625,5.375 0.125,5.5 -0.5,0.125 -3.75,0.875 -3.875,-3.875 -0.125,-4.75 -0.875,2.375 -1.75,2.375 -0.875,0 -3.5,2.875 -3.125,-6.125 0.375,-9 0.125,-11.75 0.125,-11.75 z"
         style="fill:#fedec7;fill-opacity:1;stroke:none" />
      <path
         inkscape:connector-curvature="0"
         id="path4004"
         d="m 56.125,275.5 c 0.3125,0 5.6875,4.9375 13.3125,4.875"
         style="fill:none;stroke:#000000;stroke-width:1px;stroke-linecap:butt;stroke-linejoin:miter;stroke-opacity:1" />
      <path
         sodipodi:nodetypes="cssc"
         inkscape:connector-curvature="0"
         id="path4008"
         d="m 58.3125,286.1875 c 0.4375,0.25 10.4375,15.5625 11.875,13.5 1.4375,-2.0625 2.070083,-16.93566 1.195083,-17.93566 -0.875,-1 -8.695083,-3.18934 -13.070083,4.43566 z"
         style="fill:#bd0d18;fill-opacity:1;stroke:none" />
      <path
         inkscape:connector-curvature="0"
         id="path4018"
         d="m 57.3125,258.9375 c 0.4375,0 2.5,2.4375 4.625,1.9375 2.125,-0.5 3.1875,-1 2.8125,-1.875 -0.375,-0.875 -0.9375,-2.375 -2,-3.5 -1.0625,-1.125 -5.25,2.125 -5.3125,2.4375 -0.0625,0.3125 -0.125,1 -0.125,1 z"
         style="fill:#fffffb;fill-opacity:1;stroke:none" />
      <path
         inkscape:connector-curvature="0"
         id="path4020"
         d="m 57.1875,257.25 c 5.0625,-1.9375 1.875,-2.1875 6,-1.8125"
         style="fill:none;stroke:#000000;stroke-width:1px;stroke-linecap:butt;stroke-linejoin:miter;stroke-opacity:1" />
      <path
         inkscape:connector-curvature="0"
         id="path4022"
         d="m 65.6875,252.5 c 4.0625,-1.25 3,-0.375 4.125,-1.25"
         style="fill:none;stroke:#000000;stroke-width:1px;stroke-linecap:butt;stroke-linejoin:miter;stroke-opacity:1" />
      <rect
         y="258.6875"
         x="62.75"
         height="0.5"
         width="0.5"
         id="rect4024"
         style="fill:#9c0000;fill-opacity:1;stroke:#000000;stroke-opacity:1" />
      <path
         inkscape:connector-curvature="0"
         id="path4028"
         d="m 65.5,255.125 c 0,0 2.221981,3.45364 4.6875,4.625 2.653878,1.26085 1.5,-3.0625 1.375,-4.125 -0.125,-1.0625 0.375,-4.6875 -3.1875,-3 -3.5625,1.6875 -2.875,2.5 -2.875,2.5 z"
         style="fill:#faffff;fill-opacity:1;stroke:none"
         sodipodi:nodetypes="csssc" />
      <rect
         y="254.4375"
         x="69.625"
         height="1.5625"
         width="1.5625"
         id="rect4030"
         style="fill:#080c0d;fill-opacity:1;stroke:none" />
      <path
         sodipodi:nodetypes="cssssc"
         inkscape:connector-curvature="0"
         id="path4034"
         d="m 68.21875,272.34375 c 0.25,1.0625 1.28125,2.03125 3.34375,1.15625 2.0625,-0.875 3.625,-1.4375 3.4375,-2.875 -0.1875,-1.4375 -0.8125,-2.75 -1.8125,-2.375 -1,0.375 -4.375,2.625 -4.75,3.1875 -0.375,0.5625 -0.21875,0.90625 -0.21875,0.90625 z"
         style="fill:#000000;fill-opacity:1;stroke:#000000;stroke-width:1px;stroke-linecap:butt;stroke-linejoin:miter;stroke-opacity:1" />
      <path
         sodipodi:nodetypes="cssssc"
         inkscape:connector-curvature="0"
         id="path4036"
         d="m 74.625,264.4375 c 0.3125,0.125 1.6875,2.1875 0.875,3 -0.8125,0.8125 -2.125,2.5625 -3.75,2.625 -1.625,0.0625 -3.09375,2.46875 -4.15625,1.90625 -1.0625,-0.5625 0.78125,-4.21875 2.65625,-5.09375 1.875,-0.875 4.375,-2.4375 4.375,-2.4375 z"
         style="fill:#696d74;fill-opacity:1;stroke:none" />
      <path
         inkscape:connector-curvature="0"
         id="path4032"
         d="m 66.6875,257.25 c 0,0 8.6875,4.6875 7.9375,6.1875 -0.75,1.5 -2.5625,3.1875 -3.875,3.5 -1.3125,0.3125 -1.3125,-0.375 -1.5,-1.875"
         style="fill:none;stroke:#000000;stroke-width:1px;stroke-linecap:butt;stroke-linejoin:miter;stroke-opacity:1" />
      <path
         sodipodi:nodetypes="cssscssssc"
         inkscape:connector-curvature="0"
         id="path4040"
         d="m 53.125,273.9375 c -0.25,0.3125 -1.375,6.875 -3.25,1.8125 -1.875,-5.0625 -7.227931,-13.05907 -5.125,-18.6875 2.125,-5.6875 6.290331,-11.625 10.3125,-11.5625 0.562432,0.009 -4.375,4.5 -4.375,4.5 0,0 -2.5,3.1875 -2.625,5.125 -0.125,1.9375 -0.6875,4.6875 0.25,5.8125 0.9375,1.125 1.75,4.9375 1.75,5.1875 0,0.25 1.5625,4.5625 2,5 0.4375,0.4375 1.0625,2.8125 1.0625,2.8125 z"
         style="fill:#726e6f;fill-opacity:1;stroke:none" />
      <path
         sodipodi:nodetypes="csc"
         inkscape:connector-curvature="0"
         id="path4042"
         d="m 50.3125,267.8125 c 0,0 2.284965,6.86862 2.6875,5.5 0.3125,-1.0625 0.84283,-2.73483 0.84283,-2.73483"
         style="fill:none;stroke:#000000;stroke-width:1px;stroke-linecap:butt;stroke-linejoin:miter;stroke-opacity:1" />
      <path
         inkscape:connector-curvature="0"
         id="path4044"
         d="m 56,275.8125 c 0,0 7.3125,4.625 12.875,4.6875"
         style="fill:none;stroke:#000000;stroke-width:1px;stroke-linecap:butt;stroke-linejoin:miter;stroke-opacity:1" />
    </g>
  </g>
</svg>
