<?xml version="1.0" encoding="UTF-8" standalone="no"?>
<!-- Created with Inkscape (http://www.inkscape.org/) -->

<svg
   xmlns:dc="http://purl.org/dc/elements/1.1/"
   xmlns:cc="http://creativecommons.org/ns#"
   xmlns:rdf="http://www.w3.org/1999/02/22-rdf-syntax-ns#"
   xmlns:svg="http://www.w3.org/2000/svg"
   xmlns="http://www.w3.org/2000/svg"
   xmlns:sodipodi="http://sodipodi.sourceforge.net/DTD/sodipodi-0.dtd"
   xmlns:inkscape="http://www.inkscape.org/namespaces/inkscape"
   width="690.21735"
   height="744.56171"
   id="svg3829"
   version="1.1"
   inkscape:version="0.48.5 r10040"
   sodipodi:docname="New document 3">
  <defs
     id="defs3831" />
  <sodipodi:namedview
     id="base"
     pagecolor="#ffffff"
     bordercolor="#666666"
     borderopacity="1.0"
     inkscape:pageopacity="0.0"
     inkscape:pageshadow="2"
     inkscape:zoom="0.5"
     inkscape:cx="204.28717"
     inkscape:cy="259.68054"
     inkscape:document-units="px"
     inkscape:current-layer="layer1"
     showgrid="false"
     fit-margin-top="0"
     fit-margin-left="0"
     fit-margin-right="0"
     fit-margin-bottom="0"
     inkscape:window-width="960"
     inkscape:window-height="1059"
     inkscape:window-x="960"
     inkscape:window-y="21"
     inkscape:window-maximized="0" />
  <metadata
     id="metadata3834">
    <rdf:RDF>
      <cc:Work
         rdf:about="">
        <dc:format>image/svg+xml</dc:format>
        <dc:type
           rdf:resource="http://purl.org/dc/dcmitype/StillImage" />
        <dc:title></dc:title>
      </cc:Work>
    </rdf:RDF>
  </metadata>
  <g
     inkscape:label="Layer 1"
     inkscape:groupmode="layer"
     id="layer1"
     transform="translate(-23.462731,-142.93847)">
    <g
       transform="matrix(3.5748756,0,0,3.9130615,-835.04772,-803.20285)"
       id="g3837">
      <path
         inkscape:connector-curvature="0"
         id="path3785"
         d="m 334.5499,260.70698 c 0.17677,11.04854 2.74003,28.1075 7.07106,28.63783 4.33103,0.53033 14.84925,-2.82843 17.76606,-7.6014 2.91682,-4.77297 5.12652,-10.16466 5.12652,-10.16466 l 0.70711,-1.67938 c 0,0 1.23744,0.26516 1.59099,0.17678 0.35356,-0.0884 0,-3.44715 -1.06066,-3.62393 -1.06066,-0.17677 -1.14905,-6.98268 -1.14905,-6.98268 l -13.70019,-6.62912 z"
         style="fill:#fddec1;fill-opacity:1;stroke:none" />
      <path
         inkscape:connector-curvature="0"
         id="path3787"
         d="m 365.54642,266.98208 c -2.7982,-1.40751 -6.70267,-8.07464 -6.70267,-8.07464 l 5.95431,-0.40744 0.0325,1.33343 c 0,0 0.5206,6.77825 0.71582,7.14865 z"
         style="fill:#000000;fill-opacity:1;stroke:none" />
      <path
         inkscape:connector-curvature="0"
         id="path2989"
         d="m 322.92683,255.75723 c -0.13258,-0.92808 0.0442,-3.84489 1.85615,-4.11006 1.81196,-0.26516 4.24264,0.61872 5.21492,0.92808 0.97227,0.30936 4.81716,1.59099 5.87782,1.32583 1.06066,-0.26517 2.2981,0.35355 2.47487,-1.10486 0.17678,-1.4584 0.61872,-7.20365 1.37002,-7.6014 0.7513,-0.39774 14.36311,-7.513 17.58928,0.0884 3.22618,7.6014 12.63954,11.09274 18.87092,4.46361 6.23138,-6.62912 0.83969,6.76171 0.83969,6.76171 0,0 -3.49134,3.8007 -10.25305,3.27037 -6.76171,-0.53033 -32.83627,0.48614 -32.83627,0.48614 0,0 -6.40816,3.31456 -11.00435,-4.50781 z"
         style="fill:#906844;fill-opacity:1;stroke:none" />
      <path
         transform="translate(0.35355339,-0.53033008)"
         d="m 341.88612,268.44095 c 0,2.514 -1.84014,4.552 -4.11006,4.552 -2.26992,0 -4.11006,-2.038 -4.11006,-4.552 0,-2.514 1.84014,-4.552 4.11006,-4.552 2.26992,0 4.11006,2.038 4.11006,4.552 z"
         sodipodi:ry="4.552"
         sodipodi:rx="4.1100583"
         sodipodi:cy="268.44095"
         sodipodi:cx="337.77606"
         id="path3767"
         style="fill:#ffffff;fill-opacity:1;stroke:#000000;stroke-opacity:1"
         sodipodi:type="arc" />
      <path
         d="m 354.08373,267.33612 c 0,2.88012 -1.99843,5.21491 -4.46361,5.21491 -2.46519,0 -4.46361,-2.33479 -4.46361,-5.21491 0,-2.88012 1.99842,-5.21491 4.46361,-5.21491 2.46518,0 4.46361,2.33479 4.46361,5.21491 z"
         sodipodi:ry="5.2149124"
         sodipodi:rx="4.4636116"
         sodipodi:cy="267.33612"
         sodipodi:cx="349.62012"
         id="path3769"
         style="fill:#ffffff;fill-opacity:1;stroke:#000000;stroke-opacity:1"
         sodipodi:type="arc" />
      <rect
         y="268.48517"
         x="335.61057"
         height="0.53034389"
         width="0.7070967"
         id="rect3773"
         style="fill:#0001ff;fill-opacity:1;stroke:#000000;stroke-opacity:1" />
      <rect
         y="267.33612"
         x="349.31076"
         height="0.81363857"
         width="0.97226393"
         id="rect3775"
         style="fill:#0001ff;fill-opacity:1;stroke:#000000;stroke-width:0.82690763;stroke-opacity:1" />
      <path
         inkscape:connector-curvature="0"
         id="path3777"
         d="m 342.0629,267.15933 c 2.91682,-0.0884 2.82843,0 2.82843,0"
         style="fill:none;stroke:#000000;stroke-width:1px;stroke-linecap:butt;stroke-linejoin:miter;stroke-opacity:1" />
      <path
         sodipodi:nodetypes="cc"
         inkscape:connector-curvature="0"
         id="path3779"
         d="m 354.2605,266.71739 10.95251,-0.56785"
         style="fill:none;stroke:#000000;stroke-width:1.12751651px;stroke-linecap:butt;stroke-linejoin:miter;stroke-opacity:1" />
      <path
         inkscape:connector-curvature="0"
         id="path3781"
         d="m 342.32807,269.28065 c 0,9.45755 -0.17678,9.54594 -0.17678,9.54594 0,0 3.27037,0.35356 3.88909,-1.5026"
         style="fill:none;stroke:#000000;stroke-width:1px;stroke-linecap:butt;stroke-linejoin:miter;stroke-opacity:1" />
      <path
         inkscape:connector-curvature="0"
         id="path3797"
         d="m 336.0083,261.63506 c 6.31977,3.13778 6.01041,2.961 6.01041,2.961"
         style="fill:none;stroke:#000000;stroke-width:1px;stroke-linecap:butt;stroke-linejoin:miter;stroke-opacity:1" />
      <path
         inkscape:connector-curvature="0"
         id="path3799"
         d="m 344.80015,263.96406 c 5.9893,-3.52657 4.90853,-2.89495 7.97073,-3.26339"
         style="fill:none;stroke:#000000;stroke-width:1.10163414px;stroke-linecap:butt;stroke-linejoin:miter;stroke-opacity:1" />
      <path
         inkscape:connector-curvature="0"
         id="path3805"
         d="m 288,314.75 c 3.75,6.75 3.25,9 5.75,6.875 2.5,-2.125 32.5,-17.375 34.375,-16.5 1.875,0.875 3.75,26.875 4.125,31.125 0.375,4.25 -0.25,22 -2,23.25 -1.75,1.25 -10.75,24.5 -11.375,28.375 -0.625,3.875 5.875,13.5 7.875,9.625 2,-3.875 7.125,-5.625 6.875,-9.875 -0.25,-4.25 2.5,-15.5 3.125,-16.875 0.625,-1.375 6.125,-14.125 6.625,-14.875 0.5,-0.75 0,-4.5 1.5,-4.75 1.5,-0.25 2.875,4.625 3.625,11.125 0.75,6.5 2.875,19.375 2.625,21.375 -0.25,2 0.625,14 3.875,12.75 3.25,-1.25 6.25,-1.25 8.25,-6.875 2,-5.625 1.25,-11.875 1.25,-11.875 0,0 -1.125,-17.375 -1.25,-21.125 -0.125,-3.75 -1.5,-8.25 -1.5,-12.625 0,-4.375 1.125,-49.875 1.875,-49.875 0.75,0 33.125,13.375 40.125,12.25 7,-1.125 11.375,-7.75 8.875,-10.125 -2.5,-2.375 -26.125,-14.625 -46.125,-10.375 -20,4.25 -29.625,9.125 -30.375,9.125 -0.75,0 -5.625,-0.375 -6.25,-0.25 -0.625,0.125 -3.375,0 -7.125,1.25 -3.75,1.25 -32.875,11.75 -33.75,12.625 -0.875,0.875 -5.375,1.75 -3.75,3.75 1.625,2 2.75,2.5 2.75,2.5 z"
         style="fill:#7a91d5;fill-opacity:1;stroke:none" />
      <path
         inkscape:connector-curvature="0"
         id="path3807"
         d="m 353.28822,341.31715 c 2.74004,0 5.65686,2.38649 5.30331,-0.35355 -0.35356,-2.74004 -1.76777,-30.84753 -1.50261,-31.81981 0.26517,-0.97227 -2.74004,-7.60139 -1.94454,-12.55114 0.7955,-4.94975 0.88388,-8.39689 2.74004,-9.81111 1.85615,-1.41421 3.18198,-1.23743 4.68458,-1.41421 1.5026,-0.17678 5.21491,-1.59099 6.62913,8.22012 1.41421,9.8111 5.74524,46.75743 5.3033,48.87875 -0.44194,2.12132 0,5.74524 -3.71231,5.12653 -3.71231,-0.61872 -5.12653,-1.67938 -6.01041,-0.44195 -0.88388,1.23744 2.20971,-0.53033 2.38649,2.20971 0.17677,2.74004 1.85615,14.58408 0.7071,16.35185 -1.14905,1.76776 -5.03813,2.91681 -5.74524,0.0884 -0.70711,-2.82843 -1.67938,-16.08668 -3.62392,-18.38478 -1.94455,-2.2981 -1.94455,-2.91682 -4.24264,-3.0052 -2.2981,-0.0884 -15.37958,0.79549 -15.99829,0.79549 -0.61872,0 -14.84925,2.82843 -16.35185,-1.41421 -1.5026,-4.24264 8.83884,-49.49748 10.07627,-51.17686 1.23744,-1.67937 6.80591,-4.5078 7.68979,-4.06586 0.88388,0.44194 5.12652,4.41942 3.09359,7.86656 -2.03293,3.44715 -2.38648,10.6066 -3.18198,12.10921 -0.79549,1.5026 -2.47487,5.3033 -2.82843,9.8111 -0.35355,4.50781 -0.53033,15.37958 -0.61871,17.05895 -0.0884,1.67938 -0.97228,3.97748 0.53033,5.03814 1.5026,1.06066 16.617,0.88388 16.617,0.88388 z"
         style="fill:#8f6945;fill-opacity:1;stroke:none" />
      <path
         inkscape:connector-curvature="0"
         id="path3803"
         d="m 340.5,289.87058 c 0,0 3.25,17.72964 6.125,18.31628 2.875,0.58665 14.0625,-15.70898 14.25,-22.03169 0.1875,-6.3227 -1.8125,-5.2146 -1.8125,-5.2146 l -18.5,7.36563 z"
         style="fill:#a91a1e;fill-opacity:1;stroke:none" />
      <path
         sodipodi:nodetypes="csscssc"
         inkscape:connector-curvature="0"
         id="path3801"
         d="m 344.71875,279.09375 c 0,0 6.46875,4.375 9.40625,3.03125 2.9375,-1.34375 5.90625,-2.4375 6.8125,-3.4375 0.90625,-1 -1.75,3.9375 -2,4.03125 -2.125,3.1562 -14.22061,8.09979 -17.1875,6.9375 -3.03125,-1.1875 -4.7626,-7.20198 -5.03125,-8.84375 -0.28125,-1.71875 7.09375,-1.03125 8,-1.71875 z"
         style="fill:#d3c7b9;fill-opacity:1;stroke:none" />
      <path
         inkscape:connector-curvature="0"
         id="path3809"
         d="m 339.94158,338.22356 c 5.12653,-2.2981 9.28078,-3.53553 11.49049,-0.53033 2.20971,3.0052 2.47487,6.18719 2.03293,7.51301 -0.44194,1.32583 -3.35876,3.35876 -8.39689,3.0052 -5.03814,-0.35355 -5.3033,-0.53033 -5.21491,-5.3033 0.0884,-4.77297 0.0884,-4.68458 0.0884,-4.68458 z"
         style="fill:#c6c3ce;fill-opacity:1;stroke:none" />
      <path
         inkscape:connector-curvature="0"
         id="path3811"
         d="m 357.79603,299.50947 c 3.0052,0.53033 3.53553,0.35355 2.82843,2.47487 -0.70711,2.12132 -2.03293,5.03813 -0.53033,4.68458 1.5026,-0.35355 1.59099,-3.97747 3.09359,-3.09359 1.5026,0.88388 3.44715,4.15425 4.15425,3.18198 0.70711,-0.97227 0.44194,-2.82843 0,-4.41942 -0.44194,-1.59099 -1.14905,-3.44714 0,-3.44714 1.14905,0 2.03293,-0.61872 1.67938,-1.50261 -0.35355,-0.88388 -3.27037,-0.88388 -3.8007,-1.06066 -0.53033,-0.17677 -0.0884,-5.21491 -1.59099,-2.29809 -1.5026,2.91681 -3.8007,3.18198 -5.21491,3.0052 -1.41421,-0.17678 -0.61872,2.47488 -0.61872,2.47488 z"
         style="fill:#ecb02c;fill-opacity:1;stroke:none" />
      <path
         inkscape:connector-curvature="0"
         id="path3813"
         d="m 411.8897,298.27203 c 4.41942,-1.23744 5.03813,-0.61872 7.24784,-2.74004 2.20971,-2.12132 3.88909,-3.97748 5.74525,-3.27037 1.85615,0.70711 4.06586,2.20971 2.2097,3.71231 -1.85615,1.5026 -6.71751,2.91682 -4.86135,3.18198 1.85615,0.26517 6.98268,-0.35355 9.104,0.44194 2.12132,0.7955 2.47487,3.88909 0.97227,4.24264 -1.5026,0.35356 -10.87177,0.61872 -10.87177,0.61872 0,0 6.8059,3.53554 6.71751,6.45235 -0.0884,2.91682 -3.0052,2.20971 -3.88908,1.59099 -0.88389,-0.61872 -5.56847,-2.91681 -5.56847,-2.91681 0,0 5.39169,3.97747 5.12653,7.33623 -0.26517,3.35876 -7.42463,-1.5026 -10.51822,-5.39169 -3.09359,-3.88909 -0.26516,7.95495 -1.5026,9.54594 -1.23744,1.59099 -7.07107,1.32583 -5.92202,-12.63953 1.14905,-13.96536 6.01041,-10.16466 6.01041,-10.16466 z"
         style="fill:#ffdfbc;fill-opacity:1;stroke:none" />
      <path
         inkscape:connector-curvature="0"
         id="path3783"
         d="m 340.20675,284.12989 c 0,0 4.41942,-3.35875 10.87177,-0.26516"
         style="fill:none;stroke:#000000;stroke-width:1px;stroke-linecap:butt;stroke-linejoin:miter;stroke-opacity:1" />
      <path
         inkscape:connector-curvature="0"
         id="path3815"
         d="m 240.15114,300.7469 0.17678,6.27557 c 0,0 19.97576,0.26517 20.32932,0.44195 0.35355,0.17677 0.79549,5.21491 7.33623,4.77297 6.54074,-0.44194 8.92722,0.17677 8.92722,0.17677 0,0 2.38649,3.8007 2.47488,4.15426 0.0884,0.35355 0.53033,6.89429 -0.17678,9.104 -0.70711,2.2097 -0.0884,3.53553 3.44715,3.27036 3.53553,-0.26516 5.65685,-2.74003 5.56846,-7.07106 -0.0884,-4.33103 -0.88388,-7.86657 -0.88388,-7.86657 0,0 -4.41942,-5.3033 -3.62392,-6.89429 0.79549,-1.59099 1.94454,-2.65165 2.29809,-3.18198 0.35356,-0.53033 1.32583,-4.5078 0.7955,-4.77297 -0.53033,-0.26516 -2.12132,-3.53553 -2.82843,-0.0884 -0.70711,3.44715 -0.79549,4.15426 -0.79549,4.15426 0,0 -33.58758,0.97227 -34.2063,0.61871 -0.61871,-0.35355 -1.76776,1.14905 -3.53553,-1.41421 -1.76777,-2.56326 -5.3033,-1.67938 -5.3033,-1.67938 z"
         style="fill:#6d6d79;fill-opacity:1;stroke:none" />
      <path
         inkscape:connector-curvature="0"
         id="path3821"
         d="m 364.8671,416.35886 c 1.23744,0.0884 6.62912,0.61872 7.42462,0.0884 0.79549,-0.53033 5.12652,-2.2981 5.92202,-3.88909 0.79549,-1.59099 1.14905,-3.35876 2.2981,-1.85615 1.14904,1.5026 0.17677,5.65685 0.17677,5.65685 0,0 2.20971,2.12132 -2.20971,2.47487 -4.41941,0.35356 -14.31891,0.53033 -14.14213,0.17678 0.17677,-0.35355 0.53033,-2.65165 0.53033,-2.65165 z"
         style="fill:#8a8997;fill-opacity:1;stroke:none" />
      <path
         inkscape:connector-curvature="0"
         id="path3819"
         d="m 328.98143,421.83894 c 5.21491,-2.47488 3.0052,-0.44194 5.74524,-2.56326 2.74004,-2.12132 3.18198,-4.94975 4.94975,-3.35876 1.76777,1.59099 5.65685,1.76777 3.71231,3.53553 -1.94454,1.76777 -4.50781,1.32583 -7.86656,2.91682 -3.35876,1.59099 -3.8007,3.18198 -4.77297,2.82843 -0.97228,-0.35356 -1.76777,-3.35876 -1.76777,-3.35876 z"
         style="fill:#8f8989;fill-opacity:1;stroke:none" />
      <path
         sodipodi:nodetypes="csssscssscc"
         inkscape:connector-curvature="0"
         id="path3817"
         d="m 273.65032,311.97222 c -1.32582,1.67938 0.35356,1.76777 1.591,3.35876 1.23744,1.59099 3.0308,5.37491 4.24264,2.82843 1.5026,-3.15745 -2.47487,-4.33103 -1.06065,-4.5962 1.41421,-0.26517 3.18197,-0.53033 6.09879,-0.53033 2.91682,0 3.8007,0.44194 3.88909,-0.0884 0.0884,-0.53033 0.26516,-1.76776 -0.17678,-3.71231 -0.44194,-1.94454 -3.8007,-2.65165 -6.62913,-1.85615 -2.82842,0.79549 -5.48007,1.06066 -6.09879,1.94454 -0.61872,0.88389 -1.50261,1.76777 -1.50261,1.76777 z"
         style="fill:#ffeec2;fill-opacity:1;stroke:none" />
      <path
         inkscape:connector-curvature="0"
         id="path3825"
         d="m 320.40776,425.99319 c 0,0 -0.88388,4.68458 1.32582,5.3033 2.20971,0.61872 8.04334,1.32583 8.92723,0.0884 0.88388,-1.23744 1.76776,-3.35876 0.97227,-6.0988 -0.7955,-2.74004 -1.67938,-15.46796 -0.17678,-19.79899 1.5026,-4.33103 2.2981,-15.1144 1.94455,-15.46796 -0.35356,-0.35355 -7.24785,-11.75565 -17.05895,2.2981 0.26516,18.9151 0.35355,19.53381 0.35355,19.53381 0,0 -17.32412,9.54595 -19.35705,12.55115 -2.03293,3.0052 0.7955,8.39689 6.8059,6.71751 6.01041,-1.67937 8.66206,-4.77297 11.93243,-4.94974 3.27037,-0.17678 4.33103,-0.17678 4.33103,-0.17678 z"
         style="fill:#906844;fill-opacity:1;stroke:none" />
      <path
         inkscape:connector-curvature="0"
         id="path3827"
         d="m 354.34888,410.34845 c -0.44194,-0.97227 -8.57366,-8.83883 -4.41941,-21.65514 4.15425,-12.81631 17.50089,-7.86657 16.88217,2.03293 -0.61872,9.89949 -0.97227,29.07977 -0.97227,29.07977 0,0 4.33103,5.39169 -0.35355,6.54073 -4.68459,1.14905 -8.66206,-3.35875 -8.66206,-3.35875 l -13.96536,6.98268 c 0,0 -14.49569,2.74003 11.49048,-19.62222 z"
         style="fill:#906844;fill-opacity:1;stroke:none" />
    </g>
  </g>
</svg>
